<mxfile host="app.diagrams.net" modified="2023-03-24T23:27:25.559Z" agent="Mozilla/5.0 (Macintosh; Intel Mac OS X 10_15_7) AppleWebKit/537.36 (KHTML, like Gecko) Chrome/109.0.0.0 Safari/537.36" etag="_BciM58sAIcGLguZp98F" version="21.1.1" type="device">
  <diagram name="Page-1" id="TRdfn04tc6vujqohDS0T">
    <mxGraphModel dx="842" dy="463" grid="1" gridSize="10" guides="1" tooltips="1" connect="1" arrows="1" fold="1" page="1" pageScale="1" pageWidth="850" pageHeight="1100" math="0" shadow="0">
      <root>
        <mxCell id="0" />
        <mxCell id="1" parent="0" />
        <mxCell id="5Xc586aEBhK9T8_wE_ut-2" value="" style="rounded=0;whiteSpace=wrap;html=1;fillColor=none;" vertex="1" parent="1">
          <mxGeometry x="30" y="30" width="750" height="460" as="geometry" />
        </mxCell>
        <mxCell id="5Xc586aEBhK9T8_wE_ut-5" value="" style="rounded=0;whiteSpace=wrap;html=1;fillColor=none;" vertex="1" parent="1">
          <mxGeometry x="88.21" y="100" width="631.79" height="360" as="geometry" />
        </mxCell>
        <mxCell id="5Xc586aEBhK9T8_wE_ut-1" value="" style="outlineConnect=0;dashed=0;verticalLabelPosition=bottom;verticalAlign=top;align=center;html=1;shape=mxgraph.aws3.virtual_private_cloud;fillColor=#F58534;gradientColor=none;" vertex="1" parent="1">
          <mxGeometry x="60" y="70" width="60" height="30" as="geometry" />
        </mxCell>
        <mxCell id="5Xc586aEBhK9T8_wE_ut-4" value="" style="shape=image;verticalLabelPosition=bottom;labelBackgroundColor=default;verticalAlign=top;aspect=fixed;imageAspect=0;image=data:image/png,iVBORw0KGgoAAAANSUhEUgAAATEAAACcCAYAAAAXkJzsAAABPWlDQ1BJQ0MgUHJvZmlsZQAAKJFjYGASSCwoyGFhYGDIzSspCnJ3UoiIjFJgf87AzCDBwMPAzWCemFxc4BgQ4ANUwgCjUcG3awyMIPqyLsisPW5ncpp2mi2/+eDaJHfe3ieY6lEAV0pqcTKQ/gPEickFRSUMDIwJQLZyeUkBiN0CZIsUAR0FZM8AsdMh7DUgdhKEfQCsJiTIGci+AmQLJGckpgDZILt1kpDE05HYUHtBgN03wNTSI4SAS8kAJakVJSDaOb+gsigzPaNEwREYQqkKnnnJejoKRgZGxgwMoPCGqP58AxyOjGIcCLFCoP+sPBkYmHIRYgkBDAw7PoC8iRBT1WFg4DnOwHAgtiCxKBHuAMZvLMVpxkYQNvd2BgbWaf//fw4HelmTgeHv9f//f2/////vMgYG5ltAvd8AQf5faH/c1sUAAABWZVhJZk1NACoAAAAIAAGHaQAEAAAAAQAAABoAAAAAAAOShgAHAAAAEgAAAESgAgAEAAAAAQAAATGgAwAEAAAAAQAAAJwAAAAAQVNDSUkAAABTY3JlZW5zaG90+WLL/wAAAdZpVFh0WE1MOmNvbS5hZG9iZS54bXAAAAAAADx4OnhtcG1ldGEgeG1sbnM6eD0iYWRvYmU6bnM6bWV0YS8iIHg6eG1wdGs9IlhNUCBDb3JlIDYuMC4wIj4KICAgPHJkZjpSREYgeG1sbnM6cmRmPSJodHRwOi8vd3d3LnczLm9yZy8xOTk5LzAyLzIyLXJkZi1zeW50YXgtbnMjIj4KICAgICAgPHJkZjpEZXNjcmlwdGlvbiByZGY6YWJvdXQ9IiIKICAgICAgICAgICAgeG1sbnM6ZXhpZj0iaHR0cDovL25zLmFkb2JlLmNvbS9leGlmLzEuMC8iPgogICAgICAgICA8ZXhpZjpQaXhlbFlEaW1lbnNpb24+MTU2PC9leGlmOlBpeGVsWURpbWVuc2lvbj4KICAgICAgICAgPGV4aWY6UGl4ZWxYRGltZW5zaW9uPjMwNTwvZXhpZjpQaXhlbFhEaW1lbnNpb24+CiAgICAgICAgIDxleGlmOlVzZXJDb21tZW50PlNjcmVlbnNob3Q8L2V4aWY6VXNlckNvbW1lbnQ+CiAgICAgIDwvcmRmOkRlc2NyaXB0aW9uPgogICA8L3JkZjpSREY+CjwveDp4bXBtZXRhPgp6qkFeAABAAElEQVR4AeS9abB96VXe955773/uQS11a1ZLrckgyUCYAjjExBi7IBX4EJeTSlwhn1zluBKXy+U4diouJxVXKqnggoRKghMHTIwhCVBACRCDQRJIqCWhWa1uSS2pZ/U8/Ofh3pPn9zxr7bPPuefelpDBH/Lee/Z+h7WeZ631vvvd49lncf78heUYy3Hy5El/RiVVjkUXWKvi/KWLqrP4WC4XY2GBpWoWY2dxMHZ3T4zTp09b1soGSXtjXbp0aRws98dC+jSHJTlKu7s748yZs25rHepNqwrqrl69Oq5du3GIH5ucBHfTzTeVHev8LXDj+o1xRTib/PZJOAcivOncOXGsMIGvkvwXvBaXFJP2f86vgAw5Ok6fOTV2905Mes2/QhrjwoULqcYaCIq/udw3J05SPeHAPzNtXL50YRwcFAzhLH4F2vbt7e4qrmdmAo1eVVpdvnxZGPuH+JEQzFiqb246e9YKE//B9bHcvz4WB1fGuH51XH/682P/yx8bO8/fNxbPPjgWl58YC9m2UKzBcFLG/Q8IHrUpKjvesnX/5Al14svGwS2vGctb3zCWt71t3HjZ28Y4/VL5pnF27raxe1JjTUEISmFBoCyxunhecS3/m2LOf/LUqXHihHi2pEbrvsH2A8V0c/yfOLE3wGkrDNXKXi/HxUuXx3LqHEm0/xbWtiPcsxXXNqUhunz18pVxTX2zyY+zPf7Onbs54q1c/LTj/7Vr1/zZ5HfAiuimm84pt+bNhElMGR+X8UeFjL8Vf4//M6fPaMzvBnZL/Jfaui5duOR+g2vO3+N/T/1/SnPSlOTL5vi/ePGidfcaAFPmaTGN0qoVl+taSJOWB5zVpA1DJ3oc42o9tbhapf2daltxJhQJHjBb+RvfAi/GbxAWDpNVyyxHY6pwpoZC8TPINAFNdiOCOxHNEhkPH4qH/fdGutV/xBusDTKC8Db42UAzUrbyt0XYlfhXPLFNHMsZv21vuiP444mW6ON/83ssUC2ApWbKay+McelxzXrPjvH058Z4/CPj4IlPadJ6bOxpstqTjDZNRYVZNVFr/qW6XvswYdPjsVdDybbafzj2b4ydi9fFcXnsPPmwfLtbaGOc3NkZBzfdMg5ecucYr/m2Me74xjFuffVYnNHEdub2MfaYpMVU/rOmDPeKX7mDyIhVLUk9/ro8jT/iP/d/Esj4A5dPL5MN75zf9apeeueyyU+/M56CZDRzrso0fa3bX8IhoGP8L8vD1WPPBq1iGB+/hu3vgN4kHY6/a9x/qzaL4r8ztUAGh/S/Zxy17niYRAD1PgLhaGPKO8wEm5RlU1nH9dUWkKlmKrpz0mWuK0X4PahVjmzhr/GHlZbucGRJrAmNyx54Ksw6IZiqIwkAL/ikY+P/Jr/n5S38gcjAO4p/ySTAgK20yU/1xK/8Nv/hZw/eKMYovPa/ivYbOdsjv5ufcOMw08kEVIATv8oTnuTNA4bq4d8hjteeH4vnNGFdenSMpz47xhMfG8tnvjiW3huWjijMJ7/X+KV/4DgCbjJvR96bT1XV/2J3PZzmX5of+5f7sviF58aePsuHPiEo8dx6+1jc/nVj+fJvGDt3vGWMl/6pMW67Sxi7Hrcr/6UrvJ6Q8J1PnJ35j4g+05gv/x0LLUoLCX0i2+vUUGrcrkn8D/NLEjJrtOwGv+MmVkMezx+koJUTUxU0YKz7X/yqXxt/Kk/+Fz9AZWp5DtiqjravfPtjSyOSR/AD7GBhLv224kpOzWWFMa5fu6YxI0DtPXPISzMENFsEDdB02KuBkYJbuhlOJ4lzqog7NpMe0qy/kHcgEcVdBriwfLqjlaHTu+aghg1gG39MFx5KLAAlXyl2M9x3xj6H3lv47RmB0akR8tv4g6PjCE6tkLBQyEqj/BGTcDpFL/ztv8MhO9DG/+af+7/Q6ZOdIS6SKKnURWOtb5ANnsW1kB06StnGP4//AZMAukfE35OVUSylvrs2xrOfH8tH3jcWj96jI63Pjt0XNIlduxoMG1E2KG9+Dqs8niirEp9xT9WwN/9C9nqAqskwGzGOh6Uxa8NLjjAdqjm/BtniZh2R3fbGsbz9LWP/1d8wxiu/Xaefr1wbf81P/BlnAOVoN/nN+DPmRWm5bsNiU6PCn41Ja44+18f/7h5lMFb+z/sf/pzGI4WMrUTBZfgxYYGPzq34XVQbKdvN+vib9z9Hx+xXj+p/YnHAzld/YVjx04YVO9gAhgldRc4peppH5OcBR+PHbH87dbqJX9vijz5zkj23UPjn/mML/usI1WncuH59XL2mQ3hGG0osCDqdvCMAnQec8/lyNUsisFmisX/j+rhyRQPcpJEjJAmA5OT92XNnHQjkOxHUabaV4Rd1nWkbf3WdrrvpWoauM23yt0Xgci0jZqzzU0ls93SN6dSpnHPP+YMBwkLXu3Tuv78/+d/8dCLkTITnfJ2JClIsSj5L4kFsowB5+B0Xg4xx7uzs2psx0C1MQV67oWuAV2+oBXy10KQscd6hfyR77txNGTStZ8laSHZfp2iXr+i61RZ+Bj8T2Gldi9zdBVyT9yPvH8vP/Ionr4OLj/jUbunzvuKPCRM/TAx9L8s+7GRAz/t/4qeRScTN7CClbfXU2TnGnzA9/vaVkyyJsetJUeX23/XwC3cpgeW5l46d214/xl3fORZv/sExblGeCWmWuLZ6XWO2/U+frI9/rovmcAlLksoMl/evX9O1VU32srSOt2InpqjWfaPrXbibRTDmy32NsSu6HrmNv7e/06fUN2z4SnP+WJWaixfOu9VxmvF3/Ll2x/XVzTQf/xcvXpAdeCpM4j/b/qnf1Q73bF1bjVTJGjT5y1cuay7g+l38b377r0qm4rPEtdKcHw3SNW0z167qWusGP22OpcTO3aQxL3ldE8NcOh5lzBQFg0t1dF4GDhKu0XKVqOtaNDjxYe1zBbAYbIxMryONwDQYkVUKOproS5hzdhi38FuKRSSmZaqCZCNUcRQ/8zuedlrnV2lqOuw/TbQz4Db9x2bXtX4XNvyHH4SEBx0EjRzcub4xIjFJTfx4wZBof7bxqxEB93xoDvNL305pg37wvWPc/T+P8eUHNZdd0QbO0Wi8hSl9JwRO17Rz6zhgcjZCLRN489o2OUpdSx+Ii572ZOQoCE+CWL8af2UTDQLnSJMMN1wY2LoFJJeEKIOYgPeZ1SoWTI6L80/pyv4zYzz2ybH82M+OxZu+e4xv/Rtj3Pw64JywDYdsYzpVbevj341Z1DK6LK1nTqav9k4NHr8q22SMb2nWdsdr8ytnv4/gT7xjY8tb2XrkUotPbH8ubeMPEArr/qtcEXDOo9I3IYREfA244g8bKM2cmsR0xq+KNf+bX/WYh3xjrfOrRGP7YKEVv/W0YARFf6FrsIC55Egrz2CgghY+rDS4PHBSE+Vq0soDEtASJ9MISAF5oAG/U44g3xw2xoBBNb+zW/hVn0NPUJOCVC41rOTwiSJpzm8R7CuOQ/xopVGaSOvT/hd/NqKqB18yDini4Bpb60rb+C3EXgYZy0fJsVnjVztUxF8i+L/ipwkE+NVM1hmt5wn9WZ/4MN9g0taR7871C2Pn8Q+M8bH/XZOXTh/FFWsAadDkwi8rcQpcmuHn6KdsjCEmpdHxR3417CKvGbJOO5BikqvdoHzMaRn1SWB7oiU2Ngnb2/uy1/xqb185HblxbSyef3ocfPSXxuKT7xzLb/yhsfONf1VHZq+x8SAk3JkkD49/kxXntGqzpM1f+VaiE39JOVQa/3P/01FmT9YzHbZ8jduf+z/xwBwSkGx/3aceYy6FP/6nFf5spmgXwsb4N2gt4nL5lkLiL7jSnvjZ/i1S/YOENU1d/EhgkAdzIWzwT+O/LNxrhzwA0ddfVBNyBi1jY8egtK+npnbtrNEYxsuk2o9UxDaMRKPZygrLN8gWfppq4JrPCORKp1VVcxz/kl2EBQ7z14gG1NZxuDD5v8FPMZRFXCsr14Iqdipz/82vQKwmpJjj2GREzbRpk50A8Zn5TzF1iVUZQ+1aYlAuZAQuw9H848ozY+/Jj4+9e39+LB764FjosZNO4WSQZXLyqRJG6CjHoQMriM45SNUwn8y07XBy6h0YzZ4qiD9dIMOMobWvoSAgijD4uE9y8HNzIeC+7oPjisNqMrZamSA5/pFRYuVpgbobeiznQ78wDu57z1i8/d8Zyzu/byxuuUsHdWekKzzJlEXWDER5OcMDt1O6K/FvTtoE5YX5tcjxcjeownhhQ/Yo/t7+elhYDexKKVftrHGTv8dfDJOgZdvb1diIHNrtk9pUdPxRozBLocwymGk8it/dON2dPMy/2v5oE7ccn/NTmFsAs04nywxaPLDawgjbaBSJomToqGi03GzdDayLKfsVKpjhMUr6LWfVFOycsqsYbeEX2HygzJiPzG7yR3AzDHSOWtbsigtr/hd/WdwuHslNw7H8NmPd/21gC23EFj3Er1o3sMqg29SnOQz0YVoXNy7pyOuDY/cLvzP2vvjbepZLz7qVYK9BJK8eU7b6X7PRqv/dgpgJ4E8QVfZMpbXadEVRLZmIeLyAu5SImse6ZXfj1BplZ7k7K+GD+fijActY6xO/tvCrmcjBz1GfxzAx0Knm8oP/dOx9/j1jvOX7x/4bvncc3PzGreNf0tlw5/xUdrItmFH8lOGo+lX/4498pW0teVNN6I7b/tApXw9BNF7z9lr1K378V8Uh5VT0+C+zTWZXCLI+jh3jj759sTTjWOcvLpM1yDp/1+LsVn6Jl8YkmtNJimnplewWhOrSOTXQJgDqJ5UJzJWUsFwJLV+3qDztoSltraaNYsZPdht/ZGPLVn5ISTTqcxR/rv9FZpMfdafaQoBi5NkmLYwp8EwrZXQ0VksrpUifcyRiBNuEz8pAXCtLbkJV/NE8ih8VPqFjWSCpCGxV2W5h7jynO4yff+fYu/+39MjEY1LRBIOkDOXmik1TDUc80zUrYXjcaRKqqQuJCd+mSqZCJpkqCI+7YQwH7iShw0bcE4vviCOrf38sRyH8hMhGaM2RDHrehlRuFyl752hyYGQh13QlQx5+ZDndtb4M8Kkqp5pP3T/2nv/HY+eRD4/9N3/v2L/rB7Rb10PSYNopZ1FOxpjJGlPZalFONVSSNsZ/Kh2VZGNRVGzfCrjxmv9f5va3mjvKekxu6iI+jj+ykSiE8mdjhf8SwOOt238bsoV/QqrBNPe/+dODWJA0nU66KHIPHArqdAyo8VD9U6ZjIL5U0bqzhS/4CqgHXQ943LJKrKHYNdFWI+18juInMNP4MlhU15YESdjb+dXG4SwObOGnzkntbNTe8FRhm7Sc+JFLZeTnS3dSfKV63f/i99bIRj0DITvjjy7LpjrMP/VXxLKc8beZyxuXdeT1q+PEp39u7Dzxec2s/W0FRlxIeQ5rwmMGE05uuTc/R0UcVcnQAm5518FO/Y4i79NX3c2SKP5nokk8vTvnLqhjjED4iScX/Z1q/LlEPY36cFRlmySHGT5Vj4aXcK2Nv9I1g/h8JFins9i60DWz3Qf1MO1T942dhz8ybnzDXxkHL3u7GjL+YS3rzO+SKgXloNC+mdb41WibZij2F3343VoofwLbn20l3jP+FGyorLFbqtq+/aOGUPs/d4smEv4zkR+1/S36dLL8n/NPeOanv9KKXRAf2v6EoSMxqt3uvTHkU4UB0k5HNFliQKM10U6q4oEGCRsnxYz31mWt5IEa4TV+quB3kiwU/iMbDNYZ8zQWYatMmqrP/xH8jBbwwJ35D1xo3Eb+KH5PUZ6IIjpfNuYKrkHDWVe6reLrU+TmIihWIlsWOtf+h18tCkZi0xornxpmcf2FsfjA/zBOfeqd+voPX/fg9ncmcvg9kcJfz3Op0faAzZ2/FMtAG0SdyhyZMVn1xFMm+FoX8MAgZudUdoUWDHL9eydxHL8RxCHF+GjWBtLGUvxqRaaT41/88IS/24u/sNv/xaXnx84XfnvsPnXPuPZtf3Xs3/kXpHjSUo0bj2S6IGyJY9O4kiIrvqPHfyFtjH8rSY8uOWr7i2a45vyFuGo+lh8SpQ1+o9JU9lsGR/RPT6c6Amvjbxbz6GSJ/4xx6xkjugZExDcvItvbClxFlPVXxB+Mxfnz58EZJ/XcVJ4hmaMhVJ4pchf0DIl7kDsdEst8p3YKGq17enaLZ7jKijBsLC/qu5O+PmHl4ioKRHkY9oyem5ocnvF39qq+o3dDz7Rt8k+2SvAmPUOyLbV316V/9ZqemwJ0xp/NJRXn/N1JRhb+zeRoVtrX9Rq+R9b+r4DS9XQ43yXd2/OTLNZp/nRaSomrm2UKWjODlD956sQ4uae4dnXxT1hS9fM9VARYokLS9xoXFx4ep37nb4zdJx40ASL2yMqNUGutmNA2+Y1JsDk3Y9fI5KGi48+Cyc87hZWBXMcyTtnqdk9GK35O6zjNm/wSNkXr1XVA3/VEzhsGpEfw81gAyviPH85puckvu5iYY25k7Zey1sN/vuv6rX9ljG/+a+PCDT1X5cFeWIyD2fhnu8nzhgBA1mtlK/n7wvXYAlEhjJzNGlc6PDB9Vs/oJbU+a1Iwr1zWmNezfsdtfzfdxHcnW9/Ka4trHvNXD/FPZkv6Jj3HOcXR2uVTjf/9Gxrz2hE6JGr3SKAw63+++8zzZNtSrFuOC+f1LCh6kBcF8j3+T+q7k5mP1vnn7p33s6DsjoWDYpACwzJlAEiSmLKS9b83E7VRKH3PzC1INfUkui4pG5dqkM2IXeN3vUXBaaw5v6qhVFvspgA6eKrjY32qm3XOX/rH8jc3GwVpgz+Vx/JzdHI8f3DxJX7E6vi/wa/gr+Jf5LGqClv8v/aMrn398jj9zh8eu49/STSxx4NPEwEaniyYOChRoYXr06iiWhRDwjjnp465xDcc8JMNlI2y9LAeee44ohw5suRVD3/HHyDLlQ664MiqTHdUYCF2qEHVbRO4BlQ9R3/wg09qfutIjjIp4w+0lKKDnZSZVrXUXdrlB35qHLzrPx07z3xGeyuVSz98SM7Gn5UnAYCczK2crXdzaUHX/mNzyEtrjrPKH8vvgK1kCyjxiiXFcBx/9F98+5PB/p/53/xse3zKgPYfBYdX9bS5uw/5P+cn3x/AFKE0p5oqpcSN66RqPLBE0TTbRNsKaDUSdQlICFKPcW4pjOkQX/grTTWq4NmzBuUaf2E4UoHzcqXfldv5gWS7IG3np+F4/g7O3IbD/MBQS4DT6s4pfjYmH2VgyJr/4Z/wlNn0f5M/LABtpuK1HaJh42CCeOHBcfIT/2Sc/MCPjZ3zz6vShze1gStuUjPHLP4MM4pgbOOH2TJtAsLmLf/tR2R8zcr+xz74HQ/w9YfaTgdLeSYg1wNZ/C4jK55CCV2x2tjmxyYJ0e9ch2Gd+Jdm+U+D/1Q993+/xr9dan7su//ucfJ3//bY+9K79PgJb8SYLBHhbPyVhdanBT+UVuOv/Hctxm0bf24EdjPjspmP4u/xV7qH+XukAnUUfynL7aTJEBfnnnd7o24b/8is/J9v/zRs83/Fvxp/YTLWKjvlmt+HGnMD3Z+O5Ko28Oo0ouMIqY1mi1CffD/LsxbrChrMxgGi8s3QawbJcfxgfCX8HK6vktiq/JXyewPyqUkUrRfri7/Q3XzYf58uIOLAbOdf2TeZp0z8X+MXR11diEqP0BmAzdBC3xjVHcf7xqk//LGx+6lfHIsrL8hq/dkO4UgGdTZ0fEJvDU6GE3/rqJXNlP/mjzuJhpUBQEpV6PE6JhTof28LWoPFxXq04CfjOksqX3AqAjDxx7qU5/w+CpOox0nhG1z55if+zW+2mf/N37Twl1lb+XeeeWTs3f3jY+8zPzt2Lj9ZBksDJT4C9IpiZXpN6xp/ijYX/kmP+krHjf8X2/6at9eBLAdVcExUhHsrvxSP4zeeO0yWY7wd2D7+LRuFyVE4IX4xfo8Wb39BsZ610E/JLcXf50uRlqDrWU6yqzpmXL9KpOR8mg8u8opQAlBQ0wrEgJEjwJ5Btd6U5/QAGXu9hZ+WzPqx6Sj+SRUFI674KZrjxfjZndvulf+g9V6H/Ivym5YQb+EHYCOt+V/8DFxFXZKJzJy/+9Poiv/ihfvHqff/Q92FfK8u4OtaHXX+9rUwFHjGhT8cGTFhuBxcTOHomOtF7iRThts3aegsKzNJ1UQlGbSR8g0GdF1WPW3SyQ0EJFTWgu9IUmd+V1olmOr/5s+8w6kCeqxzed7+gyMwn0KaTxWMP7CpB5KF6vAKY6CCW/8qUicR8q7QWnowIEcjf9bDpvOPj1Mf/5mx96mf0svsnlZ75Fb97yottiUQbZE44Ak68Jvjv3GRKBXrqmR78P247W8bu7G+Qv618ReTJ/7gyCzidch/1RF/mtyadZaRJ+9mLRLblXxLr/F7/NOy6hOXCGCljj9jpO1zZrJdshV6i2ShwaRKYNgjgoeMhxdIk3KkV8saWJOA5lpwPMgkVXZh7gSxlT+iXzs/9h/DDwH8rNs4skqucu4r9R+P2q/Ju/jZxQKd/KesD/zUsYF1WuVW/NQtnv3kOPXrf33sPvJpXcPRdyCZBdy7yOVxF5z2AFIn+tU4s/hbRio2CUDrYjcaWqvMFSObIhz+yAPhI3DLx0qwLI8NkrE+mNairvofMur1KUThRQf+yX8J9OTlJzMkgrxxpO7vrPvmgimCiT18fJdM/sOhCcl9Kv+hztdgyCV5u8Ep68HBJ/6Pyy+M3U/+v+PUx/4XnVrqDi+xtN2hsx8NtLHO9AhYc5X/s/hHhXhXKuxCtx1Yc+z217qH1oX7Ivz4ehR/Qx7LPym3dK8btwW2+z/xy3fiGWkKq7QqreJPd0m6STpkUYpCOtyQQvXA0oKOoY6JGfKV9wYMwGwZLHhC7hyjgDTxg7tKyc/4q8m38I/kR6uDtYm1ajuOn22PlPVh/sAH67D/xcFq5o2LLnfXaJ3KQ/5v8menNPPJ2fAwPY0v/+E49av/ib4j+ASkwitZOquKiWzF39Tyi8nGztQk5/5Q/6BuCC2ElYNC6iVPlQxf63/q9YxZEpirrRP8QGFL+MCvXPFQIpWVKsDT8Yefx0IQSj5YVBB/s/FEsZJEtPBSmeYEKzZ78lEzR7g+vbW8/Dch8vJOgFg954eFt9PufPwXx8l3/009X8ad7fADsZ6aP7XsUNbiLxr7f2j8x+LGwppYwtpG/Svf/hhSX+v2h9vb/V/1Px6v+z+LqbO0Jv6aiahRkKORIgiuZx3ghnS1OiV/MsWAwcDBJGVc32UVqsxzOTkNkIxHSXTDj1yDlMImP5BfE3/jH81vZttmsgpm68FPPS4d47+3rPYBv0pn8q/xaOj4I0f3Ks34cyLV8rQhIFE9QjEe+v1x8Bt/ZywuPm89NlILFL83Wlo8E2lj1Zbr+COGbH3SFVJiWzEEbbD0aRZ2uQJFyfCZ+U+fTM0yEH5j4wpYNEpeDzpGj3J91BZ3N/gLAv+ZhFZpgx/sOT8B2sJvtmn8FbjtoicpF7+JkFYSr+NPUULI7X5BF/zf87f0XMtjK5+JCfJOkloVVv5rkB85/lt10utMT3+2MLj46r9Z/F1ukHV+KwF3HL/hJTTFeZ0/ngvDOEfwl4mWbXWbBG5sS98jqI87nYbjx39gJ/CZKfF/ceXKFcMziUx300TgUwcf7XAIrkDKOb+4DawyCBvicyr7egbNTUkXcIrAcRvjincTM2RwBpZVWmnxIrpt/CYWsO/A1cCf87dpIO361S3Ysc7PqQ/8Pp9m0E5pxY8W/Ls7PN+18r/522z83zdGmOf85En+uo0K7X/zz/0/iDGSbq31+PMlaP7W+PXCwt1H9OaJD/yojsTuIyjWJh6ZuJTJv+cvNkQkzC+h9Ck+V/KAQjllR4lrYMIlXvxl0Km9ZDb7XxJu8pFHOgYtH/Hw3i/zSyJHgEL0BBK+aCKdlF4Svw6LzA+ebZwEXDQNg5fxoCZMi26wWHLEZX7J9fvHjGkHCg9NcEjKrvGLxKf02IsIJHoO6uDNf27sf+ffHju33OnKbqK5kLRejBt6ndFx/S9xX6+ba3W0evwpeHJRiyaBAztNlErGPNyb/L397TtGied8/MHfWnnl0fr46+3fMqI62M92s8nfpvHCS5slVPxvfrR6/O/XCzphTlq3Gud26m2am/x2UEpL2ZFhoRFP31z3SxGvmNRjgnjJkgSFvdGBXkJ2cwI056PGZXWWf3yjHiAtTbP4nCuD7IxeEJdAtfFSl364guUf39jCz1RAIE6f1EsRT/YDpCv+2BHc/MADbXJixq8aJ34g4pReEkea8xP0VPLDGZf8QCuWhzlLOo+LE0xQZ8/qve6UO1jdewXihxR5J5cHUETdNFvkhYa0edNKizGT5WWVN/xgbvFr0tt5+qPjxB/8yNj9sq6BcZRV/Fn10FG1/GcQgN6mAT1P8b8HbiLgiVB62BT/YxDx91ERF0cMVOviDwlMSCp5lIFp4VoKgyYLaK2Mr6NJB0m3Ea+yuyc/tJo/X+0xQYCKP6vD/AjNOYvaq+P42392qyCs8Z88N/a//t8e197+w2N5E6/2ERwkE5Mq5P85/WiNq812eMEGzVjLxCX/Jez5irXE4T17+qR/cMYUEw9YcGglpQv+YRTqYKOSNuVr/PPDGye2vhTR6pLWD99c1MPo5ORohVSl1fjnLcRn+TEgKJxW/BJ0/WX9qAkv4dzkb6voVx4k75T4m1WwAb6mF01e1wsn48WKP/GXpsbfTXoRKFqeCTDWM58ArCTHM3xDm3woTaGtGMe8MaPsSjD4pyvEoQ+zvduIiGp8sRkCs7SSRCrbrL2XgAPZFX9qsneWnoNWHMAap2xDcxu/O8dGoOE05+861sW2hV8cjhFSR/NnAwZo5n/xN7YRbDdIlaFyljb9X1x8eJy4+x+Nvcf1ICbG+8o2/gbVYaEHyLgjNA3UXUrqem/YFO1/3wHEEqZL3pAK98oq6pWq/w2tDWSKuLApxVv1d/HnCCJX3umz/lZA4x7HjxPmtLHb+dsPiZo/tCt+G8JRpQTm/K13HH/7DyboRvHRoaLFV7ju+7Wxd/KmcePt/9FYnnzJzH/6Qx7ipGeE8gKgDFwAnYgHdf2+raPHf+A6/oEpDpCc7fhv8MtyzCFGh/lRRh2B6HWvopC8W0CxPrXb+JHPeAiOIbeMfxPVouPf/FTH1F6CSKqxKGLH1r7UmKCZQ/sc5gOgvGLeFyQxdk5g+V4YvSnY/0bS/WcvpSsrewJzIG0iAPO0wjiSXzgJM/YoxUdlVroOLjVq8+BAbIM/oWgkCTitMFxU8yH/5/yoZ7tQZqXb/MFI/ZH8NqHtWGFM/M7IfjXZc/h1VHfqff/l2HvsHtFqutA/kwQyIEzxp8QVaiXzt42iq1pAaXXfO+bEiSrheSwI1LzgI8w/48STJfiSBUxHgof51UylUvNL0/3S/JQDAg8bX2qaX69MVH3bJwnbg7/IR9U3FCgLCjQ0JBBk86uWKtdorXzzTyBqm/u/0JFu+w8N9rT/IPHf/IvLF8aJT/7c2P3Sb0qMr8JZ0jzr/hvJ9aWdCi3B+v/f9je5Xxl6z6HNetv8s7n9ETipefeAuvd3DMYGoqNU9p8q0/HdiFQlZ7UwWDrQ3SKF3odqTAkLwRp8CJPWVsGIVNoO8TM4rYNUJWdXulPLi/IL6Aj+CXrT/zk/6ugfxW/sWIPcYf9VKRsZ6BYFCLkmBzrOrjY8PTpx4n3/xdh5QL/0w4YmeWtry+SyGnty9F2P/+yJqgyXJ7uqIO9fD1IDN/boK64xeGOyjvpK/vsHGzR4uJ6CfapS0ibvvEdHyvhCGw20EztmDJWp8nxKpj8GQ5K3u4IrWWFYvpzo/qfadw/xwQYUrurtMCjFn5iFH8yJDhA4qfBaFa4LP7baf7VmqEqOay6SZ9Qiap+sg4FlExmdCp7QtckTT3085rCU3Nr4h9ZIWbPEDJKx2RTlm12nUm3tf4eG6uiE32VntZA8x81p0XKT/090+/va+NvPQ/7TF45Z/G3/PcrtuAY1EXC+W3vPvKqcC1iKxQo3GNRJtVuskyOxBqq1R31BYp2qWyIFDSyDsVCi3QIrKapXMs5RdSx/d3W2OsMKJPxW7sWm/xv8jbONf+aICeb+tx78OXUQ4Yvx718be/f89Dh57+/ineF70LKZGas2B6LGZZCKzDq/eOb8zAmI+l36zqBXKcFOwU5K1rheTDjw459PZOyTJkOJ2C5pO09fszVSNiMZJknKSj3+KBcXis6CVXXm9wIdFFkpA6/8D6d8DGgE0J/zlx39iu05fxOFd8UPBSlxtcbkB5wLTWR77/m7erf/g5Y7zK/q4i2PJ0fn/EEGQjmBxA5DZrESmCpbJvEvsYBOOnP/t/MLBcoJlcIGf6omic40/9Qhajjsv6S29D8Y5jw0/o/jt0bT50jMpfQO3RFbPJJquGluyj590quMzZ8c5+w0gy1DaWogPvD2B3/cPTNj4vWL8ocxyw7aCqWCLipLdIMKc35sdKdOBmJbC7ey1mp37cz/MLOESw3OeeVc2rtca1Vu468rLBHayg+Lko4ITjzye+PEp/4fTzYRFX9t+PyQHneGuZvj/pMKp0N+Gl15vKA9T6ej50rLg+8PP2EHsO8szXTR0+DzZTcbo7LWuZOdyWJXvM3v4wEEwGVMOS8dyi46Jzs5TgknvPkJPQmJX5L9Hz34hYV+xjo7S3DCzz0GtHw3y9fxVFCC39hCyZ1zw9Li7WnHr98ASljtP/rVX9Q7bvQ/JmlBfE1ty1RSXcd/75mnxon3/zea0B6XnGlYYqals0j50PiHwE1ao/zHtf2FRBQmoZQUp1R7PL/9ah1jlG+uIz6koM/9NTwuAi+ho/hL/Uj/Gz+sKU1zk+84NThkyvM1AAuXXyaYL6Y9i8WlortmtKNPYqyxhsujT6aHV/XtMAKVXowf3cZGZYMfonnz0fxil26ZUuTg+X/iOOT/jN/aL8Yv+e3+h396AWBbsMHfwdp57l49Lf7TY+d5/eq2jZSfvaWhIzs43eJoyvH3BqGyb2OrXYc7OUrhSEVJIwq7uOYUj4WHL+ZHVhlObdxZqhcXkjqnXMmrxiVEJQs/j+A4Lt4AJer+l4BxtFZ9oUtOp6jIeYxxGhuxnpgncBBbDyMcULSlQMF6/NoRJuO/KnpUm18N8BcPWogAc5BzXLfBj5z/aESGc1SywrMeccQWyYWfRso53eTU+8RDH9MR8/+lWNXXvgzQC9CT2oMqyv/yxcSqhf+PY/s7gt/V4rSF7f8mP8bT1gmbK8Uv4qLU1VP8VUcfOHYR2PSfWnw2DvoWrw5X2fUsCtvxL/50txp9ZCKBkrESe/NC07qS0SrfwiqSnQyTjJtqdqdAG6Mh9dH3wCHbmJZLG1WH+FHOuIqQwebZVYVzR/In2F8Lv+O3ootftYxFWna71uv+F3/7coT/3uVfeXrsfPYX9Tod3Yl0bwFGF2ZtGdX7iENHMYbSAj6e1yFxtOCjHh8zWD3tOOG7djqCIxi2k3bh1yf9n7rV4Vj4zSk5IHzU0kdRwqWsRYKATPEo52pauIZnZf38W7Klpzb3vfHkKcLoTYeD7T/VahR/jgTxX+U1/shM/CVvO7hONPlfcl6V/x0/86tBcWSycXxUjGHhR8SPDmki39MdyxN68wWmOHnNAlavUt39Lsx5/Gmk6dD47wbWpMavLOiGTFeWfWk085/U9vei/LaSOS2p1/KnXaLqkP801jbDeGnhxcWLFw1xQi/u29WHNmbjKSAqkyC8rK9d0BoZV8OkvmSvrMNqPUPCj9rSueybIolG+FhfE4YvlgpkcmLWzmA8qR+13cbfTvFjtDf0g6NOM/6UAdOLFfVczTZ+bCfxACIvVuzUPmWNJnacElQ0sLX5WxY/rl7RT4KV/8aysyv/ebFbP/zXcUCOTmj/9cCx2OZxCv/y4IYu4v/mOPXef6gn8s+HHz3LYlCA/MwUteztqpXhzCMSJI7EciqUVuT8ZWnESSr3hukL+3AAj+9gau2LrGzU2jtblr00+Kzwv7i6szmKcB1csslQovLRnQr2X3Y5gW8z2g5riDrcyEz8RsOsGb/OJ9FwMiSl8r/5XRZPYZZV0QEfuckOfKwdAhJqw0JDOzbI0qAF40/Hge2r65jsXvtN4+Df+vtjvPRt+nFdbTe2w60oWr/7n3ie1lgDH9i2zXwIKzFWb/jIMJ5ObfDX+OMFnAHBpsPb33X92tO+PiTHfwJp3qHt5vRW/h4PHG1fv5bntxqo+VPWC1bli87OheMgxSQ49UkNc4nG/Bb+9p95hPmoU/M3KqpsNziyh1EcDp+QPHsSGjP0V4RNvi/ZNqLr0r1S0qBCn7dUJnGlgNSSyXsCU2dQy4cl/JwBuU4ToX86Xi2bXEjTPcjxVlXa5/y0O0lgoaf+t/E36kKTYD8pv8bPQGagC9lP/atMqW2Bf0qygSf2XcNG1QkFpebvbw/Ew5l+FPVgoGKnvFln/DuXnhh7+i3Ig0v6NXMGhTemkpMw6vw6tm0yv2rc26oHh/bMMlpLTm34Sj39hSYS8R8JzUlsgJw2KW/PhYNn5leuNILPhqkKjvOyizSy8qA2fwwlpLkTS70K6DaaiiBo5TuDdqF8BWvir1jDGfzmp0JSsrUgqx05UIPtjc3+Fz/mYofqPD9Lll9VyqWGWIeDeN0P11Z4jYofHEH5rRixMkxgPvKxsXPfr47x7a8Xh57uZ7xKljumpi2bsIxn+OY7ut6CkCMlLvr26Few/UWD5eHxz/OB16ftJrgs18Y/23CBzPk7T2zY9rApfsQfx7/11HDs9kd8uPNr+Q1+x191auuH4psL8WKzJjGll3TgI6NFGjUJGTnwlrSYcqrq8GM8OiQ6Mht9VaR6tpzXe/imTXiwHOL33vkoflQx+zj+OR/y8/JXx6/+UgofxgYptjXqYf+7RZoO5qqcaIGpJJhGWot/+6+NkruRO49/3oNfO1tvXGx0wE7xdz1gzcM64O5T6qnSqZN/vCOkKStPn5pfuPZxuu4V+5gE7WPzS8j8+KBE3lHl1MzYrJ1RkTXkSrKDjcUtLCrPUUgmsOgs4G99Qx7BD6xEzW/bLWxcN7gZTNVbdgs/+vCj2v5P8Q+Kf/RXJI7/7DEFxx994oIhbhMdZGBpIz2495fG8tEPq46zhhk/YhLR/zT+U1KZSrewJmX8hceO2J2p/2l3vGjbllb1U/wR2+Cftv/2f4IKP/JBSvlo/hVfIObl6v+vkR/1RgWRr5Jh36rarTOySVxytKnTkeeLxA3lPRVR7hTAAu7wpBEt772UcX6Dnz0+LQ3RHNSm7sX4J8Aj+WmQG0fys1mZywusTGp+Sh43FZt1/4sfAofksP82rPiNZfjw4D/8i6c+OnY//QtqKX6tuMDMHhs7/FwVTaqDZsHPCjnBr4biZ2VbuYWn5DIbZYmoJr66QnAanT6Varjmly78KAI/8ZNX9Q78ymcrLPC5//BXNf3PRoA4m0SPKxXlnz5a2GarIEWd5HjoX4rI+xk4mvRhKPoXdlgzC7T/ymIPq5odwsnRq3nACR6cFgPD06pKUay1Vs1Pk38xSxmprcW/+XHwWb1E8ZP/bBxcfq7Bwi+ZCrf9NI1bJCY1FqlLniWp40Tbv7Ltj344ll+tbbzXh8f/i23/0/aH0x0X5QLrAGV8VJu6IE3rVFLNVmoYL+hc6iKugjZdOsM00naES5yOJHk9OwCkmt7rn2wyWGSbf4Lfxm/QWvxR+VGfbIXtML+DLP6Eq/lkemW98kA82v+4DvaG/yiv8RtNVrQdKl9/Xq+W/pGxc4VrkJVETvzzsCd1xD82YRdHWVPCNgraWGPBSs4NzQ8ecfZ/+H2XUxXdtyvM8JeZKjB1r3A9qbUw/CbWQkZOcp7UJCT+sGkJv+ptB01Uwe+P8uVW90kpql6XNtTW2D3+jNv8CAsAWyxHI5l9LSxIgz7i9+8BVDVcGILolFTgNNszlirNr3VjN79xmSQlymL5hfePvYd+d8YvoGPGf/P9cWx/sel4fswmbeWnYRL4I27/YBzjP/BTXyPbifh3nrWc6TFahxzsULInot12MkLIM6oqdbfS0ptmt7JekSgXkFZdFcGjcyVtvAKY+FWO6jb+wL0oP7YH5DA/NW4+hh9dYbABrfs/wR3vP7psBBVDtNbMwQHXtZ2z+Etw5/PcjdSbKZDThsNBrruBDVJVHNT4Pi+gais49yAD1bzw1x8S1qfj0emko4/IcwUFRP4QSE4r88PnVHe39LOSvrNo3qktdmFr8/sZK7eHP4OzsMRnC9VOmMJvSyUg/oo//sFns9wh4c63E4Lb/tuXTX7TxSv8aX8xy/yWDz+iSBKriZ88wkpMVHBRZrxahjKNSmxBwefwTOjyYaGbUCc++n+Og2vPeTwF/PD4D7Jh7KqUXejxF9dTZxuKtUyLTtSxIvGaLFuF7yj+P9nt77D/a/w4teE/rrWv5Dte1DHOrOC9T4klVIimI8g5T3keGAZXpeiwDBVBd76YGzPVqlRvk//q+MFcJa7ldgo+S2GL/Ch+y3uUHs3vCQJBJoIKJrjhMEJgXoSfrqpwrOt6RqEjlFiIo+O/0DuqTt6r2/PccIGT00dOY7x1YI/KHD9LzzCsDQSVMuQTAuuT9ykWcmx4JdDx6buWeQ8+W3S8D76UdVrEjtMTEDag763V22m44VSCnxsNVHJg2Jd/vcdEBmzHExx80ap8OZCe4zXjj4yw5L/jI34GbPJaT/GXV0AWP1nbrDX5PtU0mTgdV62hb36fKqfFUYpx0kae+CsFpxXF4etH2KY2Ldp/Jh73EWvp7Tz/8Dh5z0+CEE46TgbD7xh4oYKlkepEjKoknTDMWif/13WMZDHxYIBStI7m7/G3kiU34ydvnOP4aYOTPor+Oj91Slv8n/NP298W/gBk2f3vR3X4Hl4PAhvRzJjtILAghBmYMVBNGoCpBRSriaqtXy0poojhrFR2xxQIqxU/W4eFLWssq7EIk1tDsZXf3VQDxPob/AZmYBzD76+jmIMtDI3ilw++tY+fiqBPKfSApbcm+8fdWyn2AI2zUS//J35nslj5r9vF9/3sGM99oRrEz4aCrmYFrOBuKGsWXtcyCpziVY+okQ2LrcSdXThMVraRNrnh00fhu/9Vh3++o2lADSe6tPjTklaq4DdbDFGJcURNDXjnJZcnUY0Dhvm1dBjB4agFHtDm/BpgsUtC+M9KC9NpbSwJ+E9wzY9A9Aqz+KMBC1hSkJz9IDaODyBCkzFmgb/9V37iN5fVQerMih9abNCffdJTDXsf+b/1rv4vHjn+UUE2YFJ2UtlZFhy54iH2pfXw9odEGqclGaoxvnS/lu3veP6MP4K/nV8mKL0Y/2r7Ewpme+FIp0iVUvu/569qsBcUcd+ynM6HPRKiQHavLio7LkwEVCqiTD1xTi9w0YSYKKut5yQrwMqeVL/Jo3qqmHHtLntvfbLRCcN3yCSwwS+AuIO4HqHY5O/byuD4xW1b+IVqDJDyEjlZMuPn7USLG7oWdePiWN54Ro4pf00/Fnr5mbG4pK+T6DNu8I51Wa8Rvnctj53sn37pWJ56iX599HVjcULvOdrTj66ePKNA3zYOTvPeIw4nZHjxs455fKVGbbJh59nPjZ1H9CVivUvJSf57wGpBxxMtEHxtDH7p2A5VZrOTDBxREjd59YeJiLiSimyXLH1UI9R0j5GFz4ZLXmmTX9iWYj3nl+jEj56vz0nG/CqLf37NyPw8Xc8E2/w1ljb5I/tV+A//mv/hd125NfnviJb/zY9f1U9z/wVa/dXxl579krwomFzV4vw2/xf67uuJe/7puP4df19xyeMPaOI/ceDbBtjoeMz4BeqEzIttf/vsDITQ/q8MFkT53i/pxObmn49/3VRVfQkTk0rJgq3tRo77GcKKGcOL/u/tD1d8jdHjTtUZYNYFjljlAez4O+f39of/GkOeS1BQav62CE/96JJitndGL/WD45rO3fmlYkt7EKDaKpJQ9ia93I0a5DulnCUvRTSGGm23F4HkdIHDvrwUkYY0utMaTGv2lhcv8GI2ErgkyRYxwTujB0jP9gsN3dqNEUXjon4d2G6oiQA0P5JUnNAvN+P7xM81i+cfGOPCl3Uk9PAYz9w3Dp76zFief0yTl35z8Lp6BjPEn0MbraV9AhJNZicYMWWGnlwci5tvH8uX3Dmu3/zmce3mN479W24fi3OvHQfnXpUJTmBsLOy7bubXypf6gVbdkVw+f787mBabCqk+vjbiLDxqS69ahj0X1xSm63CYhA666IiHnVQ2MSrEymkb9djMYGOLlIYHMD4qz1+SyvZN6zRJnxZvMsKGHxtd5bbD/L3RoBd+/ECHO6Lw4/Mmf3CkMvFLVnpzfmJhcyTDZI+v2EMEs9eP/44R9Bv+s0G1/7QBHs+MmigI2+MJYvOAg9QMW840P5odf7oK305oB7V35aGxeNnXW5daZDgSv8QvyRMMC4eX9iQehj2th0jPuqZbaUOibV29FJE6tcUIQzL+T584pZd48kvj0WIN/xzvosY6wytpxd8qO3oANRgrieZvmcuXL+sgggeAJSMIXJpvfwy1c2fZsR/mb9uu6YFaXo6aJKAyme0vb+fVfKTthuq9NsAbCYT6oyE56TIoVMGDcqn1alokABWGWtFoaS2oYsec0wzWNFKBVLOVFZZ3Q7Vt8NMkY4yNulKkS6dVVW8Z4x3m9+15BPT9tsVTejPq458aB7qQvnjqHv3YxkNjqXdEYSNfp7b/nG6D7QG8YveGS71k01SEerPl8rImwid0LWTx/rHPNxnO6YjsJW8ey5d+3di//S3j4OXfqLeBvkr2M3kI4rzkv/T7Y+diJl8eoORaUuJfk4uk3U+StznEIoatx2GqzxB1/FsC84XN3s+tdIj/VcJ84dGCT2zbze8pAS7PDLYYayom8Z9aqrKijX9pSg97zej2+GyOUvAEzPyhJovAj46O/jNpBU+78XCqraYp53pgq+BTQE/a5tf0wVp4rjM4F7ns5YRhfrX56NAyq/jD2df1ejvBIXxKx2dlwxVE4pgm/C5+cs8/Ohaf+/Uxbvs6iFB2O+LNnxprq0319IcECH1qs+5lqg832gT0JDj5j5IbVGuVZsNKVSFPnFJa4/f2jxrGzJJhAlaYabQUeCrO+R2b6e7kYf7JUWm6tfxv/m3bv57TLzNgZbxMNpYrVOjjjYUsjsycWMt2A+vCyZinQntdDFK2OyS6UbJzyh7LLzD0v5q0yY/u4upzY/HAu/VU9YfGePJz+r1G7R2198Ax85tj5r902ODZgOM/AtXZ+IlftLPVkbz1JQv/DqfHzz+l17Q8PRYPf2jsndWEdsvrxv4rv37s3/X92i19uyY83Y18VEdi4JC0Iu+4OO50zgY/jfqf+C2ssmefgMR/dBV/6vncesdYvOLt2oXpKyaPf2IsnnmM72GFs/C28k/+B9sRsjxmCLf5z+jrLy+7ayzueNtYPqcjyyfvH+O8fsjXGy66ndBhqCqBg5mFt+JXBf8MmkP8BDopX3tCWYnvWFY2/sOQ8ef2bqzBOPGjhp4rgKj4q8r+Nb/bv9L+xz+Axc9likf+0L8POl7ylpjiVqHD2/67ZTb+ZJTd0SLjr1Q3V9jV9lvBIQu//Vd7+bZSTYX5MXNq2ODv+K9CPkkeysw4tsXfN5ompXX+qVqW2BU6BP+bX+KlMYnuWZBiEddKempRIYOzBprKU/tKZQKbIoDlSu4+RSccBiv9YtVq6pQCZsVnG39PIG4vOa0OJ+D1OcSv6xIn7/uZsaO94c5zurZ1Vde99P1E7/4FiqXsiZ2bTMzES99NtlpSaopRpMuiPkowv9p0WMHRAh3gIxxfs9Bp6YWnxu6Fp/V+fB0B3vfbY/mqN2u0yY7L5yUfYk4xOGDyyEY/VmmdvFpdl02pWn3EoHzZwcBkwBzoO2U74li87rvHeM13j+Wtr9X1upuFKFn9huK4oFPmR94/lg+/R+t79aU0fTeO/tekM/V/DSSY+Ez8KmDxuOXWMV73zWNx5/eMcfs36Ut4t41x4uxY7Ov64RV9beoZHfE++O6xeOjucfD0EzU5MzhxUiDeiogZ6MKED2Ta23/EIr3itxS1ksUQ7C4Mx6rHH3U0WRJBclFJXoO2eMCY+0+/H9n/0pnGase/7HD/z/lpf0Jf5P/yh8fQUTkDCuzE2OaUVaqzH92WPqcxVlO/ykdzciYzl9ul1/zSdIgtXNpaTWO6gCf8LfyRjcRW/jaE7V8Ca/HHctdhGNpKWm3yp4E2ZBgB0qt+aX5GJeOv03Q66QqRI+jEBigybw+qiArLMga5Klp+tsgFZ2++dVDShNDjA4aR4X8GoiwlPgzebfwEpuJ7JL+DJGwc9eDT9abdB35tnLz7x8biOR0RwZ8G8TBgdboIJ/yUoXdNDWY3xTJOcjJH0GZBrR1qlCyZgYP/XONhTskaAW/8HF/ToDe1Li5qMv3cE+EUXg69hY3/qvVgNira4pHtvogsCPjdXzZEQs3PqaJ+1GX/zm8au2/6gTFe/xc1ad1iebZlGWF+2336Nv/IxeJV3zbGN/9natMX9B9+91jc/6uadDThPPtsiKTC0QSK5j+pk+2X3zmWb/yesXjTD47FS9+OdfGjbMvgE+8ZtbxUk+ibf8hYvDhw8cVfGQef/82x+PLnNcnVF/EdT9kulmwAiFNKooXrWr4wjB9qmuJVMvZP1+i4kYA824tjrnaPHZS6/2lHSmXDccRMhsTkqTZzOQca8lx7VLPHDRLUIdC6KquNEUX/80UG+IMmtkvnx87DnxrjLj3Ff+o2SQUXCAmmP8kfMf5toPklo3XIUVil47Y/S+E/Rns1A1GWEp+j+OOrmsnMVFHp5EdR5MvKbyOqufqkTye38E/+2H/Gus2MTVq6D6mb8etILB1oKSLNOG1LDVAdPLM4MWikNr31BFHXc8xjDC0Myppsl4nDjB8F+J0ko39aY2903OVtnz1p+dUaTP/rLuLiyU+O05/8SU1i2vtxtKO05OlJBq70edLdQccpbfx2ExksM6XaM2o9Tpvf1NjhCalsqw2Op9f7zMnhVL1tApz/4rctdCi8mFTxzxpMucHGxKmI8u3XPP689tp3ARFGSIZxDW7x0teOnVfqNPW2t43FNd6AoSsHe7qRYRnZA4gStjK0rDt0BHbl+TFuvmssX/kdOv3V12Yufkqn37rGhzBO44tWizP6BZ+XC/uO79RzVLrAqlP0ceoWCenLzmAqeGGQrLTNq8Xihq43gvaybzX+wXmd2l/VzRRGa1xFQfLRn/wHTLhEgvi4yFpP3093Qa2HLvySR0Wf+KclHeoO8cIyB4p/T0i+gUwTaeJf9T9gYo//4MNP/PXnI0jpEBsmMPgRmXZ4lNQu0XHw2B/oTOCLY7xCOxBLpd4zXUzDAP8LyRKqUAIRmBuKoy5/6Gf7Bm+lUNn2cmOO9v5C+a7e5LKjm0xa21gwScdtfyUiFP83Pz7CzxofHdMOskFXC7Z/LkxiLS5bNqUIqa0T/turwJtzqrBu2rfzB0VHYpXMKEI52IEFl5TOL0mAnV2ZVlIxoLRXFwhpbZbouGyjJxcmEfgbb8p58AkDmGmAbuGPgJa6KK9nrRb3//o4ce8vaGPRoxIk6YPJXdKMJwW6OsJBMiELE7mzUHNbDy41Z4DWERECSnl+DBvLJ2AayngqN78yNCFgeujU72xgU/zdD4hALOmMHPGkd/BxNRQkgszuqTFepYnl4pNj8aiOcL70Izqt+/GxfM07xkKnkePlOlq65TX6ncTXCU7XrbCVH+C99KiuXT00xlOf1zWb9+pa4Ue5vavJSRfAb3rZWHL97DGdDnJN5yWv0AT22vte9AAAQABJREFUUl3XeXgcfPzXxuKjulB9x8v16pnvELc+t905Fre8YSxO314my65rL4zxwgO66/vIOPjyh3RK+b6xfOIBuabHU3THbbz8TfHzcfVZ3XDAH2JEpDz+8J+kSsdfayaIVVLBMok/Q4Y+dlwJfCVEfIyr4IHrAy7aENGZ/qH4q3o1NlwIP/E3Qem6nwTi/qkND35wq++Uc3bn2Ufk/2e0A1C/7GiiQcZyM/6woiJI9dHFZ7WD0S+8X9RY5uj9vGKpm0GLKyprJ8XD0accEFm7qycOdLng4Owd+rxKfa7+PqNfYrrl1WNJ/+jXmYjjNFYhgZ8V4462OT/BZGdtG+MbhXYP6QL0mpajt/+6ZHMEPzYV0WTBNP80v8ZI8CO5F0taUaYwQhxVDLOWy2tVNCmt3Ch96WaPhIqCoaBSRi6vOFEZTImnX5NfGU49nHxIrCMceaoo07aFn0r2Tl/4jXHiYz+njUUbDDZM/BnA9FJfp2JLyMTJzf3U2ziwRIquEWSKLdMCejra/ttEbEJA8mUbxUw4hYFf1pGWONf4scd7rw1+MwIoHeCdM4xt8jRGpfTdqWdvHovv+c91k0ID/mlNSLrmNp789Fh86SPjQJ/F2Vu14XzdWN6uyezlb9HzbJrIHv+s79AePKlrNS9wqi2+W16mU79v8aQ37tC1G8kf/MIP68lzHZm9Uaed7/hh4X5m7OhmxFJHuuNJ3ZT46C+P5T2/PhYvebU4vkET31t1A+ENY8n1tic/Ow6Qe+pLvARqLHnv0yvE/4pv0BHZW3VE91bdYPiINuwftV92Vm7Zb+yx565IVlXa/Wgy0nFZ+Z8AeXRZcIq/MvQT448D3sZciz8T51Hx38YvFKrd/0Cq4CNb+p+y0sSvGuQYQySX9GzheOj3xuKtOtXnfXNqbcc8/u2UqjT57z71ibHzlK5TPqed0rN6o8nzmgCvXA4f/htX+tLhem7bBARj/4TqlnuK1E3a8dz6evXl1+vzFl2H/aY86mHB5gdGihSdsDnYFqOuBzjZmd2x3wKx6Jjtn/k+eMVlTLiiv1qzZ9/CT5VYmn/vSp0q8OBYv1QtfuBJgMuV6eVuIUkrYN6jIa5hdUrPs9DBnE51gL2ByVBw/IOYEmhMtFZMYPJCQ14Qt6qdZG2YBqQueq9eJLjiX+qB1BOf+emxuOdXxu4Luc4UIu97k8UO4eQmu7gVJzYIT2SixFY6Kvwr27ArAGUxssLBE1Q4utOYia7yhH86pxQJPoDmvYoK8PskcYMft3M0AFhSdJVXhtg6EcMZP3reEM++Yhzc8W1j587v1RHWl3UU+vAYTz80dh79fR1lfUiPcdw9lg98UM+svUS+6wWWusnAg8GLm7Wnfsuf9RHb4va7tPd+7RhnNSHt6ehOo47TOm/nHO3d/o3+LN6sIwAdEfjxEE2Yy4fE8cS9elzli7p5Irlzt2vSel7XgXRaf0Ie3/56Xfz/rjFe/e06KtARws3i0HUhx/8Zbagk+TH333Gn0nGWz/hJyQsCovgrhq5XHUNEwyOh73N6xx+FUpRMdlkqf8Xxp5+FUTCxU3VfTf+rz3zqK/7Fwx8eV/W68eUtZ2z0aY15J3zQCwCWX3jnWN6vie6Z+3UTSGP5uo6Ccbf5YZ71/5r/kvH4Ixj6LG7o6Ie747oePB7SzuKMdnaa0PZf9Y6x/8a/OPbv+NckxohUd+hZMtQy/pVRYmla+GrbW9UnLuHPdrSzuzfO6MepiQ2a8+2/zb/GzgwQJdZhSsFmq+86JnP+WQD0QtKr5ti7UW963NUeYU8PsgVwDXaquwoxUeQYXFYbHFGSCidk/B5Pqq+lFRa5fT2N3i8SnIxreQKuzylj0JoUhMIR/1VtdDf0C8Nz/sXFB8fJP/zfdAr5u2PnmvZUqJaA81r4iFgDnHers3H4mSCVCZqTMt63eaRQqY/8zDUe6XD9w/5TXzoq04GMmh1t7OyRGUCGIMNRF6JasOZyAANZK+sZzgpUFL6Fix9ZYfKmVA+G5pe4bRC++SW+U9casgPRoORXqfVZvuJbx3jTn9N1q+d1VPTpsfzsz+tmwgekJ9te97ax8/Z/X0dG3+w7igcndbS2oyMl+tg2S6YcgKePLk3KHU4997bQZ7z2u8buO/6yjrye0LcO3jMOPvazehXNI8LUBvMd/6FuLnyf7oreqVMZXeiXHv1s/nLDZFv9Z1Kit9JnNgY5/aULyn/h+MiM+KvBNltgFf/uf09G0hYM83P6H1kpun8nZVX+y+x/4Kr/xwVde3zsI+PGWV271AHEHg9v61H3gy/9xhgf+j/G4ukv6W411w+5PZBYuf/plPLcq3n/e1Tlkd7JBUdKKlLDfy7HHlzUOLj4Sb2rTg9zf+53x/IN3zFuvOM/1oR6l9/KSvwmjqiKKrz8dN/VG5x3J/7mKXGPD+XPntGj31yKcFrZ6xx2CGt1EFJirKr/4TqpgyHmI1IQCgdCOk7pKgdgKkbKVSwwDAF9Smdex6GmxogHH1Ls8TwQ0GJj3UAD0VgFZmTre+HaLErSe3ycV/sWfqR8uKtGsJp/nH9onHzffzt2H/qg9bDR/YmCN8YYiq0Uvev2RCISypXYUGIvAGThwRCy8R3+tDK5qF4FW0Mhs0c0gDIcBME1P1kOHTiFASjwpl3jp14yPr2Dpyzxa6XVhGr7D78nBAjmSXq2Daf1tShfy7r1rrGjh2yXD3xcG7B2BH/6L4/x1n/PWvG1MOyceDxKMSatnTvEv3NWdznP6uhL111eoUcsntCp7HPv1jW014/xnX9P6vo6l5QY6MFSBhCXtRKPfxjDPpQNNFKvumzA8YdWxMpE++jxV8+H2WRowMZ3zxzCkI7hs8cJNd1TafphDhumyu5/9Ob9b5tn/U9H9mCQmpvpZ23rmqG0qP5XzvzV/zsP/qZ2Lj+oWiV98X/c/T+O8elf43SlQJA32jq/xMV4RP9LnkbUROtn87xzi/80LLiZpNum3CDYOf/lsfPJXxq7D75XX4n6W2Px9X9J+toG0QcHeWdcCJ7rNvjlP26hh+oqtTFBAYpYsrbcTHgt/sTTaYNfAQSR1OM/007XqhlVF4tkpYKaDksL24NOgBR9aF4OIHU4Ne7KMAYaWN6QISQ/mafyVv7YZvEa3HxZ+sz7/4Geb/oEY86APr1FKCNWq10f/WGi/QFbxOaHuORqhsahDBrJWwMsND3JKsuYRIZq4XjbqQnMAaEBstqaOHn1qSO7fXDm/AZRNak61+1yBnc4ruOIsfbHhqVh8nHGn4kApTkouOohVbkXaKvA7/jQZC4fPS+1gD/25giTetwKvsYCRy5rdeioF8Vh220HZfgBlP/Kg+OhyUDNbt+2TdeVEFAiZvafVtfpkQXVO6wqOy7CSPxpUKUgEznMLCDr03+xDeyp/1vElSowcbnv4oMqqAIMlOpWVUjUR/LKml/tvgZMA5jCcCxQrf43orG0oN8e03XC63qG7tl7xvJDPzrGw7ouiXrZjSgVvhjiwOO/BNTA2YTrwVGVn1pQfU8QFsMXICTjnS/jV1o5LVYuZqhdMXzumbHzm/+VrrvdMxbf/Nd0OPUK0eCzEUBxQoeaP/r2b2334cSfKvMJnlCbxPkNfpqS6EuHoo7EcLKaVkIxFrE4Iwn+EeDwnk7TMEtHgtYIAJGfI3UJnZAjPz1lbf7DIQvCjL8wGYDu2mc/rZcH/nd67kanSOx1mtLY2IQZ0lcZDdZsGrEGfj3rRB3VEfaKQQtrkr2Un2zIVQW7ZfBfiNjDnsj88LKxUiAPEoopkycHg58eA5RYao2NJikebzyS4ofIHLmCif+SlU1scH7L57TnAqL4sQtIOwQCVPDICsn49EKVmBC7Ik8FsiRytPuwAh+VY8fe/e9181gQXxBAxwvzk4vnQXbZxhlRXqp1KsemaMd/ThUJMDEGJxsAEynxN7joaAkTjsec8GF4xOq0VKUDglc2pzWMUKXMkj8/nTYbYx594tXdVfF0/0Ntto6/KuhX/rArliiPH3isbzHsfeqnxt69vzgOXtALBvQXe6aVfXL/g2n/haY1FoBByOC3zVrZ8uanXlKxiZzKjhHV7BY1rmxf5Ajk4u6f0Q0WXZ/8rr+jGy668aIvq6+sl90SNT/xBcFxdqW50+fxtCq8gqHbsBnt7ds/8bEw1irNo5caVQmAvHpGax2JRcN10QlXJJEusDlAAuOgWJ0FRgFAUsZEKblAI9UcFRBkEtZ6ECmLLnkfk9LYABv8NNERT3547N39o2P3UZ22UKVRnWC7VOqx04fkUGqX5efCLAK+NOA1F2smKsIbvDiU4WIr2HKUmBTsuwcStqveODNbDVL8IFLmyIWZA3HrUE8DZZYZqGCVFbRo74tMamhLL5NhI6wyNhlDzdo4OSpoOQ9U5OBnXTsh5ZQSg7Y8eJQMrHbleQ4JX33UJHnRJiUzxVCZmKB6dzEYmFFrtZONvBtKHtOQQSkI7k9iJbL2P03hQJoP0h1LpieSj0bcyAKZ9AP+57XOpQOCeS2mRcWfovo6k81R/S+ZcmR7/2M7MvyLH6ruf6sygnTt58P/JPGx6St+YxaA/Sd20ktV+eOCqmos5TiR+AhMwt55KZ9rhdKd+Onz8EcQDAyw0hgP6BGbG//1WP7rf1Pf8vg3ZDcnbDbQIsQMW0Bwpko52lND15fKhIt4D1JksHsaGwCG33bT5tRjagKbmQIgI3MyrpRKtiGQWuWFOsOqbboqFawS9GomZ2fDpz2nOspBqIoGLGfsmBBXnBv8atvRV1hOfvh/HSce1RGY9ehgOiuk5pMcKZc5FQg4BTp9kVSbhpPqzFU46UzVsT0RHiXmg2AKn862glp9CIAEcvAncVRhOdVhkff90uO5oubXAXz6zBKx2zgeTPJn4ox+Big0YEa+483sBXvKZsecKYVfZgs0Ax4ZWWuSFiynVAx3qytuEgWjJLqhxmDiCiFIOfJQpoJBrWMHrqrdD8oZy4vwe6LF98l/6vnoV3685Mijqlgr9fN+8/ijURGwPHHxEYdKxJ8TeyjIBb9wAYRPjfBkY8uIOrL/vUHCiLPylMAppf+dVa1ePUUbuAJa63+JZFsFgyRbnE3MeoNP7KtNOP2H//BmbDLSScRW9XHSsvuMD/hlXm7+ILPyP+yxHVUOMpaP6tT2A3rk5bEPGdHQLCLs4jT+XClPDVF9O5Pb7H+cdp3lS7Bil4DE1nAWXgpry+a3391hc3HvzazS1kALuMp8akXQaot3kFBpjbStytRHn7oKWtfRgbO6bfxgL3URf/cjP6lHBnRhmgGJDjMOq4Ykz58quCWMvUgi67lJOOv8VPCkeQCwE2mGY6cJAZHynwMFM/ECJSXe9MkfAzc2hTt7dA0g6WbeQyZc6IU2/nuiceXKRjDzZsHIIk8dG0s8Ug5fC9JmgaFW/j2AVcogTyv8ERcCZhKjOkL2RDe5Lkm1MRU4IvBUWxDgKP44ZzkTw4FRbFBK2ciVp8o1WcDPU972wVYpPsKax8jxNxULwLQyiCtdt/K/x5J8q7GB9fjPKUxiDEhS9Hy8gsWxbSs/ePCJWP/5BXf5rgdNSWv8jknikpEXnzf7Hz7rCZO+RNZurfHDqamQVX88EVCg88SDdsALQW3Gxh+il91geacaM9vuqMV/KsyvO5CLxzSR3f2P9PKCB4xF21e2/RshOjKjS1lr6TrsSzKmegeLSIy/I7d/BEq1+9/jOnvnOIvMZmojIPHAqutDBNUDlNMMhCzYpqhcnT2xAiyd+eCkqvn7SIq6eWp+LoKOT/7zMT77Ln3TQt87pP/YQGbc3aEeCgwM2uhoEvaS9QBLJOyC27K/dhZAjRaCy6AxhDLZIKhgcGqlj/6VkQRCrKxHrQroI1F8lmUxyShPYkBKxvFUEROBy4Bxs3miz3LFb8nmVwtcbGjoT/FXHXKJhXPCFo7+GdweNFIg/p5IJGh9IMACU3LZ+IEqDkyBe9b/eJwN3aZAVhmtlM/FbxSTjInj+rj/lc2g1trKskV1YKJlOFnjDZatT/wcKdo3IGUrkvYgexnXuQnsnhzwH3H881r9j9/IRFuctDdn9Qtq3f8Kq7Vn/pvfmDhLNKSgWRoeVL0gDzAVfETKn3d2lkv8wUYMmRZNhfDEbVvd93igpFXib8Ok5AqtU3a/lP/Nb/9Rl0yObLGt+PUo0/KLHx2LD+qbH3zNyRSypP3HqC39jy9Ozd9lKlGfl1W1uf03vzFo70znHS/VF/8eLxYjXb92dVy4qLc6KGrZY5nPjjlwQmrZtBS0gbwY/MLw+QsXQ6pmb9Aq4afCaFJeirj6MVlT1yIYBLpfaEiND5ndk7q8+cC7xumP/XPF0EPH1xg80mSwj3JA0p7Wv0OHLoMbfuXhtyE2mzobKJvIiUlF+MKpbnDngCsQ9rS+VR60XG8KXDtWKNKrw3rZrCykomVPqJzq6FcazE9tDRiC4wudGvD40vw8m5ZO1xKTKWGuMN35FViug5FFj4udJLd7zV6udAvD/Nr4uOImQbUaVGvkWBQrbTTBa/m0WR8sAwcd+4gQbpNP/IEqLGMYnIXrnSHP5CMd5Xya7veIFZq15Z/9h8r2SJLJg5lGhKjyVL75PV6aX5aqnnEVO1DGQmnIeKz1rX0V+yiNywTZObItSJb+R8fy4oATdfiVlYCK8XHe/zvqSE/N8MM473/0MEMNQnGGN77SuZGDoPiZhMCnijX0wrQ9AVY5R1I+4gyg4BVTyTMe+hsz7kPrxx9A5/4D3v4z9Bn/y0++a1y741vG9bf8Jb1ddrfmgSLBjwyChELFK3qt1RXFbNv2b7dlz2oukYKTgYwB8rXr18Z5ffVt2v5VSZ8E0w74Ja0oEEYrEi4GBADAsfAdN2UIHrFyciNSlZzVwmCEmKSlFIypkoPuvWLwLYyYsXoVDPRdrcWcfzz3uXHiD39CDwDqS67uQAYGQgCRT2elmI2WOpKdt6tzfunKRsZmBr90Cq534M3Pr2K3/8jkAjd6AmcgC4S9B6/+DSNLBrXDa3+8l2UjsIBAqPWo5CSCUsVfAlTz8R7ceX2p23oZwAUSm2b8RN/jSaombf9ldOrjfxjB10cNWIO9ZEzjMk1poch2Szsb8KxaVVVu3W4U9uQ/beirBvy+sePJILBayn857XZ8IgmLP+Ls+MPPh2bihIxF1T+q7F0D/U0bbNZ3jr5QjTsgrYAy0Xf/9/j34wqSw2brV/9bC5vKPsrmr/4HO5bbQMGHEzmfHqXadiCI/x5/1PBsVm9/tOnT/PhDDMIPWPwy/6z/18afGn33VeLoevw5DmAbyUHF//yCncawdqASjX/4Ql+bVQ+U3v0/6dsD91bfI1XJWS0ESTYtWm72vzeW9H88kbAd6NUKw8jgFT+xSP/LGutE1nLKEuUQM9urQv+VKMwHyqq6JXq9wg0G9VJVKiuVd+A8+tzKQkJpj6jyUKaFRv0X/8GVsffxnxi7Tz+oqsIUdk8ZBJp6b5z4oQ+OZSMEt9uC3kPN9W7Wgj0HHUd5siEeeOCrHnfwi82F1HsJ0FcchJvBUArdJmCOqtCe+NPTKiv5uhoy6BlOXJmMEfBGoB5MXK0hK2KH+d3NxD/6ATWU/XLoK/7hj82MivBTjvy07PhT0bDYEiMs5nyCYqFuSz9FieY1frZcpVoVP3GTLRmlaVcLCLGPZmzlgz6yFlMu9UtiqL4HwwyWl7f4oVMgG0EdelqTyUp5H225atVuMcnbgWpTnfuCtT7Y4Uk5oOandhYSC3r80z311zKeyCjAb5/i1Mo3VUOkAFKXiKSqx2F2CuzSE0NJW65jaXXGZPV/jxvGKfwc+TtuMjrjTxUOTLEJYHHhvL4R8+N6wedF4NeSLXYwnHMb/uNPCpgPpisdgdSnPaLKpzk6FARiia5Pldq7IqIZTeSnvYsE0HQUCbmSYrMSpKLTzAhVEVR8B2CNXAU7BRgflSNhdBRKgHrVoTzj37v358bJL7zXMWAbp7OQ4xoVcVmh6AAax1Xh7pTRQMUmrYXJH6cWXOVB0zVQ8vgFbeTRQdfAqhWpJ0nVocv9MmR8pUh1FnMNe8wE3jjmEw7Cajem1hN/TVIgsne33ejDYdttydH82mjxyfy1ONCbJqxvO4XD2gZo3X8q887z+I99apF+ZLWWv/5D5LouMTz6B/r+nb7iwd8L+q7ks/dJRtzEX3/uKjgE4viAh8duCK6Wqz/hO/6SN6feL7Z85rO2wfGzPZK3T1oLbIq/I0n8xaU/4jT5r3ge7n/0sSb2kKPnc1GevgrPkf1PXOb9bxz8ZizU+PPgpqb735bZ/46r/QdLf1P/S97t1DL+1D75T//bMbVt8uM3XN3/8FsWf/iIX+UeQ/Z+Vp74GX/Uz9sYh1JoXeUm/l29eXjn4XfLz05GDrWr4CbhpZJwnVRwiCjDpXIkWoD6WR5lj53D849xjY58StMXhbKnVzUbRbXnOgWjpIyS2lrC++IGjuBJOsGnQqMFrIwhVXTeanG41AMrETNRiTh71Re+MPY+9s/0BVj2sqovAg/q9LKqwdJS8v0UuQG5lDFxFr96138qsiGvjnyYgIVCHcrYDqoPF7SGO/Oe7BACMYFfdaytx/UsEdqskj/Ej67/UI3lWsn24u/4w4898Jtrxo8+bc0fS/X2Cr2b6zf+7hhv/PYx7tIbEvSiwsWuvoiLLSaJrfjHUWHzu4wP5sMmkT+tV8Xc/85x8KCeGXruUZ3G67t+XOh98BNj/PJf15sqXj/GG75bXD8wlqdfDrr1ODrGLFMSLxJrJk3q2/9rz4+Dh35njPv/hd628Xl9UV2vl5HcNCkrbx+5sNbjT/0JBout/tP/HX/E6H+pq9oYjJ2JX+ZM/S9MvoqjiG7nd0vwzI8PX23/b/oPP31N58z5xcWYIRb2cVv/O4ZYK0FiprLjxvZSO0PHHIy5/xK3/9af8RMeDkDYeW2O/2xw0pOQ3p6xc5++FvWm79PbN24VGIarXolmWaHPqs4+mLMknEcif9GhrZIqDAmm8ofmn1agDYHizyTmslswwUklSU5oUaCOhhbqdVVhmvUCJY7WR0VtFbzWVx8Gq9cSd13RaDX2PvET+vGMp8lmAvOAlBmt4wZ3p8yFwxWmOMTvCQyAcsEbhUhlF53n+tKvUogwioBpQHhwoIKA1k4ejCrCT4UWNB3it//Fj6AxAJvxl75xOn4RXPGX6sSvdvgW7Jn17NzQrfHFBzTx364fIvm67x/jT/0HemuFvtNofiNH1abM+C9qsvrcz4/lvb+kV+PoDRic4jADzP2/qrcpXPuSjpwe0F3i39e3/vV9vzs1WepL5Is79SXvvXP2i0jEKgzjXzX6BZzFY783lp/5WU2Qd+stG1fUKHz9O/6WU5XS5D+BnvPb5m6PLCWpbo+/9Yv/qP5XvfmL6kX5RfZV9z997CjEAezNWFJuzl/kk/+OBCXJzccfcp0Yf8pP4x8/VPb4m/vf40+NtE/82EaMqTdxxTcoqZQMCjs8zf/QuzWR/VCBANRZo1qZ3PbxD09IvLJgAShfCPG6xz+C8NNI+LS2OSWcSYz2Mp56hp/3qMo7SaPbJ5apTZmyxhAsTJ7OoljQxl1TKyPmmKkK/+KJu8feI3oiXx1hPxBUpm1Uwd4s9ACt90aAm78zKfaAy94qDBo32Wu7kxs/dZwmTP6bjP0Uh+/CZU9VHMYlNlxv0S7Ppy206TUki5N8Gfo2vZDwbWPc9ef9bqjlF39HG/EXtEd7QS+Z1etp9BN3ToXZpmOnb3enVcvE357jP5OlvuHPi+/GuZdpEnmHOLR31PM8C067n3rAr8AZT+rU7/F/PA7eq7ci3Kk3Tbz1B8cO79jnKEiB4mjCP1F338+Ncd8v6FU6+t6c7lJP/Z9QJcYS9aCEXxb5OgwBuKK9/+c+PJaf1ytebr5lLO76M+L5d+WvbsCAdEPvd3tUrwD64q/rddS/re8JPpV6xogDaPeqf92jK36a8FU0mAqzbbYqlcqoI7kLSN/oPwsMTMmDPUdiqsF2j36rWd1irqe9+EXYR5Qg0TD1f/lPEGz+tv43jq0xvOWQ1588MElti4afxlRKtvPY/sekwvKOiUceOk7Cpw0JJ+oJTvH7dydlEDcviKnFlLF/KkhMy5QJUMZ0jT/KF/VKnwfUn6//CzrCODPpJ3KFVyjwN0Xywe96wSX1uopoMV9PiRgLyNoVf8cUAVzTYJSdi3FDtzSv6rfeCIYPcdUebJ9cePCcO3dT1cW4ONxyvCn3hl+x0eR0GKeYLcEAPHPmnAbd3ESFzAMhWkhf0m9G8uO1pz7w3+vNrBr8OiLI4XsjzfjlDRfAUxMML6ve/ERSyYfWcCmfjq6c6rgk6IDjv04L6UBaYeT1I35cgIBRpXLHyWtq9eqQcdMderWz3pH1irv0Xq7vGIPXQ+sd9qWltXB5K+ej79N77D+clwTqDalLHWnuKHbmb2nbD1vi717UW1AXN71CLy187Vi+8i1j57XfqZcbfksmM0ky4CytB4LHI7+njx4IfvpLekBYPxV26Vm9yvn6WJ7Tq3Zu0+t5Hv2szJE9es/X8qreZiCqyX/h4CMTSPODC3pOf+jXeBVOySHaaVf9IcDFdelwhKtXNOme+aH4QwMF/X+IHyzbwIMCyDFOtC6lNX53bJ07lh6r3BixdrBklg8sRfrV9D/XkDJ2hFn46XfhwVPGOBaOGUKp9xFOBQcfCLlPeTuCMohN9pD/cBpkw38jN295sW38z/ltn/rDMXTAyxEYhIFNMgCxHteH+n8e/9f86TG+9x/okoJ+dhAefeaJ353c56hbf5vbf/p6Mc6e0xG7E/2KbV0KHr87eV0fSmv9HzHz8nut5pcwKCqUOV5V3sDJ5+YOFdrz6o9/xhOJ2oS89Iw1NZRApJDwlKOMbHeHHuaX2fr1nd3f05e7n/6igcxv3g1+7WV8HaCpbY30TYSRqGtRux5Xqwrbw0+Bf1oiz50s9r2Gqhbe+GAfMQRJNgT2cPoR3sWrdST0+n9Tr2fWWi+Y40c5pl6x9GpRLLJHjHot9EJv7hyPfWIsv/BuvSH1fl3HkQT2Qq5/G3fytCbFbxnL1/+ZsXjl2/U2VH0xV68YxodMNMhJUhXzsi8K6efolk9+XPEUzxffrdPAhwRPfGS/8Nl4bIu5tDA1Pq78x5CF7Mr1uY34Y4NjJN3GyLBLWe0+AnL8ayKERORcE9pl9FLMQrzgqKJR06xnl2ChGtsY9CpToY8hEgy3+U4vGzb2BEo+BpcYeRJR/eQ/+Ra0/Lr/VK31vyqmMUceG7UGIzvU2Dgd+WEH/IoLk8T6+I+N6/wwxl5lnD88/qWBA+avPBR2ep1/Ff9mwdhZ/5ft1jU1C6AAdIXDPo1//b7CwZ/9e2OfH36hLyy1ko2Om1rdfBRAW/dfegpeWxa6cBo4FeG3PRvjT3h7V/WSQsBP6qWIfDoVTBcRGef1i7weSsqvZk/o2ZPqNSG6iNxvhy3P5GPacZHEL4Rf17UbDuvhcOAqR2lXe/Ez2nEf6IVxi2cfFhFyMGjQc9olGQaiv8jNYCcGtO5w/YaLs+pAgHGYCS4rtIFHUpA1SamMH+i4XjkGODjZ3CIfQFdHbs6v/MGVS7puxxGVjsReoredntBplWCwA+xYD3uSBxX28AMefl/6l3UXUNealKynbt7XLjvboewjr59zO7jwyNi9dIdeLqhTtT2dSsKhxFyaL1CnbF7adCF+oV82P9CR2I54+N1Dm6W4lap0lfN/4pyjhFzk9cOcJUlIuWPlfpDP2Skkpix365QOj923EFT8EfdRgKqoxn9OX5wH2Kn5KSj+VlIW+3BIiXnQp3kq+ov0ntBoVa0vKRS+kVFY9X+OdCiLx/6DK91Z/1N298/6n7pOjD/zi3HiFwy1fCfY+wb6FXPZUsnKxmwrGA2SRsSM3y98NEba4Geac/+Tx94oeh6kf4gN/N4BSUYjv/gVU7DE475jhyibO/4wqLn8p0SIXKP6jj/rcOBCadgC74eounxxXP/yZ8eNVz2rsc7RULZ//CSdOX1GB988uKuCfKU9LW5WWb94fkE/5edi+NMicRf1ZoqTJ8YpHSBMScLANw4+XdTD+ZBoughUB6qV+rC9y2j3aabrmAgcMUoEquFVlOGmq/XU4mqV9tkaKIRbGRDsqmsuPKiLh7+vU0qd/qCsSrdnm0FcSfzlkm/1t6DbhKUyOh5AqrMNDCp1qp/ug1+VTIjg99teraN67lq6Y5Hjn7XqtAzDOb3GV7+zOB76aF7J/NTnxrj3X6gHf1KnkXeNxRv//Fi+9rt1Oqkfqm1+cS2v6OV3X/gt/YiHLnBz7eqSblrodxlBXtz60rF82Z063fycTv/0nqlb9SMdelX0eERfdH9U70t74p5xcM+7dB1ME5l+R3KXu0Sv0lsGeFtqGebv8b3wRb1X/7f0llCdtj6jo73L4riqa3CyY/myl+vd96/Wa6r1LiudXsaZlf9MuRZkzb+VVMVak2nRaJ0XBAXATZ1Vm/rGO5QAoAqYQ1nxdzxVZzyLJd6ZvKhI2XIU0af/JpacrhiZUzIbGjmWm/2fOi3NLy0ZE2xZJ9BV/9Om/6n/Vd7CP/nvNj3S0IZ5ja01+cgu/HcMkCXD06VdAbwxyl/KbFv44GUDS4XxMxXZGASiMlCT/xZQJQbhY/FbUFXsiDb57R/BFVL3P1zg+gCyOLz9/3+svQmQZtd133e/7ulZMQMMMNj3jeAKcF9FkaZoW3RZlhSbkssp2xXb5SW27EoibyonVipxYpcrTlyKyyU7iqQqyVIca7NEM7IoCiRlkRQJkCAJgCCBGSwDDGawDWafnp7+8vv9z71ff93TA0CWXvf33l3OOf9zzl3effe9dx9hZS28yMqwy3zLgU7M+MA3V9y1Y9mfuMkRWt1jdCpKJZCl1dIQXjO0KOCTdbZJIw7/W8JF7toDcCU6HRQc85coA6aE1T6g0vFbAyGUhLWUWVTlAFdW0rIrfFNthKteQj7L0rmKoTBy9jNsgcRAwUp2bDWPJF2TuNf3VkKPZoBl4ZTREHf6rkri2h9898GBV7qBH9lz+NuZH/zuf0WnxKfKnvo0d/T+XVt4ksXtTnB2Yl301Yfu5Y4gq53exPrlb/gBvl9C+sO/AO0jjMAYdaXhUVm3LbX2xg+0xdf/IB3T+5icf7St/uoP0/HwfNbldGh/7KfbwhnWwX/ik3yI45dZ/JEOji+JtyM8V/WNX2eOa3drtzL/xoqcC3xte/XhX+HjH4+h1zL2YrWVmfmH1Xv+SFu46+OsEfUOeFln/6kf5qprpeobdg779eSm9uuLP2j/UxDWQ8vj94rvZZnb76/8//Px/0Dq3+/D/j9ofEd/1v9XLH96tNH+Fo4+zqf2uEHVp7bkTPuzUMbgppeRSSnmKjLyRdq8/Uso7Zp9ttte1iabx4YmOUq7JXjsxplxLVuaNQEJB1rmwNgOZ1JL5MirDiBq2hPUvwIL2pqHxVbgGb4yTV8+2RYOfCq34zU1NwHk7z2OHVrXH3IFKMPKqFtAdKmfHEWrNIfUivc9QXWa8UkJ7zj7iG9hIjKbIwrx9U3pWvl1pkTkhPmwXUy03/Wn6SD+NMPsIy0fhf02I7LnmFzncnHyMB97oEMTf8oE98LSDtYy57Lzetamv/272+QWHoHgS9lu0Y2PdyxyHWkjhQV6PryydH2bvOkv8vtLrI3+dGuP/lKbPvZbYBzik110dl9jdPaV/wA9HvCDHMibXs4o7gbWz7/je7h7+REE8fEVfYBxLsOSuWDCdfkY8NhowWh/VTPou/0yS5vKnrO2RFDGMXAZdsP/obFGl0ZmQqY95jhIgCYKlMzhf0UNfEPD/yo0X/4pDxOlt2zUK7zqq+ZkWb8Uwmaa+CV7vvzhI3ngV/lrY3EO/FH+wTJPTI8d3+Cwfx5fglg8Z39KNXxilP1RPdGiz0m7rIj/lb9mv4ZpI1zYlPIkLn508rJWoz2BY9nAN9GwMBv9H1lz+AlGCnKV0/Msf6XYkS2c5OR96hjPIooW5Bz1pgzl/9JRUDlnWyqiZUI6GVXXpS1Z8y1wdGBkzlCGnNH/bFHBzLnIH6gEethMgyXcvQbHFiIq6svWii/etV7NlKQZkNEdjOKpmGf1SOMgfjUmBPIR1nw1Jyzd6RaG41r+LaIZPjSeP/o/2dDpQNKVXq4l7tyAqY5MzHAzoO7YZqdGWUFhZtHI6yWRlaeeIeIuXtCxETIpZwWlPJXaQef0RjqaN/4FPq31OMsN38sIjburT/GYCN93nLz+w21624frG5C7uEMYfHg5Kk8Z9YCfVpqGP1TbTBp9LrUu4e7nW/9GW7j7r/Lk/Lfa5MnfAuMTPLrxKBNTPNrx5u8G40N8OPf9XMruC3NGY/i4C+KAp3QJSdqvXCfYTRr2Q2xm7LcT8roitFDpK6uEWub8HafKjc6zcITVzkkbwcSQN9YSQAllxn6jUFmGyXan/8NZ5S+vmPEHOku/vvwLX03kcwuWNyWgTr0jw7yqfyVvvvyl1LjwWcDgxP7pKP/Ct16Ib2pkReha/YMzMqTJQ7dSq/gMn3RE15sDgQxHpEKjBjor7Yvzkuxlv3KKV12H/6O3NpqCblWaghHC/sRLJGEDXcas/DsmMmZlNFf/c3kcd3T7/VjIKU6ieWuAWSllBl/MaF9pJovlLgXnQfzK8LCu/QdfWnnM9JBdialUM2f9D5eTVaVSmcyAMTxSKWgII2jBDJmhI6YbJbFy6cJsErn16LwMBaRgw4m8eXzyJi9yufUyl16mwx88MWg5FkTFTae4bFy9opsjvpCzhtQVziSn3upbBW2MSkyxI4YQGbHHiusmPjT5I1waJBk6/VEyh552NKZMqPDt0tuZ5L+9KLzreIpLt/f9d6TfGd6Il3Fs3eni22HEBk81ISm6OhOGE3A6rCu8U/mmtsCrQauHH88XuCfv/zt8uPaaktrFx/6uqxlWcj1Yt9XX7Nfnm9kfy9PL6+VpO0ejOMcsr6OOJWzeQt4omUAixxRN8VBnCNNqK/87ypWqaDfz//CrGmpDOgxEKGez8jfNbWP5i19pya55HiRUablH+03KP8XDLn+IZvwK5Xp8VyoW1fpv+bsNfPvAFCv4o515wjhD+z+9AgeOWCRvO9jbmVUoT8CUTkhBsrkjuIn9dq7iiyr+zP7heDOU5SL85XQSRhD7kR0/yruJ/QM/9utD6eIPVUL3E4/XDQjkD3yQUn/lzc94ErMzBq38+p9j6oo6YWT+8adnWActbnO8axLWspSyJaYnV5Hy6LFBTjgb8QAIhjG9EVSaNJpk+hp5D9VBXjKlccvclGHkyFJwMaltOfgpDCgzZ5nyi4kjZ/jIS5oGwxrJFlQC1Z3mDKl8xPk223jQL3juxIc9Nsel8pHgppxkktKTTAv+0E+SkHbbiJQ/owQ5PR8dLeSRWhgBSGrZX7mpDgnqg+4HtUKGFbnwIhq9iIW5622m2wCqGGLQKj4aGchKcKP9pHNmTWOkA6WdtUMnp+2RlxbaEy8vtMOntrRjK0v5GM85sCwxb0Lt2nK+Xb79fLtx90p7477VduseGya2qz6bjdoRB+0k+rvPZSp+dNXRkGUpBe3hLjfKjRGWil7g/yTAxX/VCzGCRMCBD942L4LpfEjLJRCdjPTxYhyA/fpVX1h32Lo2kTOA5fBZQUhT/n6az9HEohhhkqLKiEN4PdhhqddJpkDve361PfLCUnv6xFI7urxAR4YuCkTOTlrhZdtX29U7zrWbLjvX3sijhTcz1Rmbopw+EAl9idelZaKVDmFoJaGOGBF/yPfxmNmdXdJ1jP7XPsXGH6P+x2nKkHBs2oax8/VPDO94+1YHjkjbFl8+lZnnJ7qx/ccs8SUPrbUJmZmqIGFmEMkK67L7wcSkKWFLGdCdtCaxiLomI3keWIJgu6MCzMKdc/5g/egUpVvu1c4VCLmpXABtOXhf17efIcmzA1jEqOhhgxSSn7pbqIkIOJxCZjpy4rqm6vIahreVrdQlo3cvFhIJ1gHp187cQUFOUlMxKr/wcokCX3yjEwjHliqZJBSnmWzRH3zrkHErjY2LYMotaeqm/fJgP5nq5RYI7BK3J0UzOwhtnsmAdugx0pUaLhKERYzSI3VMKSj32VOr7defWGiff2Z7e+LY1naURniaJ3HOri4yCps1c9WJ3Wq/jU+A7aAyX7p92u64bLn9iTtOt+++2c7ITqU6MJGqIyMVow7xpMhPPbilfeXw9u7zkreXBv2Dd51tH76BO6DoU96ocvIsXRqrOzn6WeexnSfvZx+ZtE89vqudtlNkc++zt++45nT7m28937aRwOmseM1PPVAGQvjfWP7K+RcPLLSvPLudR4NA7Fg7GTn99be+3N51Nb04aaVlqRIdEfnimWn7tf0L7RMHdrVDJxbbseVJO3tuATl6JUwcPPIdARrvDj5MvGvrtO3md/OelfbRm0+1P3LLpO1ZsjZIR+lBr/3y9VpTIkpi8iW1zXHI5aiusF6k/HOEE1+ZP1/+JqQ+k64A5ftCugD6iVCwgi+N3zHtpZE8d5ts6jKrrYJqv3p0e8wd7V86SUyrX0g1Pds8RMLstoyn8Jd5ovokd8S6hOLoYgRQyk6eti+FzFZEwRkzfp7vGObZjbksKcoAKiEydmzfzmWEhbi2hVxCHj+Y+loKCWKGVwfyizPx3jx+0N15huBox2Bg1BERbEBpSrTaVU7J6eiVrFc4yC6+e88Wvag4mpPU4LtIXwoe4qIv3gBDJ35qSjERL/5qcFVI0T3MSK/sICRCPHprozLUgIDkNU9GyIrHwbQZ/wynZxTnEBJZ8/4voV2wmPhBeRI+yajrxx9YpNHtaWdWfFap/DrKX5qB37VIZ3geGac4MZ2igb5wprUDx5baZw7ubP/mmhPtH3/H6XbdLmYt8L8rddihlnITGnlrXz68tT1wuG46lGFkU44r0N966Uq77VL0w8aN5W85oU5EqZP6fPWF8+2nH9zbHj82e3IoNHZZ9z+71N5z7QvtO65NJSle2cgbKilnNNBR/r/77Gr711+9jJEY5T9n/zb6rgdvWmzv4omV4KfyFbc23n+ktX/ypZ3t68/t4EPP8pb9diZl/ziIzwMb9DQnOEmc4GTxLPyPHV1qv31we/uFb51pf/ddJ9rbrkJv6wZ5/LP1k4nySEi9VThlMS7NpNJvwbT+4/9MSWiIQiJvzf7I6fKUODqZtEXlkjfLhngLKtGBcCPJW5QqVgRn+KjtKq+juRV9gZW8JHPDvN/WJGqusi33MHA4x7c37Usqj0zwzZu3fzz1T/mSmZ+CpKqfZ2Yd75CYlKR7OaMT7K2jcw9nVBC0kuFEYoay2GEFLLnIoBEWv5A6b2ATQvbk2S+RwtAUQPmQFqXVT/Eh90CkazUX7piy6b/IsPsKZ+GZRla4Yyc2FmnJI1PZoRn4km/EJ6k4h7ziizDp5/Cp69li78BPrSKZeOEP0JKzDl891uGXL2b2K10hXViCc/iRRa5c8aukA5hj4bf2609O2n/5yUvbzz+yl4a0NuKy4nHWiV88WeSPpDSU5EW4ALWZRys+Syf4O0/taX/p1y9tDzwPjjZoSgCjZdvHiOvG3ZWXCtzlKeqh55faUyfqoeP19hfUzP6BiyUPHF6iY6QllHiOpbcV/zzzlP/xcd43jZYzgpn91RGV7ND08v/Fx7Y0Xsoig1Tt5+DPh3vfuNfLym63kvh3vvuTBxbb3/jUHjrOXcwd2qnAF99JqwAIw2eebMgnP2kcM/oE/yzl+OXDO9v//dDO9iwnmLCWBHiIG44cQ8T9V++58rdfcBv1L0Sd1rBS/JX/S15EKseO1zz1z5GgUX7h9OPLvIc7WfVxHrtR/UMu+Bdr/+lfpI1MaKU3HP8Uf2SAv7H/CWYU5qSGbpEBL6xRUxULnEMpbgVYyy2qTstBQ+ZZjY7NCV8Jxp0XwYuzy0uNgVr954Ucum+IIIMJSw0cWCG3uBXcfV5CZ3VCcn9O+Ic1jlVkR++4uevYiX3SHZb84nwLz/gcvnErh7qKL4mVw0ITKE4PTy8E67yeTQ1SepdJKPRpXNCmwiYpMnIJK3nItD+Bkh+comUf38zwkR9zQk54Hb7o4A89JRRf4YS137mv33lmRzvECErbygVlS8Kkcf5JhpjUn+qMOMa05BF2I2yFTpDjY0e3tX/6pV3tUe7Ik5P07pi2b8dCu+tyLvHG5BLyCn/CiG4b80d0IGIVl8hV/oiP/wsm+Zw3GQFuzWhwHl9VLDtJf5dLQvoYdK+6rS3z5V+j9AKz/FeoL18+VC85a6rKWUbaf/Uly+2efSng0k/FUfTepxfaP/zCrvbcma3poEIvvgqMes+Ia2B7GaldUdAOz6C0sdQRHJfdxxfaS2f1wsXtN3fUgVH/0/7gL+tVD6roUfaP8g8v6Rvtn9Vr1WFzYGH9V0Ysf4aHr3/z7/F4z7/mM2+f4fr5YS4xeUd34rzqK7R/p5MiULIYW/G5oJV4s/5HXfWPx8HKlGJMqwRlW1qDIsSVX45IRhWOEvTa/Najfrlm/hq6FDWza5lK3mXN4U9ZwyrgM1KwwaiovCUpZzZl0RBz67c3mqGK1SINWUTVDG7hRXk7WaUiO3eXUtOJOmwa9kuinE3w5auWLM2F2/BpRwx5UUUoYjs+iYN2puKshJKplnNbxWwLsUk95rceHTJHbjrDOTorWWC6/edolWdXkEj5T5xAsR6oIr8l5rr2MeF81U4n76dM4tcck43rDI3u6KlJe+bUAiOFrbn8VOG4UFkoaqfx1ee2tl957Fz7q3cvt91Llk3Z7525O7lkvGrnSnuKDkjc0ZHzxlR78LnWvvuWSbuciaxR/6JWyoTQXPk/xzze04zc7Hhiv7I0gXh8RfiJl7e3I1yiXOtD5uZ2+9PpKXhD+X/rpVXs4r3V+BkCjtrm8Q/deLJt34rsjLRkZhUj6P/nL+5sL57m+UHFk2ZO8NFj97aVdjsT99dfstouw6bt+NZcO+rjXEa+yNzjsycm7emTS+34GRytACqy9sQmhMrxWut/ihEGJZSwMM/8n06it9WQbLBfns3q/wz/LOuLPcqD0499gXd5Kb8rb+Nhat4dvpzFCa54Q1u97HWItdsb+B7Z5nrLUVfXkWi3CfxbeuXHkpEumYTIDB2XtP1oajHRwBRspEPiNEIUVjYFJ7im2iwjDMWdM9BMQuctaMiJS4vcUrHCzVdkqCZ1VxH8yANH9rQMjuJbeaV0eNDlFLGEJVOVwz+gQ1jktiEb4Tp8OG1xVugL8OVViRLfK+gm9neCmU3K7LgJko8k9ghKYN7+okiGefqBv1L/QnyllKwIZCeNfIPH8NhKirHiEV/6dPdllyQkeXfIinvTnjPt7Vefa2/mUbMbL1nh0u88d9D4uj0VfZGf7Kfx13Emqw/TiX39uTPt3+/f1vYfpTKnwMQoxDPMlX36ya3tD9+8wuiFaXWhu//fcAXP/e5epRMzsawad5W/8cJiO8limHu3Ufgbyx9apzrKoGl76jgdAB2qimlKYXejjJPgYyFfOjJt37sL38lrR7dGfEH5f+agbJYC4NpkvVNHDPjjt1pPEaAcEtXlx7+2rR2kM551igWrUe1d155oP/C6lXbH3pV2/c5pu4QbAz6XrAKOIk9zu9cbKM+d5q0zOrEHnpu0zx1cavvpeLctnudRFoj496fOqj1vf/RIatWpkEsvYTYjJWLe/+vqKm18XfvrzF7WXVj/N+AzD9YO8pbN0w+3rbzNMr3strZyzVva+Vs+1Fb30bHxSJDK6M1xhbWu/Q09VTy4UnadTbP/kYZy0P/Vv1RSf+1oMEoDZSohDF2Y8XVJZrGtNaPOD2/OWkQzSU4nUz05hWweBa2b1E15I6wx7RwvhPq1pU3xB31AiWieArqZVqQIjMTops1WVFPUM/jmQJd5vqFrdFSONZrjRnx1g6f07fiKUS6FGz3Ya03/Fzj0zguQmrj65IyouOSXZiiTQkmDUA74SoswQbWNTQ1VJVuOSi78VLI08i5zHl874Z1N8BqDNt2Xw1Xwt1EpfERi73Y6rSvPpIG+5YrVdsWOadvDnbIl2yp8saWroH57bdzMz9619zwT3KvtnqvOtx+7f9ru527jxvJ/7OWt7evPn2lv5AlvG2TO5uh2NRh3cjfzvkPb6GTA0X7sVufHju5oL59l5ALG8D/ZbNgTbbC/xw9y6XmER0CGjnEd87rr6h98X2KC/3tuZSQav+jC7v9Nyv8/PV1vUmhr4VcB3LzndHvDFTpFfBDx96NHp+3zh3ZBWRpImfIn/21XcYPjO8+2G7FjNOCyv/Ad7W6hLLwreSMLoLyNx1y+8/rV9qfuPN++Tc+2Z+sqHb1Ws3UDLY+UvwfrSBQc6OSQbj3zsSL1nC//i9Z/EMqeDiKGsjl28YRruyg+9JPTLKV15mtty5EH2+KBz/A63ZvbMotmTi+/m/Lgab+Us1KVj7xU7DnMQBhHdwkAL/93WpPCXbql1EshE9gAyGgk0itpiK/Y/L5ySiCCVU4AfsLTOtmZUEPKQW1DnckkEHzWD2u+yye+fg++VEWrdjaMXG4QNpsZDdW1ZsCXZg4NKZSgyN6NyV/ipaXOEL80ixDqsXMjiBSbvy48lSBxcUc6x+ocexqy1CEWqiTxHAwitMLMbxWUAKHxkC00SBdfYuyIbsaJ1knBUCKlhRVFARau+vDzwVGfElEIIqqxQBQ67ZfeH5sPNub5RyNk+MrKD731TPsrbznLWZ9nZrmSiWdTft3yFGoplbKJDgqUcrXt5NLqfdcyf3PXqdwdfOEMD+MKLgkjIB9/uJ/bbn/8Np6J2jau3Gi8GHv3lcvt1x5bbS+dcYinxByY31psX3tulY5PNYesuZqBftrqM2tPH+f5Ky7Bah4InZXTR4y870VcLzF9c3gH2p6g06j6ov0pPzI1serXtD3P3bVvvcTQUx+SHmYFsH34hjMNc8mq+mf2/Ucm7fjZilsukkZlAj/0tnPtlt0EUDao+pz8nIIIj05bEOuWZXMpl5uX0nndyTNjytL+0rgf1RV8dfaurzpmBKtdhK2PdmTZ+iWjdTCDRxLnyz92Q5ujuhO2owu7EQuFLeVpzDx/3rEnyyku69AavnWKesgzZAsvP83D68+2hac+387f9bG2fPdfo4JdVrIjVOnlL6OBCrCYHTcZ7NRFwGweQxhfzglEEelk7hXYzDrrdeaZkC5rJkpHFw0+LfjEkdbTrSxmdEkzAVHlJPek2XS8dx7SQEPI7Wd5SLN/qrumalh/SksHBl9mYEYhdOm5w2HBEvdxC8+Oyk8hRW65woKxQg+5ZWbFs1yJ+NKnp0CYK5by2s/0DBOZLHETPeSGMVwc/bOwrazia3/hF50FElxkTxmJOik6PXqAVV9Pm0Wcjt2Xunkeh11kFX7pVQUnhuiedUWoDity43dytN8X6/3oBytzrr60nwq2ApPpAk154JKGQ5vdllnSNK/ooNz4nyNO42chwNK3lEvijiZW2x+6YTUjs9BYsGKUgu0RHhs4zeWnusVP8Gnne66Z0miRm4aqeAU6bp20LzxLB5gGQr6dgAxmh8rAtL10etr28xqfwuyE7CC2b1ltdzMC2sYSTZaAm/sjp5baE8fxRViRRyDqKRf8Kis6XKrjae6wFl/prHvtpj52q5LUEp5g0ome5Avyjvz0f7jYIe/SbecYaUqGFvGHZoDS+eJ/wlGHfI+Vb5gHauXhOPyc8hd27i9+CTXX9+TJYv1OQKzUA9IqI5zJFzeOgCH0ZX/an8z6nb+q/8jT/73+k5U88/VLjrYwyCw5PeSm3tMpg5MTL7fF+36+bf/lP5XX8fwAzdhUa1T0d7sAAEAASURBVGzKVdpm/Y9tKQDqNse0xRUYx1avj/QigN7SKDOqaFzjaChtp6g9HnX2aKyLTpis20TTJI7SapSQ3bHqm4034heSYR6oYTET6bLqUPmJcMhP/xsel6r5HiB8EVms2KA9JsKnPcr1dMQQ3uBQTaYUYQxSqpuWRRphc2XVVmJ8JPj8z3w/yz3fxWKFH23tqnvoBa7l8uo6Tvz0Bm7QjctUo9E7otkhZLpMyzvxLBNLLM/DIpDtiXtpZU9mRBpYV6P4N9/HpNGbWV76o6zi+iZeHr+mTXbw2+KzVeiCKMskFc5IGEVjs5Li18Y6ZI2vFE2e/m2W4PkcCzE+QyYVrrsmpKqkhZFBRGM5dQ/743/oU9ahhUQ/COM+tXfS9nEFdvve5fYlnv3ywdiqjApz7oyn/adnCCFIWfJAch1zVK+7/CwT7/Sk2UqeqvgM2fnpKZZbQRN5SCQ528B/nhHcft4qSPnrCn7b6Yw/dMPZdoy7hAderhGe5b+MKl9/bpFn0KBTiqr1bd7++3hcwwl3hZUP2IN9296z7XaeXbP8gq+qUJw9B7d1jR6/LsnkhQxQW41Kq3fciyGOhrOVa4p2o/+taOLLSw+U+j/qH2nD/vgEuuCW1MirMtT2NLj4PKo4dKL+66coJUz0Q5koqHDS5ssfwuBzjD6wzvBNI+IXm5SvSdlFPlhpdMW3cPS5tuP/+9tt9a3U6zf/WerzrejlfJmqIIN9NuS5tuBIs85oXyiQqw4rPM/icYtLycq3lQXItu9g9YMIKznzYVNO8EVe/eqmsILtvlEYqzTs2MEt6U22QX36FEvXpjOEj0QdI/4CizNyHyjaqVgqeeSofjlQE3BJHOXZJUNsZNhtpkEKEhkehoamcJYkniGwwvm3Axj4cQzpVahkWnjkRxzE0cdjx5c+PIzGpo9/gy+Tf4MlcbjldSUrU1z7Ho63t7bv9SxVfXP00ILR0bbzNOKjLLfzwrfbwmGW7nn2d5nN5eVtls7JOzyXXN4ml8O/42pGZaQffbJN9t/XVh+7r012724LV7+Z9creFYwJd4Cml1wfnwz7dV1bYU7ipW+zNPWjPHuHboe+TPgALXgZn3me1DLs0eAyTq4qDN2jEBwtlXTxs+mkOMo2Y97/GYHLJAMyb9pzrm3lsYlzPEpgYuzneILXbZb7Caz8j0Tl8fsQl2j/cT8Twtb5gQHPM9wdfPzYSUZ39ebixvL35s5LpyftIJPhMUcd4L9kabV98Lopz5stt8eZHB/lv0zH+uALW9qfuJ1LndgB/dhUhv8zdESPvFhzdKWMCrFRhz5w7dl+VxEXoaiYtt2d2xQmeDSMHFm8xHzkxQl3JI1VjxVXzdU/c8SNMzjG/nn/k5nyhV8vuFmGM3zjFozw/iRJtBIWmIeyI039jyzS5/Aty9Tu8Pb6Po+vnRG5efmn79qI390AG7LX47uO3fQrv8gaeQ9zefln2+r138E3Izj7sXUVen+0QzMuslGfGEhIX6c+DDLiNs9U4TRX0qHw30TOCl4fO5YpR5KYAowIdkqblzRi8uAws6Afn0NTaPAVTnrPjjAdXK+JeGogJ8y63POmPbG8NEwqnmfa6OcwrtMpZAyPkyd+Vy/4nTb48IiNYOSQ0ulqzoxE/y0cBJXdvhajfPiOs0rriS/RqdnZMDt7xevoaN7ANclTmMQKFur76K+xugXPDbCA4uQlRlmscht/7L2yTW+7p02ufjsd2M1tctmtbbrjKmj304k9weKJdGZ0dtPDj7AMz+/klvbCHpbaufwOeLiV7Uvznhb5NmR7+N9yr/4pPrnGpe4LT3BJ6qUped0fwdMujNF+K3Y8ruH8PFgG2p45EPyTL0nX0Dgukco/Syb+135ZumOv4CaBc11FrHwRfKNjoZ21nMRnl4svscj7zhu4wUDH46MekZXUDGzap5+a0Imhr6RsSvPE5lycMp44tsCIi7Fal+Uw/uZLz7bXXTbJqOk3parCTye6/+VtvJFwghWEmWTudnWDI/3xl6c8WkEHHDybf6F5A+Q9dIxbKXT/Uv8IuzrrLbw3uhWbORXBR0XR32D6yMe/fGA7I79T7TbeKY0v9DO6Wq9jVGixqh8jAuyUBRznU07IRJadmWaW38v/+sDyDz0ylDzwlWX9L9nw6gv+nDuu+q+Rxj2YwyZAxwiHJMqUziDEngxH+8vlpvXPModGqtAZRpay11LJMdNVXQ492Lae+rG28qaDbfmuH2QZKb/h0etHJClv1B6Zol3x6yvybId0Yh2u5yea8GDqhq0TUErGbWF3V8oSYEPAYE+cSFmCf+hwUnEkM11CtkVuzesoonFX8pRjhRXJSiO59PL5P5Qmx0YBbaWwj5DSM06VDYNzCUxQAiWGwrxsxLqeAYBCuOBzzJxC5EgnJxLCSxj8aGn6MZ7sfJkRlqu+OiR2EUT1+dLPtlVe7VKftveKNrnzw1wmfherXdzSFvhq0XQbzxtMuEzUdn9XvpXfPW3hFubLTv9JOr0XWPDwq1x20iyfYYR14Hfa5Kkvxy7WnubyFLov/jSL1XGG8kGr7p7YL34aXE9Wfmzg6JYDug/7yQ8JQkbn0ClDrF/W/G9O8Qq5jQd35K2deOYZ95moKv8qzXCRweBy54S7m8fb7z7DKrXRWwAC8Hz2qa3tr/GMmZtiCss9rzuxOO03cEtKEtpinbS3c5fV9xtv2HOeUdkKIyKqOkMGO5zDdFBPHp/SyemUklhiiYP58As+XEpKhFVHrx63XHaGF7PpeujMRvkX+5R3KHmGjon4EzxOEsb4u2R/7blt7b/9rYX2X919sv2RG73UVbB5/TdUsF2AnygOTFmghJPkytQddULyKLcJZHU56Z6KuepbZISzpmcof9+mED1l0vmUUGXdMUMwyr9ox15aiZ1TW1f+XV9ZZ2JNC3nZta7+JQeNudJYuv+nWMn4qbb8Th6cndSd7VF3xI3Mvlf8CA77KdkiiVfWEYycUrZTVWIcRZvgqGMHpXG3KD5jII7Bk7MvMqH8SNv6DJc2fo2H9fMXmMDOR1llsmd2snlOnagf50hALHmRrlAv6ws/Q7AxKlRf8Io44ixcL3k8+rpIVQArm24YiiJMOUZ7Aa3DH2dDKkJ6LuQv0oPN7Cdea6uZJifyWF57wntzhU8zYxE5H/Cc3viW1t75l7n0fB/X8dw7F3edLuGe2TDloyATf5feSmtnxMan19o3GXF95We55GRkF6Xt7MFwqWvPvM7P6HdkeybO3Uso5+2Pi3SnW9xQeujoaiw2YObOYjskoZGBALIdn+hrvWjmYvymH/kpKkLrVKHblOla9Ln7zSVOPlgSmrBz5/IMnRiTVWxBiV9WeVh2F8+j+aBsFykPsry0OkOVeYjVIQTs2of3vdcxSobixkvOtyt20rlwQyGDBXR76cykPcb82117QRHIDZHKsO/5Ns+6vXyWkVgk4lOUdyT3ln3n25U84xVS7Z0r/+t2LbaP3HS8/dzDfKYPiqiuSMKOxh7kmbd/8Ntb289dcbr9wOtPtY/cMGmXed5Wmo7NiR0+hbNLmwkS+MP/KjtX/xbm8JUU+xWFbzYtf30GkX6Y6n/lzdlvDUpCx1e3Kj31qtJOfucZ5R8bBj4CZ/WftDEnOMq/FnIAeb78Tx9rSw/8e+aZD7ezH/4/YOrv0sIvXvyZ8Prd6H9yOVk9vuONNfIMv3VoHOmx8nSAddQerGxhj3PK8ZJRSc/z7cJzzJ89/w0uf1hx9Jn7uMQ5xLpX3KWIpJI18IpddznA1mEpCUUGw45C7dxbyQzm8YVAg2cFKJboUYVB4UvIyC9Db8JVRBDWP4IIsHlWqXkDK75U5AiXHSIg68ipAPKpmyOzUhUdoNCq+veoAHiRHXwrgZPxWvDU1/n9EJeD+9rkdibs7/h+LiFva6vkT1jJIBVGUPWHPh/4WGae6/CX2+q3fqFN9n+RiZsz6IVMvoQ0tbPEB9ohl8/ihE8dyrmRNErYkZ502TAgJKSkmydunqPaMyvTdpLLu6dO8BwUT6MfPLmQF5R193Ya4F5GHtfsmrL0zgJP3U+4EzhpS9QoLxvTKLWBX5WVflAdK7D4lA7xqEjMv+++dbX9o8+fZ/IdfipalteG4OzKYrvvyHnufC6RnBowK/9jjMT2v0QnhhHagZi2a+l8e+uVCvdB3fPtukum7XGe4yosrtB5hcfJfl64AmPNfi+PXqSDe/I47456WeslF3/+b9+y0u7eN+XBWzXXxyRjb8oTYMvsh+5ZYQWNczywqj6l57DfsjnF5P+XDu3kWbWdeSbv/defbN9z20p7674JOi/iOy7DkdNrYGFoBCjBMyQ4aQPfvCR2O5I7yn8uT0uUiyTY3UdQDMkdWnC138vEIJJNsOjFS8urVqAfOT90XRQqcfmxZBeGulj/FShLpmCI6NPga4Qx6wiXSAuPfZ5R/N9vy+/9h1xa7pOdTRo3JZTWwVdmsrgrbnaeMI5hg8HUtW2kFjjp0AqcntAuVgJHUSe4y3ZoP+vBf7pN9n+GkdfzycvlCAqnWGNvdtFryNTYch/JZvOT3kpW8wckkFK6wOWw2KTg68DuGI7VpZCHjrk0G7dRdTSNY4zKqgLLJ211oBVRdnWpKml+OUy91Jg/O0fwk25h8B8byPcTFqkw6hdDsEQ7PvDneagJ7Q59nRHUIUakR9r0iz/XJl/+t231qpu4bPxIm173Xu7Y3EDnxIohp19k7mw/q7d+uk2f+DyXqS+qKfNljN6uurktsAb/9OZ3tsm3P9mmBx4gQzWwHx0KH6UMeCNF2wlqiyHDbsbHVj6f8vrOpD303AIvhW/hfcNtPAnf36mEOj5np1dcCTwTysR3b2U9sUvO8i7kch6JOOfHYJQeRbSfgMzqiH76wzD/bPpz2q5gUunuq0+1Lz2DfaYN7eD7/DNb2od4ALT0xZ5e/t9g0vzUKtU4OIiF601XnmLynS4b2Gu483n9Lhon+USz8+X0g7wnepKVEnyNKlt8ZgfG+YU5NoH02diu382zXpeeA0aN1Zfy94w+6j+kduT/4/tfav/D5/e2F3jwVjOjsIrM2w//SzxH94nHLuOnjsvtvdedad9xHa9hMTq8jhPD5Tz4qrVqUPUUm0tY8L0srvbXMaJXucG1zzyNZXCiXyj/yCAoWdWEBCOxdtSZVOY1XPFGuwp6yg/bPc7aH3Lipl5aYOckBYn227eUn5jc1w89rUMFetRH69Pk0c/Rmf+ztvDuv8W8BNfebGul0MPIFC3q4H+KUEeRFI+vNwy8EpAAomyIKml6vEvATuHYo22RrzwvPPU5PrX2AJeOXCZCZ2cRMGqQFSi80aiY03liTfChTENDeC7LBNABVBvzicRZoSYaCe4UTGlaoN4BlNRyc+tXVClAybKFRCkE8m9npPdgpaKNjigVGPycF134zTz1URV/8vIrfMKkmWzFm+GTGPshjP1XvLlNXVPftfcZpU4O89Xsw/tZzfZhOqsnCf9km279Gd47u51hzk1tegQaRrAT57cuuYxhhRP/3DDgw7m5Q7mXif1GB3MQ3xOyolXFFxf7O75nwNwdJS2qx+caoNLqayqjLsz8zMHF9ovfXsoL4acZAcX7/RZ9ve6FbMhjuw3YCL8TzDk9yCXYgy/wgV+kQdE14ojvYn/BJS/5HT/lqyhyPnLjMi9dg0HhpSz0Jo3wq0dY0oZHLXzIND5VCuHffYZ89eFHuyK4QGdQ82fav515sFvpfHYwOju57Asq5aODx103rbU7Lu3lbzoCDx7fwkKQdAHYJu0Co0KfP7zt0mm7jTm08keZEB90w7Q2+t/kfNqx9pPfuITR3hKj0m4/PkI93O3erR9hevbktvYr39rafpUO7cbdZ3lo+Fx7//Ur7Z1Xr7Srs7qkkqH3n+Dwf0SlN6hSV5XUP+jiO4hFTfl3RMnrKgtLIox867/WDp/TptMWyU/HRn46QXjTcQ519BG06ajASfvjCFm2Uf+8tK1OsHxqWwpVHr2IR9EJCg3iI95L3+ZrYJfsa9N3MOWyjSedgzekluzEbGiozodCKDwdY2XhOPMx+bMzJhzK0Xs6METynH6ubeHz9Ft4tWDhWT7h5CfWQlkMdgpyhmXO2ZGm48jwPSjx05TiEJK7vnn2RK9FivqEpeOXo0sWe5hquCq9+OIq6CL4Ck3fZKVWdvFo/zp8HU1inZEidg1fGQURrDlrC1/7IxZNItQqxsb8VruO+TDmxCYrL3MX8RE6q/10ag8xkuUO5+Fv8dzYQ8xxcql4M1/4vuadvH/GS7XcjWx7+G1xDmj9FvuRrp4dFDvUSA+QIj626MOkaKimdf97ifXzD29pP/PNHTSqkj+rWMiJ/fPlHykRpnTdXf6/AB//k2b5Bl/4aATDHL76Sffea7i0YlR3gg5nVv7o6vuETx5bbbdz6WoHI6Dldv+RbYQHfjRp33F9QYz6dwcvXe/hdH2Sh8RGE3v6JJ0Yq0Pcedla/TvLo/9PHFvkctNrJWSB4Z/PnL3ucl5U3144o5HE+hQo6Shj/fOVqu+7jaLdebL9wqPb2mcPbmM+zzunEg58hSdqe44dyjzPndvHWfXj8aPbWTZoGTvOtj/1umUeBi6TU/8FtezYgp+9eln/e5oZ/GJ/bNAWMufLX4WH/yFPfkZs8imdNE6edTJHvnHaJ+IIdHwjCXZ8svRXEjkM/yclQvtn9sTuhvu90I3tv/Hxm8nXf4lHlK7jmxU/yKWr0zAdKoGBX4lbtm/3+QwugVZW2ukzp6OTdMXSVYJHfXfs5LkNjrm7eOiLbXLfT/HCJ3fHzjCy4K+owzyHaNycasjaUn0vqRHWq1UMI4x8z6iqGQcCHJ9hd/EiaXhZXQLHPgz29x2aeDAjp8I5q0R2FYpguT2sDPDFc0g78AWOfGWTLoa6VFUcSDYmTwFeftpYays6aAaZAcsu2Z0K/OkWJrKv5rkvP6V2+zFGZAfa9D/8MItDPkn8/W3y/h9hkucqnMZXkmCLnxGl/CG7Ognx1Ww9fndx7MuJLwRWOoXwQ+gp5r7+zUNL7Scf3NWOnqYBQ6MlgViHZUPxVSF/ZS3vZ2fiWjmzu86WsLapIP/xo+UoTdQTgNyOH5V6+V+1Y7W94XIm+H0PUf93/JM8b/U17hregbtMc3uBAb8rU1gCRTttV3Jpdjs0w//Kfj03fXfzRsAh3q+s0bR3KJcYiXGJww2lbOC73M23XqKYqABRGw94vHzH+faWK5bzPJjyUv7ak/yycx5vOx3mB6+fcml9mjmvs+0Tjy+2e5/cmTukUsezKUxi2qcCc/VfHZ9nXu0T+5dYGvwsK8iebh+9kZfAa4DYS9k6p34b8JEngh3aqI9CJTWYhsuuUf4DP/Uf/o31P3Wt13+VHZaXnDV8c/SX8uSpmHidpuNXHSatl78Uw/6ZgBMvtOnv/ut2ds9tbXr1O2b1ICxB4C2TPNdKXfSpWLfzXDKdt0ZGS1QxOdbHK1Fq0ZfReFhz+gh3xr7w4zxG8BzpmJSJRNXvw0ZC2bTGZLY4gniSFAmfd49mhuL1sskjBOAbz2aUuOpY1hEiAZFc4jA/QYSfF0aDqWMSFXPgE4xDBn7xyXohvqLkzXEOP7I6vnyLHZ+qs1ZxYAvdUAdB+iobB/EtzJJlJr7dxotyl9MCFnjs11q4c2+b7Lkl+EbHVjzEIk9Uw0rrDxUSFWngh9XdkJHM8r/zZ5/lEvJnH9lJI+6txAbqCJh/IZZYuuf9N51gqeRl7tBN2hWMSDLqxf+eW48yGf7U8VXu6k3a157nkpLVTI+wHI0wY2cn4zb2w/+z8ur+38PA6l1cRn3pcPGmuSHIhUIffH5r+/5buVSMwSy6eGg5NwFqBG7XssCL2b7/CRdAw/5rOU9ff8k5lsrpI1jsO01LPfDyAjcufDAWYvDtxL7ZaTKI1X4MuIoXMN7BeUSa3tcYoR6hFGkLm5Q/ye0aBtxXcTfzA1waHnvnsfa5Z1bbJ/dvbfexWOJx5gwXeKfTDjibDODNTtzYyLklD93+8/um7eqdp1liG29BXq58ZXxYZ/YjWUPqZziZr97+pAsvx9H+VHfgj/Y37I9PIrwXu8xisYUnwkgibb78k4z9VZ2JSYD9E965XPrsf99Of8+/y00xO9chT80WKGcJaTG1ZTjZhY/Cr8sJpfWq5rt39/0YExE/xWUQt95rHIjcXmnwsPVr9vRwN1idPC+kElC76s8eH06GsFqYL0ZDOM6qKltzaHP4kJZXPUiLEQ5xjRFU39klpZhikR49Vczwq+Grk+DSqY+1edi/ET8YJd96PMMHJ2NkTaNwYj8yHM7LYrY+GGGitZGgNSHwYI11k2GzLUbL02X5wq3zGsqQSXwOF/hf2WTo/0MnVtsvP7bEOlvcbgQv3hQPXuvIXfvOtr//7pNc5lHp4wvyEFhyIeD/OlaieMMVk/ZHk36+ffHwy+2HfvPy9jxzS7Ks2V+ayRQIfT1f/oS306HcfaVL/pznPUts8cSJMmdp9Ad49OE4b0nsRlUt/u2nCXRrh43vvPp8HiOJC3r5O2JxdY7PsfBj7jpSS/XtN49yHj5by+IAxHuVC1yy0tFFucLwkZg37DvN3cTySfIIiq/fxRE7RTH8H/5K1IcuX7STyfqP39lYmWKlPX/qaPvM09P2Hx7f1r52ZCfL8Ex4CNdRITI5eaTDJ5z6R3k+ymjzZ795jrvAy4wKFX4R/Pn6r255ABxNUQVhMhHW93P+j/Ja4oO/4FsmQojPYdP6D13KXwp11tRXqv/QpGO4GL7q9dHvRvyF555uW7/wI235A/8EKrqrKOVBUCL8A82WOLtKG0nQDA6UPvVsW73377T2n36CUwQdmFQ2UI8a7gF65ZrYD+YS1WhSsNT0QZ+G3tNVPnTmsyl3Hj+JahvAkd8jwS+MSqlCii4y6mCRN+Dn8qqn10Vh2ZEkoebsV0y8BUAK23iMkW7OftOhSRb+ycZhPX5P7uoPm2TqHMGoiVJprSidePBUagmikcuXVQV6ypBjtPzvmXv4pfR1vv7Ro1vaF57mTig2BD82lyJ3Mar5B+892d7HpVFMGf6HJmoMkJn9YKVGi0pmOlRlicux+z8nKkloZNUa0A0ZlpcQ1/FYhO9fOtEc7T3A/yyvFz3GoxJu52gY9zHZHxz3YGyls7iHkaLkiDLRfSJvZ5kgH19IPYy+kzyacYyluLOcNvJcRnuFzkQGy94GvJX5sA/wDmb4Sh2N3GD/Bv+rotADH+phvyeKK7mL+fE7F9pPfNdy+8T3v9T+7rtfbu+/4VS7nIUnR5XRF2U/R8K/8cTO9ihzeAXcD2Koi3NdgevlUmjr8dXpler/KH/ldfsuVv+1K6UgqNt8+RsnM6oN+zFq2F8sXd+co0lBrwvaP7x1Cudy8ZF725YnfyM4PTE+CQhwqR5GtMGtQBxqrm1+CHbrF/8Zk23cNQihxJ0hHML1bmAkxxIL27+irlmjSsnQUP3NsxAMqEcMt9AHL0fyclbqNHKJ5lbVw3iXlQIg3vU03RNB5UtniPZjvsZaIKkEgleSNANf2sKvo3KrbEpS8oLleKEDyYQsKUzzkk1U7XezktSYp3SJHtIoLEl2GhGQNJOF8LiONsIi0FBkyi9ZEGCqcOVVjExE6/9zCPwyl23HWfKmVEtVC/cuVoH46M1n29uv6gJJxVEzv4qQPwFm9he231WMLUGvtNLDvfSFbyVLumeTGGnWlJVXz7c3X25FL3qvEoR4njms/X4EhPSDjCAPHa9J/aLjkov5sKsYFSp/ffnz2AUjxR0861WIhe9qtIeZ4Jd2maz7DzMBr37oMur/XlZjfffVha+KkVtEaMFfVMxuzv/Gza0aX61DTNKr8sT/gvhYxp9942r7377zZPtbbz+etdWclBj4qqP9p7n7e++TAM+wqwbZhKUtNOTnv8fAUxPxLe9Z/VMz5fCTIqO/zjfr5INT+RhNQAKO9d8R5cY3ZvMXO8sh3U+mgkta6VGeUIz4VUbqYa7H/EdSypR4krnBsPTVn26TY0/NaCLQTFixH4Auw7Rxm9QkZSzy/t6W+3+8LR64F2VQggzp0zFEOfk9y5uhBDbC5mcil3B0IQ5VaKKzlxHSK8Ng53dWLsHwDxle+hSNdJVvgv9iJbNkBF9aKx6uQLj48qVv75h1p0VZVIY5fIIQyye24ZJlBRw6mqd9buLPXqWSNvE1+xU08LW/9Oiy5Qc8K9RGmv5XBpp2PqxIHBfLHX6hO3xVnNAEPDRmDvs1TnzTZvgy43+nQB9ksty80JicRsaCh7z/+DbW+Voiriz+0anKbGa/OP6l/CtPKOeW/ECGf1IM2WNOUL96UhIX5vi/wpxcoL6U58XuZO39S3gsYt7+o0zuP8HlnosnfvlwPQlvQxhdzusYvTmBryx1rmPZ7xLXd15+CsDSRvxlLlEfetGPAXPnkvn9h17YNrNf1aR8x9VcSm6jW9lQ/qof+ezm7VebwkXz6LC+/M3TZv0/wrp1H/OMP/C68+0v3H2q7eFlckniJ7RQAtNn7StH+iWfEN0+O6ZR/4Nbu+TP13+TN5Z/1WewwA8gNLa/Uf9NU0baOs6w/OWxbqb+qwd/8/hhJ3/Uv/n2V/hl15r9vf4jSx3n8bXftGC99ARLYf97Ij4BkWShUi+pwTg75W0WsaGdkTNH2uJDP8MjFPfy/h9fNOFPdunHsDeOdqdTzWanYW5ZbkRi/tMQoKkccytsz6+swTOPn3LiLlhuHsB4Ab6ik85O4mweC2UePwXTMdUncfkHfjxG+pz9wXeURp6DhVRKZMueKx2OF+DH3o4fmYJAKLZqGnTrYZ+hurj9eGUevxQv/MiMVHRAmBXRTfxhP/i5JJjhr/e/4xJXQ83zPH00lGfSqKw7GPBc65eIhv+1fzN8oCN1+B/8g1z22NFQvbsqpZ914GxqKckz+zeUPxnqc+fec3yMg/dB061RBlx6rvCQ6gHmsV5k/bCv8TUkZWh75g4Ju9S182Uz+705kfIwacK8HpeoASZd1cD56nMspEj0wRddlJGFHO1ckqnvpu1jvAq1rvxJ053O9bkRLfuTasJ6/5tbWZb/nP97OPWvn6BcQfdjN660m3Zz84KtOmg78rL/+ZPOCYGPyHXtL5VJXLbYi1Js8lfc2AZ846ZCryzHdaEqpyaMisiYq/8xpNf/ASfEPL404rLN2p++0t55+zu++q2r/xvxe/1b4NnTpcd/uy288PVoMbMf0b0ohCytLBzE8gLxWTqvT3E9+sm2sOwaUEWi0akHOdNWmpUgX1gJlUbW3IOTdVYyTUpFgLfk1OVSwnrK9F4rVC4DZJn45cs0OeoUScv5nv2SD71zF4VPPol2NtLZraeBy2/hR7PSuXDCbOaMx3cM1b+wlTdwoths3mnqqzGKgl5VM/9sHHtjt/i0h8pVpvjG1ZcwfLlkJB78br+HdfYTkzsbh/hJH+g3cwwT1H63pA6f6gfSUi+iJXShr7GLfvL7kpKHk6P4YijXm3baEl9Iom/kJ5gn5gkLYLMf/j/H0P/h53fwubHyGw4p5NztnGQiXfv1Hqw6w30wPZru3a67uFF7I3f3OlUOjkYO0EE+mTcKWKFVRcRHjx1b/UalizuSoEzSuKlKGHzoLP8PXk+HIJyT59pJ8Bu8nO2o8bMHHSeELboo4rKt51jOB9DwY3d4hv19fo00+dZOasiGOfWvl/9MrvL56ZOqZ4Rjv+WUHEaSCyxFTedd0cERxvPxvx5CB5UxBN2o/4mbZrvT/uCTrwJoKe2s/IlEQgeqekU+lLnbqM3K0pYeHuUfaR1fotinTwUQh7zCl5dcZSDEtGBqP2GpY2jCiRU+NxkiVFxlCWCYlV8WnubDJOeXGcgVvSJ4ON5CtqJ1JVQEhRZfYJmM+/8lIzCWchlYoZWNrXtIUf7Sy5Jfoum9YcqZmBTDobPWEbABlGcL19qYSxXl8HPoblUpWdKwEZk9bJeEXiHNYuQwnvcyK2cgA7G+pBBDMIlG+2jAcXQ0EN/Q8EXHD0+hE0Qf85WRrfBTSObakvs28C24WDH8wpGSRE5VwFzKmsam/RayscydFGfyslNv8ccPjS0qNw/D/vhV/RE0RkLm5xcodvg/QYiW+ufSlGtiHZwj4sMVrOwTRg6p64xSzM9m+XcdlW35m/KFZ1kFggUKq5IpcK78ib7A3UDxa9M/2qT+5UD32n8Fr93cxQKErjQbvUi3/H1d6AuHFlg+2oZCItmWwdVMivvVpFg27PeYv0K7+4pFLtUYf7KmWNkxZSS6tT3Oihaf52vnA0edxPrgDSczIi1ufVq6VNwRUvnZ+Ch/KGb1z/LXgR5mvOq8Wf1XFlm+MnTc9zbBD7upHXYvHbV1uNrrWv0XfNPyV4DY0UJcfiZ0fO00HrM0oMjjfyNd/aJCiKPUNRf0+q9ItpxUzcw2ZAmo/pWuTYnO2S+Obcr25yZH6i179TaWjcgCr4lteeIzTHE9yknIdH7IXjjJwmJ+adezv1/l3bVzV9u5sNx2fvX/bO2UKyLArLg0sOphjY+ztVql8ZFfIwvR6qyWL32TLq1nS9susYxC6tZtJEHPDV6ek1IO2Wwlw/SBX3dKNseHEZbSo+RXJzGPH/46DQRPfH9Dn9eC7/ihziZiVVhXb7Q/KwhoBX4wb9hPLZiZp5UOB8R3y+MLJvWyiQyy0rlIMG8j4UFvVpyUNGXx68OCefsz19XtzzNoYFtefsVI2b4AXxhWjUk7xpIyj3Dn0nqnlsnbxH7xtNEm/fixSfu5b+7k/UMn3GWxwOV1qpqyxLjHjiLNck1e2W98+F9yZWrD23n9ZrfzYiZ2nmPLS+3TT2zjqXqNUXb9bmCJnGt5jMG04f95+y1/lg9r9/BepbLUyfL0hPorjzLXdpSveERW2e8zSB/j5eyN9U+aaD1sE480n2PzhoblOfCrDM2v+g9j8oct6iC9ce1X9n7WMjvg2v62IeKW/7Dfb3RKI1de1CYciR5N7/HN2t98/Z/3f/jBt/yDo0i1El+fz5X/ZvV/Hl/+sicVDTWq/LU/tiRZ2WvlP/Dnyz9tSt6OH5nIFn+RhT53nDjQLtmxPf3WCfuusluhVoD6Tb72kyzu9xWi5cAaOBhWPMmh5Wi32bdi15nI8J9gnd2JjMYb98OgZyBSVvCNlQBTBlXodMx6fDEgYwt+ZJEUkeYJrjzZKzz0xivFGp7qUH5P+GmKG/BLlfX4ni3924A/Pc2Ejk+ID53l7baUGI2YaRm6VKyklr8SZKfsjAp5D3PKYog5y2n0nP2u+a4vNrefxf2gfT1fNRJ1o/9diuYzT23jPcLuf5xdci60347ugSOt/fP7d7TfepLJcTqG+F/JA187qcxf5KtGy74LSoajEygJX4hv2j3odiV3G5Wlz6T18ubhF3bwWpKT3FLpr2m7hZUqfC1o3v6N/pfyvdcwMSwjtiuWpPZLj+5mPQs3BVb9u3Lncns7j2u8av2DY5n5ul99dEv78Qe2tV9/gkUaX+amCRgZXar3wFpX/wp/1D9L4WnuuP7EN7bxJgIdWjZ5y5c+cJzLYbWO4mj7au1vY/nju7DGcR1fm4lvLP84N7qDn86n2xGfZ/fK+MjdzP8X4A9b+hhs+L/M7/YPfNufd2Ee+2R9j6Lbv8UK4uL/1v145whLId//0xhrAtx6ykwrJtHcNVOohofCo4VNkooosP7JNUqEWu4l3+iNSWFDnsPTRNLHxwzxxNHdniUD5aULhLPLTHlKJc5ghR9tcomj5mSqHHSxz+eRTMgZIFYRMxPV2OlsH2rUJ3IzOOdoiH3sVH+fhpfCvK4fFDYgh/KpbP1FadGyETBsZxOVv/7LPF15mA+MvoHHud/ZpjuvRRkshMj8OJGIk6mxQXw7RIfOOKXSIGMBxMaHhqdHvsLy099kiZ5H4ZFG3aBL5RvysMtOw3zLogrK4svqq+/kIdaffWgly92UllUmfpzDS6x/9cD59ufefLbdytd6wmp9sHzg97uTjx49z0On23mOaWueqHfRQzMDp+3+hv8R8MiLO3gY9iRzTfhX36KSl9WubmVn6AnPNDurK7Yv8obA6fbNF10RouzXB+eKKXQuFrCDFWFv4iO8OznCGbkEDJb81D+E4+t3gbsVfzoPBmFs8VWr3NyQgfK1nr6HVSV2OinY/Z/yRzdrRYmu+qhWfi/y//3WDh7RWGp7d7Bkz5XnsvbYm67gIyGuSsFT+z7Dpu6xTWiFaD+Ho1xi33d4oX3iACcBThwuj50N4tQ/XPqWq3xbwpkQdCg1wxuvRKjyqvytPZLEARBb/nak8Y3MBIPQ8VP/kVHeq1ouSLpzZFq3Ml0UGUhBhH7QhbWGXtUNfVcGDpqK1hSMtsMV3o5vgRNX30XyxC//ezSj2v+q7VpGNj02OcgA69jTvCR+R/B9mUxyDlqGi+7/v1iczFvRbDYeNZaGRq7iGm8F0yjXW3JhIXwcRQSWvAChlEcGjgNHASbJkeSga5wVXwR4yprCCz4jKI6ce8MbVaF1MnlMMJtTXWHpZ4Gu4QMHvfopoMRDHWUdncG7Dh8K8pLt0T9YbWjqrqSyX8wN9hc1BOL3yiQzjBPWFG+83L26kzfzd1/bFq66rbWbP8A7MR9iwapLI1kbLDx9Eab4vcIT5gLak7/FWjG8JP4Cq1ucZjkfLvmtSGvNSzbp2eJIdPCx8SEPPfgnj4cI0esuXoB+65Vnmcuqd2jjQxs3/z4I+kuP7WpfZ735u3l38NbLzjJH5LpYC7yQvYXLx63MUS3yubRF5nEcPZS9V/HF8J2sjXXgBK9PKcsKIj7BFWz7F1/ZyYjoNCPBXt76Nf6XBC+nN9PPfOzjxrPt332b5b71urI48A+9ZYL/6dyu4N3Gm/c4GV4jbZKlmCt/eeXiZgFL8/h+5dPH/chtpecExF0wWZS3SNl98BreHvCRNHGEhXRj+Xv+8eSywsnYjtVL9hd55/FePhT8haf5jucuPjrMlfU+OrGrd57jS+or7RLWYFuiXpwH48S5LXzxmxfbWaDRtdoO41PXUov+sRX7wLh0+0r7wbuW841OLTSf/9gvgfXYjsA0t5pzVWlr+nz5JxrfmS6fJeZ+rf6LLwA/25eGY1u1FePKT7eT9mfhpv5J1mWFCP7x4RCYI4O9RP4nUMnFnxqM8CyW2MtfypQzNqasjCN3cpr+yeW+3nQHKbx2RHIKSGWmz/wn1q66Hy0LJIYEEOEaFV10YoVhJd0GX+obH7yKMMtNXzqKsgCKRP5QBKKCClfOEOKRTSxTN+JLh9xkpwnD33t2UiM+eews9OBz7NLW8OFZj6896qZwFXC7CL7yNrXfM595yoEbjJn9vGg/OeYTplx/sfLH6sO/wdeLuBV369va5K7/ok323pk6EHwV4DNu7fFfb9Nv/hodIOvyLzMHwM2Wbngd5v0vD7AiFz726X8aA3WSXOLSSIHu1/Gw5ffeca49fHS1vXzaygJxBEjM8jysiPoAK0U8dGSJdZ5YZseahz2OZPx5xTK7XILlchrr3+Y1pd1L59pf+c2aLI8rAU/5Q/PVwzvpNE+172QgahnN/K9ufTSrpm4fYOS0k3mxE/0mg9qn/pnvPwL88O/tl+Jz9FH1qM+hRgBEtb/Xv+0sB/zGfWfohFl80nIpcohxkHUF4msuWeZL3Y4OyY0aeCyGEkXZWf2HP40KHvuz4Tor3BmeQXuGjvIQH5uy/i2w8kju9kpnQaCk+tlpnRfbreObFyaS7PC+7/Yz7aM3nOsfMTYrSkW3tAv0tCsqXc3TS4rLfp39HRkh0tMZQTPzv/jDIyo9cEgNDmVf/MrVqZKQAm1OupWZvBJvAtmSQrNp+8evwY8HB75cxVs6dHxVhlj7p49+ghUu/jJUnoy7Wt62bN/gRUve6yp2K3QxqahTsw7HdfxaXUEERP6GguU9+VQEA/j5dDz9bcmNY+qsjUQwQHPiT2J2dVaRz4I1gTzxQ6dCyi7htSfBM7CGmW6iNP1vnKUsZPMVozZFAbke7vjS2OPnktmJTmUYx9F5T1758JfeyiqfCBrY2Ibo4jRQ8qIW0sznPy97K9th/vnj+b7k9CsHeWT8V9tk31UMgZg7U8dH76Xz+k0+QHIiEutspFYRXPjq1EcgpTdxG5edjWT8fEks5SOp+veKq21LnMY+diud2Iun2v/DpLwPgEa++N3nlrlzRivmMaUXqQqGEGiOnql90n65/TfvZLXSW/XXAosY8tLzwT3Ul3gW8vL8Err5PmGanvyxruRldKBN4uNfHzl43/Un2qcO9NGYUsx2A3+B0ZKry97kx2njC9K1X5rgEjULWu3dTqdwD8+TfeqA9WEgV9mEBV3u4XLwKgamY0J60/KP+AigE3VlW99b9UaIUmqL+wh6Apniu3zBjiqjHlHI0rEOeeCv3N3LF/u3M5r92O2n21+75ywPH2tTr2fys6X+JUw6x+pQIiy22QGYbvnLabl6nC//tD990/MiR+HYoWgx19ofcdu/tKSrhXpHqnQ9XljEOk31Fx0/ZVPtP5yj/HvbqPJXUEkf7d92mhtFMEXekafoq55mhZd87auUmRzmOvMIX8jJ/AkCNED1dAS/3M0r7eMICWZ39wzLIK5bFKugLHZgOjR6YVhKi/Qg9waYAkxPT2poJCA88MVAmDrVVk4ZoHW3q2eJHwf280paWvmldOhSYqDNG/KEo2bhg5Qk8BWnfQM/+hlX7kwUUnrHEYbY0PFF0H7z/QVMXQ1vwH+eERoLw5nVXmZpHu6+GExHi/IdLrzBr9zol1GStF4+9i3+j57lf+3v7ui6T9oenpD/6zSUj7P2+14uzdLIwq//SxWxvHSvBqh8bNdG0vZsX2URv7Ptf/3O4+17b19tW/xQCHk/+r7ldiMvLROL/dt4bOLNvAXwv3/keV5n0m7l9L04vfxLdRPIw28fv51nFnV17C+egb+DkdVbeLnbTjPiZNZ+dWNLle0Z2r6Ebm9mmeldPq6Q9NIjWsDjfNk7rlqlY3oN5S8Aarpqxt98+8n24RvP8F6knZmiS8/qwE2AlLTUgahW+mlHKFVO+zluwaabLl1uf/Hu4+1H34NMB7Qpw4uUv3KVYt1yK7joMMrfnNxtJLCx/NMhYYcicHdthk0iIe2fTOt/yqTbViwK7PgJspvZP+d/678yN9Z/5JKcfcp/Dj9YHV+hs/YnB7os+j4l9It//0d+5EfNXXzs19ri459hZMAtbS3xp3R3KDkLKjRKa9wgSW4ElhcqnvzOONxfkmBUIriGsnURHtJJiG9uJazhm185lRWazjyE0dsXK2gq0cXIWZQSjpCZep0jDjY19s+Yii46kVYFXgWSAk6BwuSmWLf4TzkdP7hkCmX+2A37xQ+wPGIoY45O/8cfMzIqxLz/Fco28LWfTWuGrLUjwq0NJojfsXbypPu7rz3PKgksL032aZ4TO8PQoUYWSopA9CgdfL7sul3nWB5muX38dSfb33jbmfb6vTTIoQNHXx+6npVKDzJndjnzOn/s1lPt77z7NB2YenX8LncoGv+a5uVbHDahI5ywvhadI5hX0slew1zTlfyu5ffOq5fbn3k9IxXmnmbbYNX/3elVfmkKGX2ewUinAny9yo7nSuarruUNgfdff4ZvUjIS465ofFaWl776HBBt1G9puiYQ96Xuj9x4DnvPtMtYCMNRlEXmdy69XJRsVj4JkNLlCOT8rjcFXn/5ufaHbzrT/ms6sD95J5+xs/cmf1b+PfyK5Y9ct5RV16/8PeoWBGVc6lGpA2H9l676X94kzpd/+SD4lSsRZBrDsWN7zPVZl9HhSuQgwkF1wpQoDPFzWObKP/Z3jLKp9yaL59rqbd/Ls6znzk6nfIF64bf/cVv4Fj3bbENxHDuzJekaQI9o6XTcrtWMy4B8OWtCZvdgnYpig8ka4IjSxjZqBNHYVoThsAMKiXnZOv7MCSTO6DuJSfDVWfsV8Hu/kcFxWjKMqLMmD/svhq/96w1bA38t+IKod/yIrI34yXsV/NDM69tViOjXZv/F8A/yYRBf6/FjGq4579eBfAbKS8Y9TOzsY5RyA68k3cJHct+0b5VJa5VZ21L+jtpI8iva33yJj33QmF+/d8L7kN3e32P5H2fV1ad4KNUOwfqXKoSoa3i8a19fnmZocNHytyXJC/NLyzzSgLxly6D734f9swYY8vL3n1n+y1Tax5kLO8BNj0Msd/0Ubxj4ovmLvFN6kmV3zvGWhPVniUuk3dt4SJfFOG7iavmW3edZQfZcu4PvZebblq+Er8t18HrXJ67nL1r/kZnrMevvfP0b8oYT9cBGfOLeNHjV9g/dRfFVOoUH0O+z/U93X9ZW//znnNsEjs/bT//jP+BeL9eY9jhxAn5mZGIUtQuPSpAKRJqOSu9uZaXTstBRPY5Vx/S8RPWZvfaoKKHz+lapvULprGzyAdjrFDQC9d5CEUbVwWNGEUjJJU6QSZQBOgiCn8jYWSgQFHOnwT7wbHTBtWHRWJUTlZQnvliK6ZthR8UR1fGHveouvvluM11Ik95dTBKETEc6ufwg7PxuXpWB2bmHoquz+HiiXbFAop+CsGne/6SpR+qGbmPLHV/0J9TjwM6MM0n5Op1/7Bc//idOv9Fe5sr2LFdevgupbCeadzHSuITfFvQU30lbpQ8+I4mTlvKOfFN6fJPyD51yEDLqUXw6yh9J1helaL/mod768o/8qsLz/pdS+WvOEcF4FxZcqLS/XFH0IvTyl1d8t+DCq73xf0lLunXM2qJoN8viJM7zk3GneBLfmyE+lS+4JwXv0O7mhe89jt5cJy1F1ctfIeB7mC//Gr3UHJHlpf9D5AHilH9XIH6dK39EsaEfcmNPjFAftl7/rIcWWUwnv9pnF4juUVEZVNyN+JHDTj1iZXam9vIznrpZcT1FKO0tuF0VmZURJQbi8D/pebRjC+/9/oXfYGKfu0HTlw/yJZ1nuwN7EeCYarpC1Na7igjXtb29qx8adyr4ZnNgJkWTcagCTrEkT2eaVwYFiEaiwIhMgi7TVD2MBuKYKQ8HK3ScQro0aq288EtKwBw39bfM9OFIsaASsdZT+nYoQbRiJEseJKSHEb9kihBPCaDO/kcotKaxxSUElVRphW9uNQhowSs+aFI7oJEZmeFjX0/uwBVGvVc2Sp40MayoHdeD6g/8kS65DSBiIlzPlE4BU4T6RC6vJHGsUQ4pvefwealauqj8FEh9GCaO8ZsIbMEwAKY6zpJ6RL9KalRlQx8nkL5mv6Hc/ZIWmmIp/8+Xf+WMvTJL9uBQjsWoB+Mfhal75LJL6x9MoSZTp2zAhzTlH4CBwZEt9W8mH/HQ7uayeg9fOCmJNccqdJ1MYAo+h5guFVsvf/ErJaAwqbCDAOwHP/Uq/ocrzqxDaon2xD4BSA+mnPpGen9mGEQ/6OfL34wqBxmLjn1glG9nPI9veKarhLIVdEUIV/2DquMrRxqj0leHSTvGGQWpRAWZB2HKyDC3Gg0f3Y+JZ17mAxVfZQTiPQz/giQaUvGA/CWD+NqWOxxdEQWns4cnlY10WKJoJBrXQI7lLHRRvPItOJm7tQNf0VVgHqvCRijR0snCCBFxjgg0pvyqoJLxR6KjFvPcZvhxnk6ZyzeqXuqS39rZyrNddFKIcJGlXELaL0Cw5/A7g/gpkuiCnpqrn60x4isQ3hKhAhfim1dkYQZPnHAEP4qrM9vMfvL9i/2VlfwZPv5PxY2cIkB6dIn9vfyjYeePvaq7AX++/CWNZuLzK/t7ogdAgtPLP3Z03dfKHyk02FR28ob/hh+qLnf71d+CUwbBmf3Rwnj3P9iz8rdBDP9HTzLZMspBTuFU/VduRjtJlKj0j95GBj909acck80Dht3Qf4YftE3K37KfK/+QzfRR3Gsr/9RXqGflX2qXuIgQp+OrvzkkpVxUPlqjec/IQRo3IrP2XxHSpLVO6oGQlP2E9VP43fFL/dP/1j/yNpZ/MNXB8g9DlUf86Vkh+Mrl9O5SYe3csTZ9jk+GITJWQKB88bIRMS/xBEohg+Z4TsjZrRvh6cQHBnEP6VK5aVzRq5sA5luw445UMPFg6Mic4csLzxq+8thGAhUxZ7SMhiBEgM6sB/DUUGz6ewwevf7Aj7PQ0YYTTeM4ZKvEbDOnU8QoYnG8Zuhk+KGXRVwDwZer26+1RUma4rr9wwT9pY3JJLHsRY7ium456/YCjLIyh6nsF78aNmIgEG+sDKoU3RMdkWl5ZUpKynn7FTzDR74bGEO1CnS9QrfRfukRgeJRddif+qBWEU/dVb9e/oEs+y2PNIKkQZCt4xueCSAsrVaiX/yPwNgPjcf6OrwoRRdNSUf7Gf668o9smaHnAFXhddBoobguQ19uLP+Z/7v9PlqR8tN+GIQYdV5RCYs1K3/lw2GaxNl6nHDVs54RfOuuPkA28UyNyKtn1LP7X2EG5ST5ouUf/6txZARcI4tPZtOt+51go/3r6j+0M/vRsWoK/MrgZ/1LWSBLfSNS349wz5+Pi68B6/BPPIutZ08yc/skuWxYOuvBtVYu/tNR0QnoKKwwI+nlGdyoVjqSC+Q4kHBIiyFOlqVGOcqz+EpElDLTjVvVOr4unyzmNfxoL3bwK91sL6MCQ3jBC3QSLTCxYqzSHKf3NPGiG3uSIOxHgjbuODkUF+LXGQNuGfl1KwmYhh/qeiAFZqdTAJw7k17Pyyma//zqTF6VhKT4X5k52/pCsAL41//hsJV0+624Q37hy46dJFphYpVshuOgeXzz19hDJimOG/abHwoy9aqnzxJTOcEmr0YGpYsNNfhJL/aU9gb7Z+UPecyJNmhshUbGKP8gDXxptJ+WGu3FIm+mF+GyP2YggyxoIi34hKSHaYZvtItJcEP5kxWMmf9VFj9kU1bkkdZ7r+F/L4lSw5NPSF3ZkqYIwv6Szb6OpM21P6yYEQ38iEGH/Bnp+EknvGjPRaL1vzD6PumWI/H8x4MgDELp2ObLvydZ6PP4GVXpB9LLLspNWkRV+y//J8meSW1DgP0VNUU1aksF6DHa/+h/yn6F6rfOuK78I5kJ22OMxE7zaaRTdGQIc7SiSyOSXdQPCKnU7lQfFCuduFNk3xAQjpZt917xl2IZnsOZTV3YJnbROLZTCFTpYKXxqTS6VN9opnH+69D1xLiOHxUJrwa/y5VeJi8Zgg9zd6betMMKBcm9JZFdWOpQc0yyGCubLYRQKJaQr7jVnAEZODgyY0NE88xdCIik+sZXkRD8CAFHvw+5+kmQNfzSrfy/uf3dZxYw9qtvvG1caalIa/jqrf/zPmYoOri0aaBSsJlMoQ77oxOJqSGdYJS/HtrM/oif+V9dSvCs/BPvWBysYe79bfR/6WMW+cGnUWJjosTzqlKvf1AVTc5pVf7qGFX095z93ZSwaKt0lYYuqiK9fyRW+VdYqnn7XbQxIx/os43DzH6E1X/6wc39L9MavrbFLhnJWiv/Uq3wS2fprH+z8u/45fS58p+zf5CUvti5zn5TBZUKX3BIB4NSaFNxXYRj4qFe/8LCbrhh4EfjMBJa1/47jFLCtGZ//KVdc/ZXgZcCaf9n6MQmRx8tRVMb9JqKDcESe2ZHcLLWT0rmaXiAfbawClDbsFb+Yawi5OeXvcKlN67SAQtRGS6f/OTpPtFfCV8RqbvzFTj4JdO9b11ajPP4Npc6cUlcm7Igyi9zF0muQrMzlr/3ffjDkRcp8MzbL4t51XlEwAzfyuAQXIyyn/wOn0M5ueNL43Yx/ytLQZ55hxPCUP7rcktCLEcSdNohm3KJCjnbOr75kvLPtoZviuPD5L2C/bDEBklrW8OPzh1/Y/lHGfIGvmWmx+fLX9Gvhn9R/1NY6/GRFYGl5Ub8jfZrheWHjbt5AABAAElEQVTviUdXXVj+KdWSSb7a2zHP1z/xhv8vsN9Kab51WRzfGifB2JQ7nK7n5TSJaa9U/+I/mKoFoedc/Q+49QUZo/wHXfWC5ARQ/kKf9/+a/dZ/ToYQjfqvX7IhIDIqBtKF7W+z+lemdV5EvabyX11hJHb0QJQVrxqezkrf2+Pj7OtprS5UooBh7mymI5MXnrXKg1tsyDU0mTlDDIfyVstycRWQripHEh+OIK0KmTMe1CJbc0ajs2lFsxQWYU5LKXy95x3XeLHk55ITeXp2FFg0SCHA51H55Ft+4/IgYVEAzaVCx7eotGFV+7mdmbkAz0QyBBdneIyyaglG9C38rlVSy8bC1/9jNLx2OarPFMxDyBnBKaMqpp7JYzDgxP/kpJNELxSOXnJK3y0jbMyNUC5ZifsPYfATWc8R/2eUhp6aBXfsFx+da5KXRPOUEwoxRjkXfmHLHVJohyeSNEtPy1DjqHFh+Q98PVvnLvTKaRm5niT6KH6g1glMXcjSjoE7o0VptmF/RjWdRmvX6p/2aZ2lafdU/vdNhpnJyXcNNPVQrnRV/tqVzoc0GVJHSZvs3MkHYm9jdZO728IVr+cr77e26fZ9fGuR5bL5s35NVs+26Wneoz2xv02f/SqLCdzPXPbjbYEH8ZS+1v60s9c/9eJfigSUpfbdr/XGh3HSS1XJkz+78wl95Cuj09Wcpy8i9vLv+PqvSrf2a+Wvx5Qcq3t4yDXNjCgVijGAGHrO6j/9iXpKaf0b5b9l+fjh3EpXTppLVzS3OiO9mp9j8QLDyAiyECzKck/3zIjFqZUGoIUntzVu1bUoJMMwmVOpSk55zzwyzO/4OfuDFEdrbJyV4oDGOLTWGVn5GanLCyMh7z5CBgVbNBZs18FjKJEQEJlGuFbPUPIsC+LYo08EjQ2RFjl6rK41yURXq9WYEE2HJ5Y6C1oCOr4VhX/StWcAxvMkXoBvQQrR5fVQMSMKDnZr+OnYtB+myDc/P2mVUhW1FNM/KqH9bhfBrxyzkaSUaFNiqwDLfjqZCS+gdldBX1XThDT4YIgPpo7RP13WOnx1J79qlKDaaFrhl6ZEhvrI0H8ZJdixcykTubZ6bRcq2O7Ej9cisxz+KvbrwgiYBYhiA6LUyS1FqZ79+R0t41H8NrmNl/7f+Kdbu+G76LB4t8j0Lqa0KAFdTMG0d7NQADyeqA79Tpv+1v/C0wVcTcXXc5Tid2GFryLaj/XdZwUmoLTyEu71LO0/aeW/SOvi6xJSLuuf1sBHniHLJlvsGLL1v+SFn4jFHP0GNvnaYBGoMIHSaeCDNcMXyz8+FnOOkdjCKVZUyBbUKGM0dkKksBJnGBo7IknZxnB0MMVZEU7KAETGKi3GPHt3L33KbCsTgqo1kdvxY0DHT96r4QtUYOvw1TM5nglL7U3xO+8MP2xolsIxAj7GzArZpI32R89+qUFmLNkMP3rUuEDqV7U/unX7O0aSNuInERujWsfvdqh37F9kSH8N6y/tvZYzOWfzo8/woCJPscob2u7/hDVx2Pwa8Dezv8uZ4aPcpv4PL2rotVmYmNEo9p9R/pbXRnziwafSaunM/2V84RsO34byJ7F0iVJRVY1fc/2XVnzsW7iCF/xv/WCb3v3n2uSyO+dsViu24BdEBau99OSiCR0LFFz7wdbu/EibvsTiAXwH4xXLX/zR/nDOOvsjXHwCHeiC8k9Gt78Tlf0y+NtQ/7sc/XZB+xv46Xg1hi307DSCLfipDxvKv6BCI/7K0nYuJ1cYpnIplLMbQlNc1iAbcS9wObJECpcfvtGfM415nS4aqJh+KHgZjFRlTJ6XkcQJu6UBF0PnMKV3l9LArvmpcsS7K1IQDjetQQVn161A+Un3PxmkmxY5kuDkQTPwVQSCWI3Dgh9eZczZbzhCvYQkbKkwPJjZL4+XlX1yc4Yf8ehunvjBIjFqwkTcbSM+2cm7wP/xAvK0HyXCrQwDAz+y3XXZHJQ33bq9Lbz+e1gu9S+1yfMP8HmfX2BNps9zZ5oHnbkkWVf+4lsnho+Jblr+0jm0GviBjDUKgKn7P8cN5S9f3zQhPmJ04ahMfYMfG83s5U+wrtqpSUO3gT/Kdmb6Jvhdn5n/xUmZIH+u/INP+sx+w/pz4Ot/y1/+JK5h2VttWv6kL9z54dbe+mf4jNT7kO2jxLXF/ug/fKe/NcT87DiKZh03ryebdQkrJbqUB9us/oUHnWJb+TNNRhrzYk9YigZ5r1r+1RVV+48wajQ6v2r5z/oW1Bz4HOsmkoHRRrXNerih/Lv5af/oubH8p9svY2KfW5TqonnUC/a9UXtMHJykSVIVL7MEDEul946g7HK5VVeQOhZ+PZ6VY1NIEEQLaXuBzEKmlMYpVHaeudzsUEq+nZwbDTjDYoKe4ioRJSgi+UjIOEd1U/nAi7M4Jlg0gy2ayKtoNkPpdlSzb+mwIpl8ZXb7vaFR9U3BwtWZI/jyK5TP2wdfWSGzAyq0ImEPvtaWh/UEOoa2mGIKwVwKaD+gqcwz+/EQIjf1v7Zxpp4e+CwvB3I5wtzL5INvbu22z7XpY/e2duDTjMyObCj/qCR4dFFPy1+t58s/N3RiSpXQDF+u7v9R/oluUv4Kda6qfKacqgmiKXqU/0jPwwJz/g+ReulDfheUf+bL0Ic8hEO+5n/YiJte/tfOwkGPIpekeKGM/Z7FZvjkzdqA9X6t/DVVhonlv2tPm37o77W243rK4mUW5H+xTfm1czwZsMy3LFZOt0kGFNAGB622sn7bjssZsd1BZ3U95cslqI3VNiWN+tlGVKoMI23go6J1RFoMUXPVyS6MRvrW+Uf7H37Xfjc5/bN2htSTC7JzUp6rfyHulJalbg8DOs3j1+Vo6WPZRmZICREfKeFK/sBXihtz3rZ/Y/hni7rFMYJ7NoIpxnhmh6Y+34Q25iUeHJmioP7Qm1GapJkDTNaBAM0m/0lTRqnCPs40ppAL8dVxI35Yus6qgLrBVwp2BY9DJA587Zv508xoQOBV8If9OWt0+2XpwhWTsDi/V/wwywfIvP0aFLXwv/LHg7rD/8m7iP3qe1H/05Bc8HK68o/a5AM/zGjgPbx1/BE6tHe0ye3fxdpln2jTb/9mm548/orlL/5G+1U4VrwSfrwOqzZpWPaUCgm2A4VurH+S5eYQjUD7Kw5ltz9i1OdV8Dcr/zVh6/3/avV/M/tH+W/0/5g6Cf65s23y2X9K46OTOsvKpHZeKxxXWKroPItcsp6fN8rs8LEUX1ArFll9donv1u1ktHXXH2UlU+bCtvDGuyaP3ZkTFDply9/G+j/wL9b+9Fv8nwK90P/a80rtb6P/xVczDxbLwL+Y/19L+58v/9QdVeanTH/TnZwUVn7yvdP2wnMFnVwV6VtRJ6JS0XEWGESDVqEq3yv0jFcGeNHA545KShfCwbpZIw6ZTQh57WYyyimvFT9CZryFb2HVdaBSLo6fJ9jldZvJmHHMAkNKEUq7Zv/vB/8P2v6UiXYM+/1A5mVXtclHf5RlsZlQ1v9OEZxzuYr9bfr1n2jt4U/RyBwRdD/Nh9aSSJ3bXsX+GtvWKEO5VvW491XKPxUVmAHb290ccA++Cv7M/jh4SKOkKMjXUv9mgJ01eo16YuZrwXd0ENouhMNrrv+7L20LH/951jdiVGblG9vv/E9tet/PMZr7/6s701hbr/K+r33uuROesI2vjWcDZjRDAiQUCDWEJIRIkLQRbaOqrapWaZVKUaV+aPsRVaiD1IpUnaIoSvqBql9Kg9SmaQUiaUopkBIIJEzFgLEx5trG3MHXvvee3d/v/6z17nfvs8/1Na6UZp2z97uG53n+z7DWetc7bt4YTL3jb97/8HJqttr/TPBL6ioQA39sL8f+LePffXVup9SodIghkG3KZWy3asy7RYTznvizv9Z291yOLU4Wg8tiqNGnE+mCCrRLGZ2UoFuXjyscl+asxGxgWxycwKRYi3ZqEBp9cuVJ3qKqSa1oQ/A0+Cq3Oq/VB0LQyQsffLcUxEzZfJmXWT3Fwi8a9xhFEPW6/eqoUO2XztsbssdNHW0Tlrn9+BEZKsUgB0Er/M6NXGrjq232VxzEhZ6RppySW/gwB9tt1Y912KCzhURHgbDwVeSxh/iJn19oi7f97bzid8eJ7Qjv+L/pB9uCT/vhr7f2iX/MW2U/yuuwzyMbngPir+32gVX8BZzjY7uxAHfYL4U0Y6ei7jlM7vH3pspYSENyluN/6GyoVlFi/6b/LVc/Kdoc/g/7xQqfbVSSt69eyv8oh/1lU/k5DPB58Fx/Vb/u/9H/gejxL18UH3UZ1PP+jzYEfev4O8W7fc4+xuvLxVaengH7NLddcIHGyXB1kmTd/+pfK0yIih0JZLSL7bDf/u/TN1vxt8RfPUxPF3+h1vu/mpPU6/vAL63h5xaUJRdH+Lm5I7qiX9ZMrGJwAi+QcDGAbVcmFbZkme8YsVuYnNTM6c6iT3XPpjPbhkVd/WyDgSetc0mqw8vB6cIZwDraQVy8tUf3Pi1l0g2CqRaoqhS+ZQi6AlM7ynN8ecStSEJavTG8pSOsiBPf4Cqq7hyCL/aXjkK52hBZirn91eHkV6L2S5HwhTocmmCbglTXbd84gRU+XBv4mdhCWfL8Fl38KYbwRGw6LeIp7/Gu//bhX2rL//73eN8/V7dynkNg0lV3tOWP/lJb/ByvK3/9e9ry+rva4hgvvUJIXFnWYQdxoG49/grQOr47noV4eYYvhf7qiOl/1q3sLwfke/I/FPhi7v95/Aul+Ib9Uvuf2mqa9b+qCE3vfzmM08hOm80cP+Kq/xl/8TVLuqeL/5A57396K+kwJ/qvuL7tXXcHWw4fEaheys0OzDtKGbSmjA9alqeJ22mOohKU4c+KPyqFvxi6OQojSV6y0+mKzg5mW+//U+xszQ60jFy5BpzZ+FdijaVIoaQsv9nCFDso+zfs71qlboy/ij9UnTZa4f/sSK2LrY4y3qJx3U345DjnxPyRCkGYhiXoi6Wap6Jk7W1Kq1Iq4NJaRJ4n+aIwFdkDqnxvyx4imGpStDkPRN6OZgAktc6MclS85gcqdCpJ2tx1mEa/ypDCr87vuavCFwf6kHQ9dQDL+TohHiEMGAhihKphJ8GyLq0GTt16cHV8sGIb4VKedovBNquHCR9a/xP8ZCGRkDy0/ol7USzlUsyjMOIp3wR58Lv9kgU/JyzVUN3FF6j8P+yfJgJl0E/VMfiwSR7/I+HiHudjfv8/8iomHqL9gb/OSuy1bY/7lZTu1NSe+5LW3vwP2uJV/CTcfb/F1UzedvLoF/kNAH527gI7kA18bdoXf/2EtHyLT34z/qJN/Q/6jKPu/9xbBfeIP5BSQ89E3X2SQUG9dVn1StPb1uyPL+QtAn/7If6PxOr/Tv+B6PgZ1LRvi//Ajx8E3GI/AHCrjsGQZIWfPnOEl4hd90JWwK/kl6/e2NqJV7blo19ojff7LR7n5L/OkO8YcTl8FXJKHhHn1gricupBlFvFf9gfuln8PdGZOm1XBzb5+bd0LBW0XlH6kLKBsuPoQDmFnWhViQp4Nvuf+NocUtl7fvS/ffZLGLzC3+z/uequMuJHHlsYEutbXsfbfnd5HfrVtwKIohiprO7z8GhNlLVSIwOmkErqq+zMktmGOjIkne/VlKSMrJXIKtLxGI8pO4UMHSpLbtpAiPzQ0IAh0WO1iTBdnQC6Re7AL/0t6/AVPmRdVuk1nCzflLQfJ2di3cDP3mUQA2j2QHzb4Jeq1opdv9gCp7PO8H8H1zXaX/rbKaSham6/oKaOL31cOrM/vSmstCFD/GGKC6lcOf3KxxkMvNv/FT/TFi97T1scfW7kFD401zDIXvMLHHo+1pYPfIJfafpsa9wxvnj4D3mPNSeni3qr/WhOu6qv41udOKUTbdhPm1z2n5qYrCj7E3/b+MiadCn/90EST87iL6tjNEKQbfytGyJL/sr/c3xV2Yx/6VHcsUv56t/tN5erhRiw4JXTi2tubEsP3W9+dR3G3/BynMQvMCmIlfDeiX/DzoLDx/IEO5RbOOT3J/CgCBHKP3Yfv8HwHcrb+5/3Nxp/N/JpYfpfyulyNFRc6sWmXbTuVo+hvwYN3Ev0v9H/Zc7UJzCF4GsJMiZ8WurqJXW9/wspn2ngG6TN8a9UWQ7d/c52iMl9t13zAi30v5zuoOUvnS7ilAiQ7agQ2oAIQ9k2BqB9xZp8iUKmU2Q7JjTNMKlE5SiU8NRbd0l8B7I01QPJIJEOqG5iZPccwdEm2O4xczgWqjTKtoY/VMhKQscpLxoJRonCmv3wZ3zM8UOvfDmLO3arANVqqV9Nm/YPfFsHXY0xamB3jh/48uuj3Okufu1TrY6eBdHxpZXXwyUyUptya0yWEhJwdeuhL/NizH/NltXW6/9mW1zPymBK8Eh75Nq2uOsn+PHGtzDp3d8Wj32ttQc+ye9gfoRHYO7P/WbqKkRFvwRYtRl//T+lYfxUUX7SfpOdf25/BkuPf9qMPysGcdRT2Yke/SG2D53EjL8gC40MJPCHCiFB0oH93/6n0MlQPDr6n6KCrJ+jTb51XRb0x4+3xS349fZ7eczoFewc7mqLK26KjghRk0oPfbztfPvrXQJV6nwDK7RdrlQOsidOshP5ArdpcNUTygmx21r61XfUzQCoRr9zW0iPv5PEZdsvrfzRjpy6zewXq0wRpePLISmN+scU/1c2VGv41Ot/V78hEQNxKQ3851zB5P/6AOw2fucwdxKnU7DExFh0KhUjQRfx6T8uagMySV0wQjPkqStX2pT5VgrqakIwUl6J0G+y+xlmKj9BpuIivBFPuwQOVA5cOu/o3DYgjHr/OLGH+LrM7KKSKv6RE2+uJiTx7fQhkIh2HSutv0Bsfe29yPdyznNIk4laHmVAGi2tl6umJmXF20oCJ4HA/jJOGxlsRE/RhaYchSHEKJG0Ygpg6Jii2Hq52qBmkoVHnaMI9Wv4OLL0EMFPKIsjMwH4QNX5nPK1e8Q8xPsE75b74kd4nOULnAv7ubZ46V/knMOxxMxnNKOhNh46lhOqjfuXlrdy4+Zr/jKHPl9ry6/+5+a9aIvHWNWNVzx0fHV1Z6fDuqSSx7cRyi9AQ5PBJRCfWECc8Vr8HPuptzziL6HPgBp/HZvnZ5HTex1t0uqT8qFbBUcH6/0jVuKbD19oyndSZhJC9+AXJ9W9o+l/bQo5efFIhY/Mw7TddDe3sbyjLe54a1se55lIL6LsHo1OiZXx1/a98/yeIuchP/6r7CR4Wamq2v/x/c7N/GL8kStSlz6Lv9tDnyqNo4uDtuzXDvtUVOn6WJdbHqShdWv8ach9Z8wF5S8IoXbBXmNHxvyrmI0U7V/2X/Aj2U35rMafuvgBN7qU30oHScvn1poy/yRI1W/H+K+FEjYgygnw/G0/xJNbPHMKz257zvXt0JVXcpKQqx8k56rSBcro2YXBmRygcQNtClCoZOJG6RjXu5AiHOUhgD/Kreitd1AqKI63rFDp02h93QSpj3ICn4zDwH87n6RqZqtpzaE22sFsUn/wi1JmymwcnFZWMMiPWTbClIwtVGfJGzTLVsiTr7RP9ncaK5U/2a/nE+ywxl+SruwPYLcfyRPGsL8mN4fHsN/B7GGCpHP86iyCI9P2bn9ZKWbVRz/y/qbmZD/nuvJ+uQ9zT9M3+DHlN/3dtnPNi0uOfH74ysbtkatYofG56ta2uPXNbfFm+B9hNfelD3IjLbdqPPIoVDoYjpn/1Vch2pkXGGoL+Wks7LNf76HoRvxLm4qq+eiWwaJw/jf6n2roDvtO8uJYFt+/rlcq01Y7DuMfv+v/oVtsAgMRk//lP8zV3pu5FeIlP9V27no3N6o+n8qOA2FiO+zv9e3sQ23xyfe39pnf4N4xrwhDr1zxvCWG0z51l78xp50XmS5PPqDGkZBTQoGwrHBSDKXs1v6PccN+M+aFWYv/6P802K4G2p24iDQf/8BIUvYbm17ImJFWdnjd2v9RRM2UtxZ/yfhT8yn+MiNyNf7hsQ4C6ZYvfBdcBbHbDh9nr3obV6g+H1HiCZylXB/giso/u2uDbJtK1WCxDJ4OitVFGwfmBpCqVwX/lZ9zTOasGjzikoqu40tcHira7qdMRnN8wHwh4iQLuVvxkT6d44omoDlpq0jS6GAzfOrjE7altzprk6EIc9mvwydZcMh0ufZLGxUSJgqsPrx3awDHUZDssx9S2tb8L496QBv8rtfl+b/jG3/uE1t84Xd5zvKvtMXr/lprd/5EW159M2YpGFT0HfqpeuRrtLdrPO+1/IYZN9H+qfdyXoeTz/d/tA47v/NNfoL+cQ47+TFgf1uTWwNcmXbjs43Jo/9ZuJz4o8Bl9T/0+37iH/3AWPO/8d/FVsbPHpP4zpWcdL+RFdetnJy/5S3coHpjmeW4EBdTTJkAjSd2pe7J73J+kfOM/+v9bfngFzO+HOxr8b/hVbzZ4ja5StKZb7flH36QOM/63xh/Cr1U/MHNjll0bVobf7P4E+Ba1aq1hPz38b9v/NG25n9lq8el+r8za8aRhAjItxOmmfXxl3bxaZR679qb2gV3rD3ttqP8VpTH2/d/DoIalk5OBtuyNtphyTIJltPC64yoQwo/zuhkEMqPLLcyFnvpou5OQEyQdV4r5JkgBIm4NfyugGI0eshyyk4Hl7+uKRWSBPvxqbU69tRewZqglQ02dl0zWU1GBzZQdS6kc2WX0WUqqXeGkoJu8fhKZlefaEPswOW/urfM+r32eHo4/h+WStfF7MN3INBms/gDTf2936f8L6Bx6HKG/60IR23GjkUZJVQfQvHd77TlR/5hW9z+W23xSg4vn/+atryCi0GSRWpXMH0h3PGVrbpk8Vw62zUM7ldy9fMcA/axz7c9LggsvLH2cW4POPMI53Ueoe1x7mTnznVm5HX/20/QZTKgaz3rfzbVSXOVp33NflvVhqTsLfaXf8sinR29J6cjj6aFqyseA2rHrskhobdBLK5lorr+7oyfpp0cZquo/TrqEtWxfhNepynb+C8unGIl9QetffFDPMf6obZ80nNbs/HXPdyOHuHcD5MY585KEeR/47fb8lufZ+LoMt1EMBkT9k/jj3rJ/BQ+9ok/KqyO6d1+6cJvnwFrYLDNDkBfhKbGX/pIZEBrPanmj9H/Qh2e4Az/u+Uv4mf4o/93pRgvEDLvqEfwMfrCnT/K1VoOyXvi+iSHAje8gmdIOUb3EQgE1zNXEQ9/Da4yJpK0UU2j9Ii14MCVnwGSryYqkQwO5VisDPtTmbCqcqnZ/3S88lXBH/NVK/IGqhxEvqKgJ6otKHxZdoLchm+nUpD4kEpbtqh7P/dCB4xrkS9E5MBgrfjuccIjv3LiC+iwR/sHvg05j2Q7hJ7XG/ZHbkjBUF++xNd6BbivmA4nlAP/sH/gD/v3+V+F1vyvzBX+3H7tjC3YsYYfP9sJ0UZ89Nm7739zrozfYriLQ8YX/Rivj3kTq40TsRuAxDPxjwWp6PEvfL8bVz3bTW/iHNGbYmnzGcLvcYGA+50WZx7mkafHOCJglXGWc2p+fLbwLM/2MsBdmWSgonD5DJ+IVeKTF1/zh/31rjXK3f5ptWDcqJV32O9kYxyWvi7oKPfEHWPn/pzr2N7Qdq66mYn7BiYSyleeoHx7VkbeoxR8ZCkv8WdbHccNOkKQrfVqyfOR7eRnOdT+cNv78m/yMD5vE9n0P8KmQ9Yrb2o7J15On+YJQeNy5sHWfu9Xs8qxT8Twbk/wccC8/9tunNO3ynG6I2zWJ8Mm9vdax7/48jiOD8kvBnqpa/GYKX9bN+zXH6UX0h2HlJXu+OmBs5j+cin8Mf6XjH/x0xcVzL10y5vfwCqYE/s97Tbus1hce0dbskRrJ79Bte+B7EYD7Ev/BM0qwK2hMtgKUC/qqt0NhXFSLR5VTesgjGUZjuSLMax8RRbbdCjkF5W1fDq+PPgEaYUvbxit67xieQGitkVgvlaucnTJyMokQU30V5TN1m/g5+0KKKZuwen40bnXwVS6mJnhl5eQiMoZgDN8hemigS9r7EeRcSe4QsUv+Z6LMVv221ZuxL7Bq7x+UtEVR/jh2LS/M0asvNpS9suzHv+Bn/g/ea4tPPH/wKdZkb2S18DwPN8LfpJDqjrhLLc9J98z/AClETBTKZ5bOdoNTGwcCZjypoynTrVDTG7LJ5ngyC9YnS3Pn+UwlHNrZ1m58Tr1TG5PMuHxDOLCZxAvsopxcuB8nueLnMmEqBUd9jsxeZjLRLDjXd6umI6i85Er63YSnlrx3PDi2Ik8ULzDCfTlESYyT6Q78XIv5eIQD2NzAWEtjfiruw2azheIGbT6oqJcflk+ygr0j/5DW37tf7Ii/VrbOc+5LQe6XApQHv6f+j91ixtY4d34aurJ8xbT9nFWxSfvp0CNjNL4Ce96/6/DRuQRC/tfJsEwyaeWxZsddO/jI/7jfrm89FNCHLre/6wrfgXVuXEzTmfqkW9y/HV8ZWutE/scXzNoqP4/tx/aGn+2xcC2d8sbuCGY+xdn9u+e5T6f5ZGb2Em+tB06yR3Auj+jCalokiWcZfLZUymYJg3Q8dRaEyXkVWmVkiR5ibXLWrLyFI0FeLPBQdR284NTxM8OX1SVzQ15l4EfO6Dbbj9XwPBDrEVnxXm4Zrd+OvsHfuSiz0H26wVPXOaetThrbj92aItowecr/6mZ8mY2/Z/zK/FF+d9sGDb8H/yni7+HSqeZSL7yO23vm59uO3/wgdZe9Z7WXvhnOJw6XHLn3+iY1aw6R3G2G2msVpgpmFw4TOCzuEoGUoxhcnJiYrLyCt5iyRFDfmKQerb2o/o4iUHHB0/21P0htqOZkVg7gt3kXeFwrAg0h22HjpI3BhWjCFC0h67p6UOmETcekE7epm2MG7J17qvbwA3Cy8/8cmv3/R6rTG6NeAo75FRvsEpfJan1bPwdvYpbMn6QyRSfALb8o19vy8/91x7/VEWrg/qf2kU+voOabJXjK9v0lSrSXOMvWlHn1na+Q6MT9o//Z9r/u8jIjs4d/0D7N+afdvX1bedFb2nHruccPhqfOXeWyXPJs5OefGPJvHfiRe2Qx9o+KxejoXPQxkiMYdvtTawyqzP91vF17Xm66TFez6ADm3io15XDMqcRrFqyxl3lOBoiA5ZKBrQ78yB8DYUYyuKVcYqMvM8AH77gb9jvFa5t9o893EH4NRk5cEon6Vwl5DaOLfYDjrp2HAlJM/9nUHioiyK2T/6/hP3D/+7tlZ0kb/fYpv+Db3fesF9/7rMfmpyk/wbnUvnsPe9fcAHgr3KoyWR2mEFnisFsxJ+lcSg8ansPCMNa/CXgw/XL+HDR35s1RA1+y8O8sMwLJWKwZDtvjgwr4nTj37NSRpgbA1jFZNIwyqVFySxLIoRYtUd/n4ez/xVXaj/GPQFcyLAvki4Z/7n/XSFya0aMf+CjbfGxX+mnVxQFluPvEvHP0knMblvAKR4Uf081xP+XE39ot/b/2JgO/4zHv35zIt/a/9z5eGPwnW/FHex4SL7x4yJ67Gbo20Nv+eHWvvzfWvvOl2riUOKUMC7OgBHavEcoI0lQg9n3VNAgMx3elthju5OT9eRLKq5ij+cJ0Dr/JpAEtjodjW5tuRA28SW3Lnv5fgglqTjKCZasFsF3r4F7urROB3+uwgpNay2/y4bCtb54BqPH5tpPdeGTz3k6+dVH4IEvEYxr+FZho07atD9NaStdpKw093/hZ28JmDKywotCUCs3Kwf1U02kZuIs+62Z49elef01MGuiHPbvw++UwdTf3f528ltt+V/ex2mJX2mLl76Tyezdbcn5oxyO8QJ0J1TDy38y4hG89Jyym+8ojA+jI3SRrY3m5fODRaErn1R1b2QT/3dSa+UTd48+koebrbOiYzheL4UvuRTVD4xv9f+Kn7raWhovn+RkvVcbH/50W3z+A6xUOXHvokB8vmqnobxLxZ+zp2Ak3cqhpFc5v/k7bfnRf5LnJAf+Pv9rRZTZEv/g77ErMMYmxmsff5vx15byoTalBD3b+Fz/lv0H4csrl8okbnJvjL8KijLpa6NjwFUGrPe/0oGWKzncf/m7WaVzaA9lEjBGYHHq1PfILtphJrejv/veulLiEp26mIDSGuDL3px6h2IK8apgbo4LNQLVfejSkdzAmWo2CWhCno5kTTHlO5roRLk28KWLLvJUGlCWki9RAJLpe/8JX+XgF3YNX7sMqDKKJPYqUTXUZQ+aQ50/vAVfmPN8hFAxtsrks2Y/usVnB9kvZmRusT+ilVjJXNF2HHTMIcOl8GmLPpOYIs43X7E54rfg05gYb+J33LQNpY5zaHb767jB8+2s0njTwNW3c26Jk+O82K+L71LW8eOw3jI2RTFKz3y7xm/BdID9q/oi83uNf1VNAy0Xvtfa4/fns/wmK66vf5SFwEOR7wBzTeIufsDt639dejD4WvmfXe49b2/LW97Ioei/azsP8Twl6Vn1P+MExmX1v6FLYq4dVVGnRlCE+hFq/ZAT8ZBMld1gN2v9X3yJnq7/CwelPwCt2J1X/3Rrb30flb3/UHfmNC+TVNSpU6cy8R4+fKQdOfmJtvefeGHeKY7bIRqpZmGURporEduGCcaxHG+tcCRpyFoykO51M+E5sXSS0JmXVrqeT7sVPdkJxM/ENqOXS9n+b8OPHHn5E9+9vhPb8J2iBm+yXXb4hk40lG4TSDkt9WmZ9B7+iKxqCi/TfPBzGwj4WTRKRBq+KwwqOl+2to+qQUhF7elo6MTxs3yjvMqGf9g/8If9IZvLm8AKY4hRdO4LtNNCM4//8H/pW8rPVCl83u2/4KLRwgebb3x5W1z3Iu4jexlXmXgWsBsaTvETbJFXqdporCDvt9/6ntb0UR7JTcWG+Hu+Kx0tTfmqSR/Ojl+01W6/G/i5wAFN4ulq6zEmlUe+zMUw7oP79mfY3lcvOyzAAkbM8L/9bzyNMDQeYS0MaJOBiW2y3IeWE9tPeddA34HYkJSa4ISvKNIyyakS39X/B36q+Rp9J1hzvTuGm2qjsft/xL+3lJ2hD2VEJyTKI837/8CfoHqmMCAmM3QKc1Vx4eeOtngX5xR5hnfV/1mYMomZFt/LJLZoR44cbkec5D78d9ryszw+Yvgn5SobvaymPrNrz6deaT1T7rUDlFY1jIdBklVNHQqFSu6AuPQMLrKmw6RVlVRpHmQZlCgUmVgYvUMlXcen3kM+1dOkkcs5gAgoWvFyyEHvCo3E4bAb1Hm/UaMF9vweW0pgr45NJEudUZF2aDbHl9/JOTBd8LC/dhy9MrICF3WkH/bP9dLAFVLlEyvru/2hz+qz9A/+cAxV3R2oFmEdWVkmrOg2D3zrJQ2B21mKZd1+56c9lvs7V51oe1fdxmR2O53zbiY2rrxdy6SWe6z249dhT7ytedhReq/hzzCT7XrM8fV/BUufk3c09E1FwPb9+Kn0YsLpb7Tlw5zjepjbTB65n+dMWX3xBokFJ5frwkX5Zq7KJn5cGliwBKNiX/xtIsX/ZrTXDZ/elPxW+6nMiqhTip/4h99+2PvxlviHD7/UITe09OVx5RS2YPqtFN03JrPopeCZguKGzsoe/6oZZJ0hDpntuYpcuMn+hc+bvvOftnbnj6d+fCnBlZiwi1OnOZwkoEd4JcgRVmPtu1xJ+cDPcBmbwCF/GpcBVCfVkZPPUN7yLGXAdLp0Xtokn5jsQNEdAaND2RzB1kU1Np6zGrxF4KpqGmBz+tFDRNFx3y9+7BKU4X45+GWYyun56B58OpQd9JL258YbjZCKNLcHj63wbYhifG/YP8ePEFVg/8e5hiF5dPghIwP4IP8PeTBvjf82/JnvVeGy/O/No9xn1Y75+uVrWZ3dntVau5Grcde+lIsD9bDzsLxM66VRObbd7tWmGkbz2E7taxWzwsjyvvv2vftYXX267X3rMzxo/VUmrMc4v8XzjE95ywcn6SscfQujffZy4u8EYryfzv9r8R+aO5lfIv5zfPs/Zc/DreLf5WyOvxCoP+0HxT+sHd9+O46qBv2kopMfoiB52v4ffQFVH9McX/vpIss3/2Jb/MDPg+cKqxP0zelTrMRgZSV2OsPdCeyIdwcr81O81fO3f5lTYE5YzqvUzWZvZ+HEgPpx8yRZaKGWH8cZ0yTLuLHoyrHVpmwba7IwG6ExXjklY8IPwSQSnTL3th2ejvbc4Dx5+FO6l5x4VM+SxkpiRCtmdWPyOpKxi0Ef9RR/te6JCKxBvrL4+A7yWjFWm9+1hJY/AqiR0nzf6qRerqtMNoGkUE9HTh0kCF2D1ZmV4uYb+T7Tt4lfstSbBFldsCj7U2aSq+lVXOObXjz5P6qx9xjxj/0BLZmb+Dk9jy6JfyClw55u/4i/fTU7wU384Q/tVpWj3KpxLfdsnXhxWzzvFUxw3EfGiwrace5l5H6vxDeq5AuG9eSOT1GrVBrvK+NzT8Qvvsuh4Ukeu3vkc6y0vsT2QV4xxD1x8Zx9qPyjX+MbBMWbw/8qPdkvV4rlD42umsDP+99a/1dpBu20xAmUfXystVcGRb4yxfcOE5Qp3xdN2skGq1sx4i3buGVEhQ6Kv6uHWonZP0q+9KaBr2k7/I6n8VWXkWyXasR/xtHngZIQKvsf8c/Kz7cQlKurfM+PtcW972NHx05ulgb+6TNnap44c+YMaOwU83IxbnwF3Ptx2q+9hWUax/4jKdxJLT3EIHrCG3FawhO8mbwgqStHtqKPA3MEN8h1SJYOAF8NLij7oFV27qrOaBbQJHXhOFi93cEgiOBd8DtOOs7Y7B1WWKJ315FVTZPtTjC5mTcdsssFIoOLugqJjpVf1/SazJTWVHIPdzH0tHuDq6JsVEe1o2A5bFbzJ7d1eWOEfos2tHT7bYxXkB1++fBFOkmfXNMZg+FN2+irH+f+h0clY6vykFUDp/CjiUqI1CcT9Yr+1JYq0jrRmYqv3vlEDTHSJtvUNp2OE30r2uqFnvtLLQ2T/BCVJ+w3++IffdUNACaO0rLjG4dj3M91/CquVF3bdvjxjOXx53LDKrchHOPmVO/gZmXnQ9Le+yXU8qI3vtKXuSF2wY2zjRtol9w0285yn9sZtjwhsDzH+Sb9IRhctYqFe+gtLrqkH+h3+x9GJ/7kamcb5q5viYo/rY6vYjgNiWR8HPv1v/1Apzuu1CC42JyJ0zIC7Cez+I+rzxmK8jv5IVsz5Dfp5dVTMzZQKUTvW6lQydFA1lJUYauwktUFihMZfqE3m+xv9Qd2yJ3Ihq/6f3oChIl/KPgqquiK8SlFmP0KBXKzNifvl7fd09q97+WFkZxqUM9uv36j06fq7Dl3NPwxcaTmKX5o4CluwqMOhr12+OPvbYc/+xsUNU21E49esqaMqa0ioNRBMaYwa1KSDgVtiygooi31/qP8uN8lxlJXe4eV6SVBzHmy1s5VrfIkQAfge2/OGFh22pQjAqVoyKVeeamLrMjpsmewVaPqWloDNgGc2S+56mi/k4iU2s+G5JaM9YMmijk4rO/MIe68VhVnNSe/wjcnoBhKMRnzTf/bFIkb/i/HFH50QlZ0ntAK3+FU0kWQZqw598d/br9cw/5NfAfviH+kd/sHfm3Fq5RmsqVh+V+auf3qOMePDP0d5XVMxV9bc0/SFv8/E3z1Hv2/R/FAfCiDn/GgMVvsj6x4WoLyuN+W/JgiZ9b/AtjjP7ffyVbqg/y/ab/kB/X/khR4viyt+v/A12+h4yuPLM7wh/83x/+8//lKjcWJu9tTP/SL7fyNb5wMHvYPdBuuvJJnWdm6oBmw1Y5eDryLd76DPR3nJUJWE5i0KpgPHUFm/zIarYy/6SBs7Rc6sKqcmSGrQsgNdvaA8HmvWLSwHfwaiDqjHGJrPnxN+Y5vzdQhuvw5Pqzg8OhFx49GCAlGBvMqaFG245fmEQjtCj/y/LqE/Yod9kdf8LU9OmjTDN/81GnUcYZfOqhrfaQ1ZTPDTwe1En4nwm32D3wpBv7w/xx/m/8HvsDC5AN+Rd/K3gC+8sVPvKmvqpX9URLyEX9ZxZcyPLP4hxaJT+f/TfsP8r/yBz7PX4CnooVv/Sb+3P+QxUwlmD8o/vp/4DuOTLlZWuyOb/XA32Z/fKE++eyPf8lcH3+BQv4cvyawFb79L3aCP/y/af+If9kehsn/0mpRPhg5H/8DX/kj/pv4w//SbsVH8uL6O9viDX+r3gYi0MBLplekVt2qbP/oWTOoTr3Ny2tf3Pbu/BGW5uxvc0ijU22k1SWu687QlqGWFxxWSZVzKV2WCnuuyeTqIFuo0vEoRJxE5pERfIt5To1MxxcraeBTZm5QEk0UJM0sQck2idn68UZDy77N1Irq9NJ1Qja2iBV7pQZfycF3m/9QlWxlWfSjcMq+9FDf6J41/K6XLze0QXw/Fi1HD3XxGT82fhQcPZHrerMYrU+ucLsOaeXLQyHBrS4MiMlrv0652KOdji4e/37Vhu88Y2i81d72irOr1snP8T/NgOj/Sa+Qi9/jb4t1fNbjr11Is8FUqlU2Mm236Bcf6nxRZilJ1Yi/RkrPXyyQxOf29D95LYgjzEfPHn8agq/0QQhNmDjOTx8Mt3qULvG/8uUFf5KtDr1erOH/efyFGP5P/w9+yVbFmCORCf9ziin2p+91+/Mj0pIEuNpXMwuUkam5Pf76RZny8Jnw1ZcKLZjaQ2Q1bd3+/fHXgd3PKmzqtqfeKkh29D/y6lwqLfE7WG6Rr23aMOFTlN44KGL5PG7s9QeG73w7unCfobqpv1/iix38qqcyKTCj4AlMyeVcHnluu3Dn27ifh/MOCPCxVM3w5rMI5Hv1tgvqor8dqBRSqxzvwxeZ1Hvux3YfMU6l5ThWSOtBYJvGRFcZQZ1kTfjQjUeepDDyNTDITzKUVZ1auVbnk9EVlgSDljSUhWaxR1yrp612FUZkdfvZQFT2l26psHIAmEsyuPHBwNf2Yb8c+l/QcESrFT52iKONZQudQp+Tsk9UZmIjLPm5/xVJcs9oUx7jsa4KtbXY428kpFJI+R9e/mJ/MEq3Ok+jQP3Vt/DZIeXfHn9kLVfxL/vl7fHvvOG3Gv9HG+Wrw7z/OWbhU68VvtDS8ol/5NYZ3XZjID7bEqkt0kOSvmam7Lc2OTJ1uEgJ/Cn+w/89/sP/UCskPEqIOsoCM30gvrICGj5J6of/a7SokaDixusla8Q/rcQ/crQDLvKj/8X/fpWBE7565DPGXxVijzoM+/fHXx1m8VdX6Of4zJTRQ4Ap/s7aWYz0Gvm0eeBru4JMz3t+23nHP2uL2/40fuHCjss5Izvsh9B+7U4m9X6X2MSIYqVyF3npCNbF57+hXbiLKwRcEaoJYnQoxUANnYI0L5IKt4Qpw490RbFCdU8MrTuOefKwQhHhUzZZuf3748RXpT9O/Gdrf/TPV7yLf/9k+f/Z2v8nvf/9v7bfE/H/P42/5a0vazs//W95W8frGGdepSA5/jMHYH0mRicT5h/nDXMYkPmHvDuapOreuit9vCq5V+fCS97Vzp/gMre7NYhqOQ1dELxKk+nMS2UzOeb9qIUDhhVGmpmMkndqkk8yvv2XTg6VcxZ2axu1dRXUa8mdjm3t5TFqA1+RLNHCF3yYtuJDkx2VGF2urLF/4FsRfrfIpD56iu/EjAwXBlEzkDSYBv4oUo79wanVrnvdNIdZvxRx7DdLebI/CmK/+NVU9ouv/VbqfzOJbLffepPVWiYJdgSD3Giueol6/Cf7pfD5Vhm3+L/jS657ShG2kSyPedWe2R+w7fGXdu7/ksdP28XAlf/F0//6eS3+3X7jUuCX6n8b8Q+49vf+py6xu9vvtTj9T11g5vjd/sRw5n/pTOl/3f/xhRh81LJsvET8saXoNvDn40+cefzlKNNFWMM36jURkIuuMNd/aNM35vEXP37YiH8ANvpfJARRVD6X8j/4vGRycQ+v8P7Jf9mW/GiK9HBMqeaMOseWDqaeESmdU5d+5KL0ANOe5KHKfUdKIL933T3t4qv/fDv0BC+pe/xbRY6TVFERBaTTdE+p4TaezzGydbSl0VwtmItAwlBLRBa5wSff8aXwPpJIGb1CrBhTbFnSWQdZuYFGI9+XehM+S1GvQsbU4Cq34ycHk/jkC9+t/0UjZpJY+XNJ3/mDD7o0EgafNv7r5k/qacwhcEmRsH8kttTxkTXZ3/mjRfCtGJzd/51+nCAPgSLtrST19xYURnz8K/m6/0vgMjcdQTNwktEmGMinX8hL2c0q/it/hHWIL6CyP/ogg231NStMUabnqPOwJLvWjkmLE5Wp9LLCjg0mgtKUc0HqYFnawtkaf07MlI7QhdmtwpUPvnZSjH+i6EzmMA6+/Ikf2pKl/6sTstU86SLeLRXQG3+bSr7kolXN1viD4A5PJef2y5V4m9GOYHVd1Tt7FmiKcxV/1aAuvolcKSpVfLv9ygylNirfb7apLrvm8TcmxRHpZdK28e/4Uz8fRbvnZ1u75y/kmdrONRQGT2mmsY7ueg18WoLPlu7S2eNMeUqVKtq2bOfv+PH21Ot+nh8ruH4it8UfeKhECcXS97opEUu7dK49asXgFGZAZOzLxo4/Ol8vFokFFKkQK4nUN2b7GKVK5BV+3DkjF78mEu8RK/yaTCUqwnKRdFXWfsOnXoVf1nXytAU/PpDSs0Yk6Pfh0/typZa2OvkKhecxpPc7MvwibyVZ8UchO8ZObe1I4kcG8l2Zlhdk7w1s1GrNfuPLR/srRQJZ6pUzw9cq69fwO7mb4X+18K8kKpvuBcGg8dzJFP/sWMTagi+HTDbzKbk1HjNBWGO7Wz6HKjDky/J8xzaYZ3Tr9sM0sz82hlxQmDpf8PUHmWcUf62XeQPfUy7WJ/7m1RmyiTCFdfzoRn3hl8ARHznn8Vf3sl/frfD3x7/sn8Zfd2iXPtSO/0ti4dcOcqXfwHcbGzp+GYXmJTDy5v7fOcppqrvvbe3ev98Wr/0b9VKAyIgzJndoQhXAR5YTVlLfpHWwnDt3DptRl7205yd1nAqMPaZ0CtjhjZkXvvKb7dD/+Eft0OPcLOhgiJC+DRPEgijIww8TssuiUiMs1oe+SvE5Zd0VfNmozLGwukCW8260GtAcShrBsPu1mqUVa7l2BWzm+GKUdySadFjDz0nS6nB1LG6Hw35FAjXhOwdnb9f18LjS8qXwS8SESzGpLJjZr56unGJMx4+xB9gfAQC7VVG3veuvPNf9r8y5D6CM/egf/8OrCfG/dXSE2K9QzlfUoSEUYwaTWbzIdetnI/455ja2Rcom9MGwTtHavBH/yIQp+H01Ev87XLNqUlDAzcyyIklJeibxp0+n/6HQ1P+QH/yufKQiM6duvt/4l2bTd6Gqfu//2ozsqf/hT98iI12s1aZ5/5/7f0v8C0hu3aFwGVYp/k+sealk/iSB/uniHzF8zfEF2Yy/mFz5XNz44rZ8xc+2i3e8rV08xpXInjJBqtbMfuN2yKvl0Kh5LX7q26lH+y/6y1y2+hYLZfnIUZ6dtGCKYpWt72U7fYpXBz/4sXb4U+/nxz2/Ej/6niYNT9JwGDlStpvR4SnbOQlAvdoXofxnVRTKGW8J4DteYKLyvUpKGcnOZKvtvWMprpOkRtm0VlewkVLIbZDQOrLZE1NMo9uRaOx17oELX8nqadI6afzYscjNVDTwFsXX/Vk9wLhuvz5RQkks2XPp5iUgQLMrOzUoB1hx5b1umV1hIW3iZ05d8z9DMD5xKA5Z4eRreNYyeQdN91mhVb3f6qKl2j+Pf+Gv4o87YkrtEZ31dZh1hb9f7mAofG/t0BuDrlpXNev4JdtWu3asm+IP3vAlZKP/QbaR1vEPsl8LV/EfPOi5L/6QrflfHVfx1y5TWel2WLot/kW98ggaKK7HP62Uq//1LeUx/tRD31wq/jRGGzXZ3/9Gm0Iq/hkjAA79Za/xb/+HKrYi62qeqnjVn2uLF/1UfjDY5yBPnzmroFWCbFoXIeXo4cPtsI9BTmmOX346y7OTjj/OiakCjk2PW5lB5WRSZajwubWb39SevPfmdvjT/7wd5hXFvtfccwkeHNl5lIa/ElDl+l8IhZHwRx+IaBQ2A958MUYX86rqdLjcYw9hm/8wlHNKv9FjhwNWw0NySnRkkS4yKHNIh8wIchNPs6UuaMGkldFv//eUqi+S816G7JXUB75MDlSrn/ieS8h78auYxZA07jfGMjwTWZDGV/G5qtQ0B3psxr5SS418jxmNo00crUK4PEDkhG7wy1qW3shDhm3lV+1HFjICM31BgLx0N+gzsJm08viW/MoXT4emHRkopm9iP22mOo1W8bcmOxB4jVEWBSHr+PEvFbE5iiTPlxpG92ANfOqyO9T/GozAxCb6CE5dZiz4EVv9j2qahF3Fn5z2d3zYQ9MdHWrxfQ+/E5G/6qX9iX8cQR2rkgxd1ZffIMkDqPeHeVuOfikdyv/RIliRHkaK6UNyq8QziX/Rj/6vlYj0hH7iGGsPjH9iJn2cY48wr98qrwxDPfyvb63xsTYqbZniH/t1OGnEP32McsYfLJnQn8OPLL/mPZz7+ks8KnYrxDxOJJMCyhjynZM6dxpjR2hf61Q9ox6rlFINFN4wcvqUK1d+GeooKzHuz5jTlrbhVKCvvpgk86T/7v/5YNv97L9vO/xCTeORJfuU4cvzfrPDIQXorHrGSoBBY+ewwwsrczKSV7KckbCCHfglpcjSOfGepHa0GDHpbplkMLICGJwiWmenWOF7H4uOLB62Hb+Mo2yTbAZ50KVKj2p9J7gUvh1AfdjEfvlTtqLkR8wkY4KdZaCbJ/j1v/xRq/MmJua7/dq80rHjB1Zm4pHvIZiG1HRYG+2lbjdS9Kc+sgWNUyVUBizgG/+BX33k6eNfhzQlo+QgsVxdeoymbv/KNhrikE6g/c7IbqOT2yJRVXcOieeQbePM/xaTFAfrs4r/wFdF+78i1St4JT8kM/wOO1c96kxf3X51k23oPqI9xT8TRQ/iwGebnXDG7CRRUT16M9hJkRVd5fDg7m7b4xfjd667pS1eymu1X85P/PmbCabwFbM71DOuxCgeNP7rrTrOR2qxHX96n9gp3mIhiRPYkaPeJbueCraEnDnD+3tCXeZlEjj7YNv56ofa7tc/2Xb8+S1+ZmvBD69m9TBEdcdm8iYftVBOY3oJei1CovJDUMzmLUqqPclP3yNEcy3li2ZTACSP+E5WMiSbg1XjWpW4ksm/gW+djQ4a/zII2Fa6TPzQI0hZfdBfLr7Iogz8gVhqjZK6dxpUU7ZYRaOmvSJZ8kzYjnNPpI4UCsqxnwEX/bqEbfjFN8OnYhqfCIvfJFKvy4h/MWDl3P/w1pHDfvs38VNWf7Gr8WD7I7f0HURr9iNAGfF8ZSb/P6v4q9e8/88nUtvAWrN/pcWEPzyuf2v1r566+dLxrxhu4GtbTwfZb0dY8MMwe9wmsXecC35X8J64G+5qF/nx4KO3/Qg33Ncji2tyIowabPUNFKVhN3bY32uPuKjiHYcTC/UztSi5qDoT+7efExucIeWrl08ziSWfekVWz8pehB9APfzIZ9rud7/SFo9+rS1PPcDrTE6yQmPG9ee0JEeOomTzUZS8xqYLLOfb2N06DyRMae8ypHJkZAFMQ/AjxyW1EwpJ2jn9yLvt+Iu8RsQuWbT6MfhmIsQyaRt+uERb4at5rQSLTZLItmhG+W437A/uaJdg4IsLuWmf/UPQsB8edanvggqJmCYERZZfc/yaldIobFZMG/iph2/sUCIv0hA08Ltxsb9jRuc5PvnIcLsR/5WuAkGw2pQ7KGdy7fIcnDFkC74tppBO9CVWuS7IPZdX75wfBIMBgpn9Chn2Dx2Lo6LtxL/Z/wb+RA/D5IuOr/0+U6mW8YlMEbyBT3XVs5loPH+NdQAAAmZJREFUrLSw8r+RF6R6pO2kOX3PBwI2j2kn/Blt/Dq337ah/2F+m5a3hThpLa+8jc8J7u+6qS354eDlNS9oy8NXB/85vMjwEG/0PSh56Hf6idNr43+lK4qCf+TY7By9Sqv/RuIoMjb7prGkBALiyaHWjugNAUOYRmFZTlxL5ufYdW2P96nvvPidvPLE15w8zO8EsuWwc3mBFyw6WJBz7smn+nF8xxKD5LkPz6PYKY6xIgxk8OezGYQ0XODHF/b4HQAXL0VYOqiTXcv/o0ePpXLVeQpfA7X1Ar/h96R6gREs8D2c0P4xfx3lRZF5WiEWFpTyepFzU3u8+YMX5PUq8d0jT4MNyKO8G8uLGnXOCdaOn1sOkKVbnjz3BFwr/NLHNnXmIa3dnbbL7yXGE50nmDZT1oJzyDCXFYF1tKnnsH+Hq0NevBn4Qx/xTfrtSX6k1nOHm/hOjEXDW2+Oc55DuVZY3fGlwQJifaGdz8+o0TTas0VLaL3d4jg/Tqv9+kmayIqgqvMc6HliLNA4uS6NYkJM5hi2xGdhTm+kXK9Zksbzhk+d66c4xADI2Go/47fy7Ol3OQ8WEXIHr+Ivlv5/gv7akYsuMrrOEB3iFdK7vItP+we+OFE2uPR59HDCmeMrTPu9OOMpjKP8zuU2fOOv7PO8iPHiRSetkp1NlKTc07FjR5mY0YJG/Yro+Dy6UHHhIm+q4SjJNuVIl4tDKVb/O8pvI2QMWRd/rNaYC3+zc+dYO7/DKosfTt7bvRoB9kot1/46N6rspKFftn7pFhtrDPqMZnSxBmXKfuokkXwYMORRtZY0gPR/AXxUI4Td78/sAAAAAElFTkSuQmCC;" vertex="1" parent="1">
          <mxGeometry x="10" y="10" width="78.21" height="40" as="geometry" />
        </mxCell>
        <mxCell id="5Xc586aEBhK9T8_wE_ut-6" value="Public" style="shape=mxgraph.ibm.box;prType=subnet;fontStyle=0;verticalAlign=top;align=left;spacingLeft=32;spacingTop=4;fillColor=none;rounded=0;whiteSpace=wrap;html=1;strokeColor=#00882B;strokeWidth=1;dashed=0;container=1;spacing=-4;collapsible=0;expand=0;recursiveResize=0;" vertex="1" parent="1">
          <mxGeometry x="140" y="130" width="220" height="190" as="geometry" />
        </mxCell>
        <mxCell id="5Xc586aEBhK9T8_wE_ut-9" value="Bastion Host" style="sketch=0;points=[[0,0,0],[0.25,0,0],[0.5,0,0],[0.75,0,0],[1,0,0],[0,1,0],[0.25,1,0],[0.5,1,0],[0.75,1,0],[1,1,0],[0,0.25,0],[0,0.5,0],[0,0.75,0],[1,0.25,0],[1,0.5,0],[1,0.75,0]];outlineConnect=0;fontColor=#232F3E;gradientColor=#F78E04;gradientDirection=north;fillColor=#D05C17;strokeColor=#ffffff;dashed=0;verticalLabelPosition=bottom;verticalAlign=top;align=center;html=1;fontSize=12;fontStyle=0;aspect=fixed;shape=mxgraph.aws4.resourceIcon;resIcon=mxgraph.aws4.ec2;" vertex="1" parent="5Xc586aEBhK9T8_wE_ut-6">
          <mxGeometry x="15" y="30" width="60" height="60" as="geometry" />
        </mxCell>
        <mxCell id="5Xc586aEBhK9T8_wE_ut-25" value="Service LB: 80" style="sketch=0;html=1;dashed=0;whitespace=wrap;fillColor=#2875E2;strokeColor=#ffffff;points=[[0.005,0.63,0],[0.1,0.2,0],[0.9,0.2,0],[0.5,0,0],[0.995,0.63,0],[0.72,0.99,0],[0.5,1,0],[0.28,0.99,0]];verticalLabelPosition=bottom;align=center;verticalAlign=top;shape=mxgraph.kubernetes.icon;prIcon=svc" vertex="1" parent="5Xc586aEBhK9T8_wE_ut-6">
          <mxGeometry x="110" y="116" width="50" height="48" as="geometry" />
        </mxCell>
        <mxCell id="5Xc586aEBhK9T8_wE_ut-7" value="Private subnet" style="points=[[0,0],[0.25,0],[0.5,0],[0.75,0],[1,0],[1,0.25],[1,0.5],[1,0.75],[1,1],[0.75,1],[0.5,1],[0.25,1],[0,1],[0,0.75],[0,0.5],[0,0.25]];outlineConnect=0;gradientColor=none;html=1;whiteSpace=wrap;fontSize=12;fontStyle=0;container=1;pointerEvents=0;collapsible=0;recursiveResize=0;shape=mxgraph.aws4.group;grIcon=mxgraph.aws4.group_security_group;grStroke=0;strokeColor=#0000FF;fillColor=none;verticalAlign=top;align=left;spacingLeft=30;fontColor=#147EBA;strokeWidth=1;perimeterSpacing=0;fixDash=0;" vertex="1" parent="1">
          <mxGeometry x="425" y="130" width="290" height="190" as="geometry" />
        </mxCell>
        <mxCell id="5Xc586aEBhK9T8_wE_ut-17" value="Worker node" style="sketch=0;html=1;dashed=0;whitespace=wrap;fillColor=#2875E2;strokeColor=#ffffff;points=[[0.005,0.63,0],[0.1,0.2,0],[0.9,0.2,0],[0.5,0,0],[0.995,0.63,0],[0.72,0.99,0],[0.5,1,0],[0.28,0.99,0]];verticalLabelPosition=bottom;align=center;verticalAlign=top;shape=mxgraph.kubernetes.icon;prIcon=node" vertex="1" parent="5Xc586aEBhK9T8_wE_ut-7">
          <mxGeometry x="130" y="120" width="50" height="48" as="geometry" />
        </mxCell>
        <mxCell id="5Xc586aEBhK9T8_wE_ut-18" value="Application pod" style="sketch=0;html=1;dashed=0;whitespace=wrap;fillColor=#2875E2;strokeColor=#ffffff;points=[[0.005,0.63,0],[0.1,0.2,0],[0.9,0.2,0],[0.5,0,0],[0.995,0.63,0],[0.72,0.99,0],[0.5,1,0],[0.28,0.99,0]];verticalLabelPosition=bottom;align=center;verticalAlign=top;shape=mxgraph.kubernetes.icon;prIcon=pod" vertex="1" parent="5Xc586aEBhK9T8_wE_ut-7">
          <mxGeometry x="180" y="36" width="50" height="48" as="geometry" />
        </mxCell>
        <mxCell id="5Xc586aEBhK9T8_wE_ut-32" value="" style="rounded=0;whiteSpace=wrap;html=1;fillColor=none;strokeColor=#0000FF;" vertex="1" parent="5Xc586aEBhK9T8_wE_ut-7">
          <mxGeometry width="270" height="190" as="geometry" />
        </mxCell>
        <mxCell id="5Xc586aEBhK9T8_wE_ut-27" value="" style="rounded=0;whiteSpace=wrap;html=1;fillColor=none;" vertex="1" parent="5Xc586aEBhK9T8_wE_ut-7">
          <mxGeometry x="155" y="10" width="100" height="150" as="geometry" />
        </mxCell>
        <mxCell id="5Xc586aEBhK9T8_wE_ut-14" value="Mongo EC2" style="shape=image;verticalLabelPosition=bottom;labelBackgroundColor=none;verticalAlign=top;aspect=fixed;imageAspect=0;image=data:image/png,iVBORw0KGgoAAAANSUhEUgAAAOcAAABZCAYAAADFNDMlAAABPWlDQ1BJQ0MgUHJvZmlsZQAAKJFjYGASSCwoyGFhYGDIzSspCnJ3UoiIjFJgf87AzCDBwMPAzWCemFxc4BgQ4ANUwgCjUcG3awyMIPqyLsisPW5ncpp2mi2/+eDaJHfe3ieY6lEAV0pqcTKQ/gPEickFRSUMDIwJQLZyeUkBiN0CZIsUAR0FZM8AsdMh7DUgdhKEfQCsJiTIGci+AmQLJGckpgDZILt1kpDE05HYUHtBgN03wNTSI4SAS8kAJakVJSDaOb+gsigzPaNEwREYQqkKnnnJejoKRgZGxgwMoPCGqP58AxyOjGIcCLFCoP+sPBkYmHIRYgkBDAw7PoC8iRBT1WFg4DnOwHAgtiCxKBHuAMZvLMVpxkYQNvd2BgbWaf//fw4HelmTgeHv9f//f2/////vMgYG5ltAvd8AQf5faH/c1sUAAABWZVhJZk1NACoAAAAIAAGHaQAEAAAAAQAAABoAAAAAAAOShgAHAAAAEgAAAESgAgAEAAAAAQAAAOegAwAEAAAAAQAAAFkAAAAAQVNDSUkAAABTY3JlZW5zaG90jJd+swAAAdVpVFh0WE1MOmNvbS5hZG9iZS54bXAAAAAAADx4OnhtcG1ldGEgeG1sbnM6eD0iYWRvYmU6bnM6bWV0YS8iIHg6eG1wdGs9IlhNUCBDb3JlIDYuMC4wIj4KICAgPHJkZjpSREYgeG1sbnM6cmRmPSJodHRwOi8vd3d3LnczLm9yZy8xOTk5LzAyLzIyLXJkZi1zeW50YXgtbnMjIj4KICAgICAgPHJkZjpEZXNjcmlwdGlvbiByZGY6YWJvdXQ9IiIKICAgICAgICAgICAgeG1sbnM6ZXhpZj0iaHR0cDovL25zLmFkb2JlLmNvbS9leGlmLzEuMC8iPgogICAgICAgICA8ZXhpZjpQaXhlbFlEaW1lbnNpb24+ODk8L2V4aWY6UGl4ZWxZRGltZW5zaW9uPgogICAgICAgICA8ZXhpZjpQaXhlbFhEaW1lbnNpb24+MjMxPC9leGlmOlBpeGVsWERpbWVuc2lvbj4KICAgICAgICAgPGV4aWY6VXNlckNvbW1lbnQ+U2NyZWVuc2hvdDwvZXhpZjpVc2VyQ29tbWVudD4KICAgICAgPC9yZGY6RGVzY3JpcHRpb24+CiAgIDwvcmRmOlJERj4KPC94OnhtcG1ldGE+Co3J+mMAAClzSURBVHgB7Z1Lk2VHccdvtxVhCINBkh3BK8KS0PSwRQJHeGt7pemRv4Ux3lgSaxz+AkawMY8l38CanvHCEGFvDUg7h2ZGDxyBgI2EAD/EiJjx//f/Z557+va9/ZpuQOqqmXtOnaqszMqszMp6ndNbv7rz63uLhf5X2NpS5N7W4q7SiHbYEsjd7S2lBfyeYAyrZyC3t1RCaQ6gE+ziriIqSP4cF2lbggVMAPol5ic/DvpD/kP/ttswMCEC13s2nhJOLNA2tHVPuW1HMsYt4ASPmU2GCRKXz53cwDhZFz3dFVkHU6tYEDtl0JcIh/zRm/IAqJFlcpH0b7uZ3V6Uwcg6sEGEgiO8d1dGqEfHHbOcFLPourjvSamyKFcbtmDvFg4jl/Ghela/2KSoD/oSkTu/IX/JYeifBp9YlAVhn4V6yEzKzMrAPFolbnOaTFCGa3BfksoV6y7Ddhz0GCpgZdJoH2mk1AVv7bK6DvoWlsSB3CJLx4f8W4OkJRLP+1z/tifviG3Ye8mrachqy8FMnM4lTpa5kI0V4cjZYbAJKBReVvc2PABRLoTI/LPK2qMWkkEfJZPcLEZGD0P+Q/9if1teEMKTbesnS8GfeW5ZRiZtsaGygGPFyaPhrFFKj1lauxyP9YLTRVxeBabQ0WSr9KA/5D/074D9SSQyFazLloSjK685DTOVz38ZEEZ1L+NTYvWf9MxL0/srC89pnIrzKJReZMqj8jqfssIz6EsydFVD/kP/lvYnz3nH1oHhYVwYFXEsBj+KMdqxlRER74BNlUO1fc2yGsTpIuc7idDAO4eYEowQSpU06FsWSGzI/4Lr36/uvBv7wjp6GKpoBxsgBlRWCzBpuVKoAxl6JsmFkp5HEjRbFQ5AVoPBSR/0I7+ZgCIbCWfI37K5SPrHSL88WTQCZeAXj+ZBpxXDabrQnxOvnMACj1WCjICrRJ8kyQzWqhxp5LeFVpF4UjKSbxh71EHfIqVTK+EM+V8c/dNWCs1vFbBRTU9bWqmVUlRO3W1GttsY0FQS1ZnCFiYvgLtlhJhY8BQ+DiHgCfg/6EtuJWXm5v005D/07x0d37PJoBW4udkEEQPEHHMvBSrlcRl6dJeuvACmzMw7RuXI7AB8noNfzyQN+kP+Q//aNDgBK6vATsqw4skwovZ3unu5lTQFGWOcnkqWTcXO+gFz009wNjgXiiFCBBvMPqeRJWXQH/If+md7mdufTxaUydiMslXS1lIzRrzjZF8xwsnjYW614orVYniWszwn2y8E8Kd8lWL4ZgsXfoEM+sgpAh7yb93jfrH1T1sp77ZpYUdlvdyWCmNjIw+DKoPzo8ExXDwlWRgnRimxAhozzdAXGMNTMqoIBcKSUh5MZpY6lRv0h/wvkP65a0L5HaT8eDgbphYkbEJ6rqPvMjJb4JSezj6GSXwbC1WIYQLGM14z6UwnsLmkxkBJGvSRgsKQ/9C/mf3Zc0YzMBLMskwFC1K000hlyGUI5eHEdCQ0zlRQNlzsmXL7AiVrlg8+5ZtGGewcvmm5+KCP8If8o3GI4sLpXwb1cA7zVgVFeNYvXjTzyBjtPR/BtaDkRTFQbMgT17WGqUxjrTfTpiGJTFwFWWdyAKHCoE/3pIA8kK3lO+SfLT2EcrH0L8YpLbBSSCOsF3nIqFQ5fqEE76d0K4wuOV4gYZUCFYLSLAGCKBeVweyMWWAxantJrJsw6Jf4hvytJUP/bBbT2VrbDkLB+hhyevwZ4ykTWtqfi9pWy/xIkNnJ2PrtFQNXQRsieNm4qaGwS5Nvb6qI4zwTH/SH/KUD6IJCrtYYP/cFde08ct9v+ifPWez1kBPDUFoeyZPn1A3f51A34j77NyXKl1IUIXGbwPkKgowWHEK6vY112n8CugQc9BGGZTPkP/QPc8hWinqozB9tRomXh8N+MMxtL+rkavvFEm1cdQ8C9AoNcykDlMfE2jsViHnoj4Xl1bOqy6A/zemH/C+o/rHPaUOR5WB0/cDqazbEk5IcW57A4/lsn5m1xtYEyhAWE/f6EEVdhAhOWncbXXnOlMp10B/yl3qgKSjN0D+NMi0IxFHGiHAwMD5B0gs52JTEpYuvSM+9ui1QxmavWIKN76XsYnH9h99bXHv9+4IVxrJ80uNDwWdMvp0H/T4KNegP+b8X9e8BFNifl8XSFOnRKV1YDAZLxKDq2ZEkEG0DY2ialVsDGNfeay8J4N7i8kc/sdj56CcFO5kuJeNF5X7Pi/49H6RQR6MqeaFq0Fdz0SO65Yb8GcX9Duvftud7GIqXUcvWeKYR8XgVnSUlz1cauppaRs6ANsaK1/x+5yyef+laec7AT/6XMjJqp54xfTqZSQkVT8856COVIf/ogXrs32n9Y/BKe3mbg5uHnCSp4lMzyuYE6BDo5LUx8ilL2GWmiZfae/17i73XfkDCVOirL17Ls9KAyZAZrMFot+snABS5D/ogMNYZfRsrz4P+kP97RP/a5jLso9KoNUrMzd+01AMKrSRfyFOwT80E0smeespzXtcc8/rrPwh8O1IVvvWzNxZ7moNimJRmmNkvYztlwgVhpXA7BX0zVHWcHDk0M7Yd9If83zP6F+OUYXjYJ6VuvbY+293YSrCfZGKFCtjSBCxLyuPW4joekyIAzYbF+Nbrr74kw/2e0gu+cIHsrOhb92b0qQaVsW/XKlfqNei7vYb8rR6/q/oX48RYrNXWY1XYy7ipOFcZj/OxyPy3ARqAPKxRgZVZD1ltCqQlvWN45euvvSgv+mMfbIilCOyM6JuaL6heqC5pk+JM5WktxNrp6KA/5H8m+m/t8uVs9E/GKZVd6qyUNlpLUmKYnn6BtDaT10WwV1ZFmWfiNSlOiTrOYEjwEHprg2FvdwZnRT8UIEIMM6TT4CFektR+pY3UQR+JEM6m/YNL1yH/yPQM9E8f+NKfEJJA26ts+ZR7TC+GJzOjZ/X8canslCFgiLffekOGybYJIRmGtAUo5iRdhBDMeM691+RlgT4D+mz5NN3lHXKVXvRZGSbFQRHnDvr33f5D/qVnViwrW1TsPvVPWylR0lZq6apsqV/xEg1bqGk5imukKndn48KX3/6xkqcJTGu999F4iGemVFFRpW/Ie96WkZ4FfXvpE9D3SrFkiBgH/TTX/bT/kL/GaOegfx6sYjTtOTEhK6+0Ng6negKUeanJeohH3dM884aGs3ilKdBjgKh6DnL8c5pi+jQmUVZ2WzVOSz+46QCIVRDdkDbB0FZW0kI/kOTz49p3xV3+ePwP+rTtkP956F+5SPYxZafRUnsTe0hp3lF/n9Ors1buFPeViSfG7fkrKQf/PidpN3/2k8Wtt37sIqelH5PCuMBYAe9+BH1Mz+ZXCAb907X/kH907jz0777+Pue1V/F8CfEg7kNxPR4C2xup1p6z2nJqiQYPjHdS0es/5LAC8LDHj46izKwMzE6RuM2p8oDukbTiSeUqHEfQd+9T9N1/DPpD/r+D+vdb+fuc7hFqGHpL89Xx9yk1RXC/hPdSl8b8xb2Nuimnc8kgZ/x9VOQjcSi83/8+rFo8Ww7tubzDyWKPF3xaEPF4qA5yicJsZa5pPxePycKAA2WlT0ZBxAUrj3QB2asCLPq3Nbw9DX0wUl9qBz7oo8YmrEgacTN91+g++B/0h/zPU/90Jl/Kay3NnOO4fx+RfU2KUj5m0UYr48B6jRNLUZA1xvjy2MPcmJQOJjC0tQWrWHsN9wDCEyKeQ/rJ41DwmLipr6M/gQkSlNDvKjV9cJyW/0F/yD8quF7/z0L/Hoiv0ZU5neQdL4Tyx1v6c5hK9wa+XYXV2d7OUE5rWFKWAXyXH/zE4mVtmeTbQsJKm3o8IjzigBVg9j1PQv+m4J/nID3B9Kfb4ut/8QUni4zth2w8OPRJW0ef0tC/rcUp3qBJaMRbi0sf/fjiS09cLSLhHxggQv8g/6ehfxL5N+n3Ov29176nEdiLU9tEqM2dpCgdUdOo67632HnoE4vH1RaE3Uc/d6T82UtnJ4GRmtuKu3C5m46wUUbnXpKe7oBbgOAmYg1o+jN4ShDOu/1/78tf/vt/MBEoxnmacF+Sp0y6At0YKpL27f/89wape2XoqWHIeOiDH1q89c7/kGpjJC1cOeYH8O3onc+H/+DDnTjdybMAZ/T/6IMfXuw8+MnFw8LNkDhhSZ9G7ABbJeZD6cPbt1/+t8Wb7/yS6FTF3ceeXPzZx3ZE6w9hYcaba9ZkUqKT+q7Uk9A/ifyXNewqLPmfKv8eoH9Z7UjT0nm+eeeXZqblj8H88Qc+vHj4Ax9Su/z34s3//eXi1ts/cZtff10GLYNBbxIO8r+j8rxcwUr8m+/8Yl/7k/fw7wu32vUttfmb//fLxe2fB/ee9uCxYmDclBjwTP+cNheyK3CQPsn30/4PUNgNTc+QmO94Euinl+lehCTmiG8ofTlMdAGqERQeRiYt5Yg7Vvnpvozcyk7urZ//eLHzcAlD8IfRxwdeepAeVEPiBUNiQuiztbP7CD1faDKEhWzTR7AeYtODUIQE6L/9hn7Z1nGS+MfIr7gXBSKw4IE+CzOkOR0URuZIJtWKGvaY9C0TlwmOo/h/P9G/8ujnNTqR/F9ayv/Ko08sdh+LB0MiLefeV4f/3saLp0v7W3q4SgXk/7RwX1t83zpLExG+/pd/ncas9geO9tvTO8jXX9XRUj1d907EPXnRzwtRQSjDbSrY34T8T/X3ORlWEjwicGz/pf8+Z+Z5qHIMBNYsnzV/n9MekLkheEGno0r5mHBwO005FqMeuHcF6OHm4fp/8eYLw9kudTR9zvt6blyIOC98NP2q65y44s3/SegbxYn5f3/SRxa7j/3pWvlflbH8059/wV4N/cNApymOhbhO/i0nTVHQlTX6Z5p/8rnFUxopEWj/G/LOk64ndUX/Gq8zp8tZtb+O79VYFj0mGn1ORPH0FDYFpZWh6ZFYjvqVwSnXNdftbta46XAWj8vDLSHK23qFJoROS98V1QFf/oHpCkKtat5866eO10hkH32qmRWi/fR9GEL880kVg4BV/zfxH/rJd4EUcnTOP1Tm/BvgzPh//9Gv/lRiOlz+zz2xu7jskRaHWXRWm9Nm1f6Hyd/4D5H/VY26MpwNfYbP6EACLal/flS+9GWZJ4hj0DeeQ+jDdoKG41YckPJTBsPAzoy/oTLVpZOhmqH0VIqeC2ieicWTYoBkbC12PtIezQBAFryeTaZgyeantLOgz5ldFndCQ3iNPPfUdz99hjOAUN9LD30MQAW4B/po/oNesIDrApdeAPMzaTBHOB/+Lyr9px550iJH/65r8SenzY6Qv/TbJ9dmbWX50URKW9U/Wuwo/T8v+Xtnu1TG6pPPYVJTfu1VBcEjAeP1f5unEnjQT/Aw7V/BRbnJgUESEZyO8mHrtnDhV9GzoM/cYE7/puawnre5Zvvpc7JoTv8VD9O3yvtSm+a/mFblj8P/LS1OMTznzPA1ffXhpt7WIazyv0r/uPyzqn3r7R/5jR6OPqbcUv4SwCR/phSH8X9TCyssrrCiyRoCtSSctv1vvSV88K5tMfi/qTn8YfTn8l/lfyn/w/XvskZlVx57QpWO/tnLIQPzsYl/qfxK+6/Sf9zTJLAcTv9+5H8Y/2mLrcUDcHJXmhdCqo8qnkUUGE5IsymOQcU9Ym6qOqX0U7Jt1kwLzgYHeEoydA0kWSoBPLHI1PRdCHLHpA98mgH6oUNP6sP0wsvEfvcRTeYFx1GSOX09qO6hzyLQy1IsMDCcwQCcR7kKwa6HGf9Nn1rcFA6W7G8KT3deqRIl72VRSQK6qsUl+J/TJ97yp+dn7ntb+J7RsI0VaQI85ZtMAi7572khDNV5SosmDOlb/uADxGrFvAN6xT+jCUYJGFFqBna++eQq5YHqgYNyhlosvlHbU+v4v6b6IkNw+/C3KwIOFuro8DCeLc0hVUelbOKfHAe1f967rWdjSdY6+nzVcU+0IHtTdaBDvKS0Of/WP+VDPwq2bH8SW/6d/ao769Bn4THllLuh/ef6D/Am+YNnE//oZ9Nv+3uAhDnxNAqciD3gxXUqnyNm9IZevpZAjE7PCAYkUWpFqeCEWDEDWCyOwkxnV9GsvqrgcehnsgtesCzpPy0FuCFFbvp8s2iXoU/RU7sfoI/Sk505K4beAoQbPej/Kv8TfZV7/gcv2KCB+8xDH3eZrCQvZGQc7Ne7rqoTAV6Z03R9VMRp3JkzeXsAeSqV+M6Dn9K+6ws2+h0pCXvG9kZikOV+8DGcYxj/7JNXJ/nn/VxlInfhgx74zStJeqYjAicyeUXGSqeE4JA/6Ze0Uo2xoSicvPIf1TA6XaQbfBMKL9kvLrCyzZ51vI54B6eMlvpZiMLDyrerBMNJNQ/1ONG3VA7Rv7n8LRetE0CLFkNuzz3xSeNt/n0XPXiFeXHgAF3iq/RvMpIQfbHjzHX8N06A4Akkrf/r5C8I0z8J/zZOChKmD2pBKR+TVVpYsW+l8YoTeqZ9f59T8KwDwW1KAMD+5adqu4OGNg9QgljgJuDj06dOVAP6BKNQHPqstuHFCEvvCeBB+iwk4KUIdDjwH/Z0FT804zr+m/4/fv+aywO5+4iW/j+tpf8ZP0asvOdf/Gd7K95hRURsHazjf/fRz8qAXhSE6AvP8y9i+G94S8Fet4yHBr4qj9n0GeLuaem/6U9VcISvVPyHjEQLG0ILf89+9mltW2Uz3/V9NMZ7owwJz3qFhREMTgD8m7c//H9VhzW6/ZE5nY6Za+LC6ZHAD/kszY9EX20i4oYjckbtD08sOkKL9od8VyGRUkqkCll+h9B//sW9yF/tv/tp+GJee5B/oZn4d+46/S/52xCgatoqeAh955EvfNQ8z7pBxPigrB+GaMLCyp0n/gRD9+AQA96lEIwLK6HCJXkSKrZ8ebsBxK6irDM5gFrhuPRdEwx0oq/C1QaFyvi4oJib6N/Q0JcQLyJPEU4ij8JNGsNz7s0/sRd0sgXDhqNdDd3aMPS4Eu6pJ/+rLOGrzigpRx9X+WevDqO1hEQAT8Bw+YqM8OpjpO+njwdlqAg8tWMDPYVXyCvxhr5SYbwqwwhhBw+vhLn8oc8QuennW8Npk1X+8cLQR/4Y5tMq2/KfU8e4n2VVVcNz8LJ3aA+tp1X6lIPHpg+7m/TPkij6wPMMfXAyitgfwFp4AVCgw2MIfPtNzeEFzw+e/ua738rWiRBekWEie5de0/7NPxjxmOv4NzFjMEQq6MTj8R/PaVcfJqyGogVRemhiPazzkABJ6DzcZQ25bqpH5A0TzzUQFuC+yupouUrxfme5XPdC5Am+v8gO3mz2R4zQPYp+5rNebg4d15WjV593A7HY4dZV7ib6LIoQoG16qq9r3fSde5D/W2rUf6mv2cO/N6qr4ffxb57hk83szy2elxLAPx5091GG29Wj7JO/MBR9YPipE1W9GBpI1lRQ8od/hnQeQimxh5er9Omcmn86oSvC56ZZkT/1gg86j6bPPNJDX+Fv+te8UY8XRuHuLp5GganUIfw/JZp4dwIfgfvSQ08bfj//5C7b3080ClRm9CHV/EMf+TPvvH4v05Pwj8CoE8DIP5jBxpCVjs/Tg8mi0Pql/ucvFDCSosTR9I/iv+UfbKLjulGvde2vfNGFtIzTNZgaDE5AFgiYa78DAwpclP/4gx/TmVmNzadEiEm4flY5e0UDK015RNm4yasqYCoadUzKchTQMemDDnFGJ/LU9NloZvWQyjCc85BwhT69J/mcp0QBhUoIoe//qRt1XMM/p5loTOij7Cmxhv8Iw/ybzkOfXNyUYRPorXf0XAysl78h18s/HK/y39Uu+Ys+dWz5Zx6JQlSgfhHgRJ/hPcqLbLhj0On30/4GN94sRq2TPzJz+4NfgVVV+L8l735Le9A33/yJvTc0JvqqqeV4wvanGKe7KNvtv0of/k2n9M/rC1SwjMTwqsttVpypn9qG1WZ08VmdqWakCAw19KX4R7bLxMPpW04b9B+0VMV1nPEv4yS1MohboDS6m1UZd9VR0cAuHXDVkkbcVm/l5MLBkBd1gAkT424MUjBF7grntt+DAX+UBggvoLj2x6cvtGv/PijU8YSe4wAk/C/IUzH0mtPfe10fJFNF47EFNtFPmfSs4XmV/8YNv14cO5R/+xzz//hHPyav/iORZUHnpcVzXo2FhsJE39Kz/P33ZQS9Sp96E6CfEBzr5M9ijycWAoEn/j4q9OfyN46iz1SEUccm/vH6HT6zso+9jr5aOXaKQpu+jP4XWlGtBaRoSGPUfdI/cuBrvf5RwvTMOhfpmORxUP+gL0wCof1ZtPN0AP1rQYKM+CNG5iEuW0xAMO9/5omnPTQ3DCAz+R+t/8v2n+vfJvkv+VdbuVqmQP8YqqzQYYypvGrjuFl0o/LMfAIBu6ZsHBGrSlMygQaR2CQZssyXyjqtOVT6FW95nIw+yIRKQZjX0PcSvvMYRuatBw8iVIghYPb2Mt/0sMT+oRk4mv+j6FMz6oZCNv+fUYcGrVX+N9HH41hqKlMq5vJm/Aj+TV70r2hBo+ljqKZFmyCbCnP67niO0f7wf7z2D/+s4tJc0GJUs4m+q3RM+kIFxn3tj6ffr3/QN1Tocz2EfzCy2MbQNnXUx9DVIZ1W/vP2b/07in7bn42TByyW3UACAiQmtvxMJWlKrq6wVhJQMLYpzDluEVDfgKqSwoMRx3gKRuUyTDJqTbqfEIrT0afYJvqcwWwlhr4XMaijyrDdQvBwVvdV+mX1zYV5htQq/+Dy0PQQ/i0Xdx6ljioz5596nJb+YfzD6px/N47TiMHNMmyiz34hoduf+dq8/U9G34gs/7X8W9quteudpspz01+V/zr6O5puzfUv8odf4QrS8ABjFVb5R/+9JuACmYIw1D0O/dR1qf+hifNSzgnoAyrjjCF6XjJ5OFVDOZ7Iki/eDKV8ChHojXiLxEf08A6CQQTxr5av5xqBpWIBoIKpuiL6v/uoDjiDTziYM4DDDB6DvgvC9wb6u5/WBjj4wAsRqqB7FifYINcqo5Cso49kjuKf+TyLQ5vou9En+pnDrfJ/P/Spo8eMG/iHPp7Eq+uKM89lQWcu/zn9F5xHijzu40/KM7IBr3+Sm6UkQSErAu1/HPqB3S//6QSOkZX8RfPE7V/8swpc6rVP/5byT1t2+2/if07/0sNaYRbS5t8LjGL69Pyv1/+S7Fr991sp1m8krWVBiGMgXPjAtP8p0QNXDMiZSoCWfplcS/jSOjxvKp8CNWo23JYXgoI/FHrIxZobKaegTz1N8Gj6N15h/1CTfikod7wmHQsNeFL6l5grFv/Hpb/K/yX18BA+DX0zfQL6njN9BC/Itkq2csxA0edl+K9of+/GK1nxZEGN1+5W25/59bz92Y44Lf9z+pG/dOcU+udz0apE6x+Lf66UkC71D9woyn79O0r+lz/CoRIJWkV11eWg/p8d/wf1/4EMYWlpt5RpuSLEqlLuJUlMUrGYXoWe+SkNTfM2u4AArluxVHgELwPGc2DClNs3MT8VfSQGFQhy3U+foYlPqLhKel9PiukeUPS9ykoZDRFUq4n/YAQnFXWOWQLESQ3gR8EoOGsNfdcHgKIP80GTcq7zCn1ygDmMvvMMsUo/bQiCNAOYFAT2zJO7i7/9zjctf1aw+YUS7kdwWJ0KYYBZgVYh/QcDuBLRyqumKS9r7gonJBMCc1D+c/69Alztb8QU3Cd/6CcHfP2wSj9V6Wv+cFbTRw9dKVAJZE7fXnAmf9PYR/+g/nthjJpAjqB7UwY7elxcC+Zw/sn1oqpxRA/283+QvlrG1dQQJTWwyM2tL64MPQxNSAh08uxzVOxpDU0zEddswgAllqB0ITNIxUgTzFN6mRZf2xhPRd8KhcD4x/0gfXt20YNun1tFATNkO0gfLNRvGhIJ7yr/u6o7cPDPEbYeMayjT/HgC/3mn3odxn/oh69V+pFZ6FPdgjK+TfL3HzMGVj+ML0O2Jf87GsaxbfDskzo9JPmgOBPmWftzfjmqtbW4xoki4TuKfx+u9/ZM6OOVV+mfpv1f0B4u9OEf/bsqPdzEv+VuWElPrB1Fn6OfwazbjH+ksir/o/jv9qeu/I5DH/lPx/fs1VTKlQYJCipv5o1S9wpTnZInALwugQqz0fz8z16woLoCMGUIcwRCKpZD0Jwa4WVk64DKn4Z+EKYCIiX02pTW1dWCphIZ5nCMrypt+j7MLKC19M14gbulVekV/jmQzkoqwzpWfq/pxA9bMuvooxSg8QfRwFP8w+8m+m3Ax5K/ZZs2oLNY5R9cGJHP9yr+lOrJCwF8ZQA5TfJHbrS//h1G3+sMMgS/licPCv/Ig2ps4t+ZCKHoE4HuKv/AHVf/+FOSN16V9xdOwjPqWDbxP6dPPTfRN/+qGCe//EUE5KGFBU5UecuNwqIHz2wp0VH5Cx5+1ZDV3fXyh/W5/tGZrOO/6bf84xDVSggFwsVr+Gko8ghkYgUKNOwELGgWHb6k/SCHoMpKphK8pwWwhnA+6ibFcPHCBbL7oi9kqY7wUIGiHy2TQuooFgKBPnAopuHvg/4zOmhuJMLH9gPKD4119L+ic6gM+8+Nf1HdxD+LQNkKYCj/eXdWaMb98B/PK8aFhK8Q0PFsov8V5Z+GvldH1+gfC3ChqQ5XRPGYHBHcRF+1tK52+3vN4RD+yQc/7cgCka7eUQCPiUhnoIkzsmFqlMH9MPpkNn3gjiv/eE4qq9pQoVQn2ypWNJDJeJIPlTRseoPKY2tFJVlIYLh6XRvs27Zi+mFgcmdOkO+90GuGFtnGeUL6vBrEGwjUjT1LlJCQIRlcxPKgv6OJ/Q3dqUVOe6ynj0KwFwgkZgzOxsu+lzmf8c8wkLnbbb1jiYHyJgYHDegUPqMTMddUP2oCDu54bB/1U3yVf79ypXTgqCf02f6BH08ZLB/lFn349/yZtin5czQOXnce+hQU9NPKtLyA20Bxhpd5S8Ric5sCQz50ocNCGfTZiupyq+2PDJ/97K6UWIfERZ8D8/AOf/T+jIrYruoje+BhGJ+5rB4UVvlvOTf/X5OB9CdDwE1lsl4Q/QMHOBkFhP/w4UrbqIp/yZ62abzcv/jdb6bDLga59Zs55IMJ+aPP1Jk2mOs/HTFfZKReO1pou8o0waXqMqM/pTtrWfdV/oN/f/tv/erOHclTsx/VyoiE2MedhCwVxVkrrtIYZNICSxxyrstkrXnDgcUXNnM9L5MCI8ir+kEr5VTYAbwno4/S9qtec/puLK/WBTOUoE+tKYNQeSPDWwsB0TX0X5ES08vTW67yz1sPz8lTbuKf+Vw+CDUhFdbMxaDPsA/FPYz/r8m7treY06fs36kTWJU/daWXn/MP9XgSeXUF+Of8c960IEG1kqz3h83yf050oX9Y+9MhcMjDwpkhbv5ZlWZI6A7GOrS//fG6exqeHlf/aDsMBsPZpH9dDTw2n96ctPYY/F/SkUrkD4105Af1n46ETo8Om1f3cDi9Z960uc/1z89r+G/9W8v/nXd/bavTxehyq7jbMXHeYIibr51M5bU9tpAgFEFkT83fgFUSJ/z7xWcgvAyhCHrCwWUQnYS+e9KmLzyFQh4jZyBTj6kqrtItnee89fM3rCib6POq1Cb+L2tecRT/nldaZdIhEGW7Jgcx9FBcbqLviiIglIjCFCmZnlT+lHT5QvXF73zLuFBq9/RKj/yd7JrhmTw/n9FnyIiBHkUfI02g0uHfnlgKnHps5p93Xo/T/hgOuG3eQneY/rkugmF+aPp2VaGyX/6CRBb6B5/Ejyt/1hzc6RhF+FsKHTzBfRT/m/RfnlPG6RoJkUK8IL3F0gU7XVB3Zd6eVVFCLWtYwQG5zdCqe2UYFOwX//UbZjRnEzGcCmp8LwD5sTlI3lnSZ98WQdu7NG3uF4w+e5h42cmrHsH/V36wJ4/LaaClJ1aRE7f/kP/96Z86ESyJa98Vd+OVccYCpdDotGACpgf1YMCpLAY7GSbIXD53cgPjZF30xKcJHUDWdPs+6J+l/Bl2YZi0Qb5ofrT8rzz2WTVCt39aCgSj/aWjUVMJ4/z1fzrmeB5/n/KyhyH0vpm32LFi4DJemt7NX8yeB32O7SVk3nAR6XsKIFkz0PRxxWPIn4WcPvJ4r0/tSJRlrjb0dLlLXaUZW9p0wCwMDfm3RE6nf57yWZgymBZ1Nhx4jIBbqWNOTVDZtHiFpHIVHhWgDA3Eoz2sAapJS0FIsv3QmOdB33W52PSZc7X8+8NetKtHN8eQP/PlU7f/kP996f+5/n1OLwjIe9qImf+psWho96hucaVgxPoYjW0zS0VKk9XbmNVNUIxGVh5X5sJV1Ifz6TASKNCLBenjmddi/ReZPm/NNP+8lByRIHQL2LdV+efABFLdXrAQNuT/29G/LAjRk9abq6h1lvJR7FJ8R2lMhqOxG6s/+WpkcjAaAvE0vJ69LFaJySZ3Mqdkq8Sgf27yx3P2qjmyz34jh8O7eZby5z3LPW2L3NbqKS15RW/1eF9aIO7oRvv/RvV/650776YPZXxZw53uVZdmRJ7bS1lamRVc21qSOzMwutpIjVhZ2PBdGT9uGsgYfTqB8nVKG/TPS/4cPuDtjRgYW1s5G0wn/Lg20W/rhMvtt3+qbYd8uoX25z3bPjDi1uwmHu3/G9N/H0JA+Ja9LrYRDEhppGKMdmxAlP042xCyWaVVlnF0Xt/Jzq5XUuxsQUTEZU3ZZZ2kNFIG/bOVv8/WSqp8cXAa9azIn0112sSnYtjbFORo/9+i/v+qPCcGOA1DsY0KaT8MKVaDMZKWa8wooGTomSQAKiuPJGjgKxyArAaDk97D4BlA8pQ56Fum9yt/jgkS/AqX7j6apvslDHPIf9JbZET4bepfDWtdBdekjccrrSQfMMX06O0NqySAy1AGCCTW6HksvbAgDG8jVkwJUbbCEnDjGfTpkBCFL5GbJTPkj0e/CPrnLyFM3YU4xoD48Tl673VZIRrCA6JMjUjHuCp/fjurv0846KOGCbkP+bsblzDcZene8nlf6t87Or5nFYBLhjXdJSlqQeia+1IMxFzGw1RilRdAPanM5IIF7HyLkweFYEgsnsBJg/6Q/9C/6nlkjjEymUkZ1mRUspYYna7sO7ZtypSZ/tmklOZk210/YJr6MV7tMkaOKZqaPXLyAuvsQd/yGvJvpRn65539Mhmsx4s2sVSsBVemgG+1ASru+SJ6VB4PK/NqkgDwpPxcRMJ1ekwy5asUtm4LF34VH/RRyAjYcnGc5yF/CQFluZD6p62Ud9u0LAcbi/QiXjMKw9X9GQZVBgdw0hEcnpIsjBOjtEtWmYKwcPspZCachZtnB5U1GVNM6gQ76A/5XyD9c9c8GYaUHw9nw/QfWdGD/nNQgNS8lYCZJt3JTk9S/uhpGyZpwAqb75lO6ZH//oGV0HesctC3xCQUmiZyHvJHQy6e/tlzYiAEmQYiyMNkg0mzeDAeC0mwSui/z0gZGy76RLl9gZI1y1fUHtZKV4Az+EF/yH/oH/aiILvIpGZ6xjwUeNYvXizzyAiNI3jJZj6JgQLvietawwQZJevNtGlIIiUEDzZLGPQtBiQ15F/6MPSvjJM5odUjizk1Cs2oVDl+oQTvJyAbrC4YHAn59klZaeEwoA0uVuc5qS2wfKOSHcO6CYP+kL8VYegfFjHZHx/4susiFQvF+sj1+DPGk2uyLcO6AN555OZ4HinKmWXaEMHLxo1sPDYJDUALsIoN+hLEkH9kgM4o5BqVckJdZiqmlPef/sn9Fes95LTZyojgPNbjzxhmWFtJZCkwxE0AB2+r8MS8yY9clcpb4LoKhKEwfx8S5TO+OeCgb3nZMCWvIf9oD/rEt7kuov5lK0U9VOaPeYHL8fJw2A+CyXdoc7X9Yok2rroHQexZ8MkkT3GPfSNeF4kaTtf+WBgnJjHmQV9iG/IvnUSTLqj+sc9pK5ENYXT9wOprNsTbnLhjdIR4PttnlpQ6WRAxMc9IpyJEcNK6W+nKc6ZUroP+kL/UA01Bz4b+aZRpQSCOMkaEg4HpLxfIOOmzEFRByaW1eeLdvCYkY2MM1oYd30dZlSFRwQfYC4D0+FAAnOvboJ/OcMgftRj6h/1t3Xn3XT6wJoFgNY7YoHzxsy3IPZpj0Z4lTMemoXEBTGV5VrC1YslgaRg9qRKD/pD/0L+D9vf/0W6UwBqqUacAAAAASUVORK5CYII=;fontColor=#80FF00;imageBorder=#66FF66;strokeWidth=2;perimeterSpacing=1;" vertex="1" parent="5Xc586aEBhK9T8_wE_ut-7">
          <mxGeometry x="15" y="40" width="103.82" height="40" as="geometry" />
        </mxCell>
        <mxCell id="5Xc586aEBhK9T8_wE_ut-19" style="edgeStyle=orthogonalEdgeStyle;rounded=0;orthogonalLoop=1;jettySize=auto;html=1;entryX=1;entryY=0.5;entryDx=0;entryDy=0;" edge="1" parent="5Xc586aEBhK9T8_wE_ut-7" source="5Xc586aEBhK9T8_wE_ut-18" target="5Xc586aEBhK9T8_wE_ut-14">
          <mxGeometry relative="1" as="geometry" />
        </mxCell>
        <mxCell id="5Xc586aEBhK9T8_wE_ut-21" style="edgeStyle=orthogonalEdgeStyle;rounded=0;orthogonalLoop=1;jettySize=auto;html=1;entryX=0.5;entryY=1;entryDx=0;entryDy=0;entryPerimeter=0;" edge="1" parent="1" source="5Xc586aEBhK9T8_wE_ut-16" target="5Xc586aEBhK9T8_wE_ut-17">
          <mxGeometry relative="1" as="geometry" />
        </mxCell>
        <mxCell id="5Xc586aEBhK9T8_wE_ut-30" style="edgeStyle=orthogonalEdgeStyle;rounded=0;orthogonalLoop=1;jettySize=auto;html=1;" edge="1" parent="1" source="5Xc586aEBhK9T8_wE_ut-16" target="5Xc586aEBhK9T8_wE_ut-25">
          <mxGeometry relative="1" as="geometry" />
        </mxCell>
        <mxCell id="5Xc586aEBhK9T8_wE_ut-16" value="" style="sketch=0;points=[[0,0,0],[0.25,0,0],[0.5,0,0],[0.75,0,0],[1,0,0],[0,1,0],[0.25,1,0],[0.5,1,0],[0.75,1,0],[1,1,0],[0,0.25,0],[0,0.5,0],[0,0.75,0],[1,0.25,0],[1,0.5,0],[1,0.75,0]];outlineConnect=0;fontColor=#232F3E;gradientColor=#F78E04;gradientDirection=north;fillColor=#D05C17;strokeColor=#ffffff;dashed=0;verticalLabelPosition=bottom;verticalAlign=top;align=center;html=1;fontSize=12;fontStyle=0;aspect=fixed;shape=mxgraph.aws4.resourceIcon;resIcon=mxgraph.aws4.eks_cloud;" vertex="1" parent="1">
          <mxGeometry x="360" y="370" width="60" height="60" as="geometry" />
        </mxCell>
        <mxCell id="5Xc586aEBhK9T8_wE_ut-20" style="edgeStyle=orthogonalEdgeStyle;rounded=0;orthogonalLoop=1;jettySize=auto;html=1;" edge="1" parent="1" source="5Xc586aEBhK9T8_wE_ut-9" target="5Xc586aEBhK9T8_wE_ut-14">
          <mxGeometry relative="1" as="geometry" />
        </mxCell>
        <mxCell id="5Xc586aEBhK9T8_wE_ut-22" value="S3 Bucket" style="outlineConnect=0;dashed=0;verticalLabelPosition=bottom;verticalAlign=top;align=center;html=1;shape=mxgraph.aws3.s3;fillColor=#E05243;gradientColor=none;" vertex="1" parent="1">
          <mxGeometry x="150" y="340" width="70" height="73" as="geometry" />
        </mxCell>
        <mxCell id="5Xc586aEBhK9T8_wE_ut-23" style="edgeStyle=orthogonalEdgeStyle;rounded=0;orthogonalLoop=1;jettySize=auto;html=1;entryX=0.5;entryY=0;entryDx=0;entryDy=0;entryPerimeter=0;" edge="1" parent="1" source="5Xc586aEBhK9T8_wE_ut-9" target="5Xc586aEBhK9T8_wE_ut-22">
          <mxGeometry relative="1" as="geometry" />
        </mxCell>
      </root>
    </mxGraphModel>
  </diagram>
</mxfile>
